<svg width="1920" height="433" viewBox="0 0 1920 433" xmlns="http://www.w3.org/2000/svg"><title>Imported Layers</title><desc>Created with Sketch.</desc><g fill="none" fill-rule="evenodd"><path d="M267.765 1976.932c-99.904 41.94-204.22 62.938-312.962 62.938-204.538 0-365.278-51.097-482.315-153.385-117.02-102.232-175.547-247.342-175.547-435.31 0-219.89 82.46-391.89 247.36-516.002 164.91-124.13 399.25-186.187 703.07-186.187 52.02 0 113.49 8.876 184.42 26.59 0-223.416-141.28-335.124-423.78-335.124-166.69 0-306.19 27.772-418.475 83.335l-95.76-344C-353.73 106.51-172.29 69.86 38.14 69.86c289.62 0 501.813 65.904 636.583 197.71 134.756 131.805 202.14 381.53 202.14 749.174v406.076c0 252.97 50.817 411.986 152.505 476.97-36.647 63.838-77.442 103.17-122.347 117.937-44.94 14.768-96.354 22.143-154.262 22.143-63.84 0-121.202-23.644-172-70.913-50.852-47.288-85.117-98.704-102.85-154.286-40.194 66.24-110.244 120.31-210.13 162.27zm167.57-866.212c-75.66-15.35-132.404-23.044-170.234-23.044-349.92 0-524.85 114.655-524.85 344 0 170.218 98.69 255.336 296.13 255.336 265.98 0 398.96-132.987 398.96-398.963v-177.33zM2376.76 566.626c-104.032-98.104-243.55-147.174-418.476-147.174-167.853 0-300.56 55.844-398.08 167.57-97.522 111.71-146.292 266.277-146.292 463.704 0 398.38 189.733 597.553 569.198 597.553 164.287 0 309.133-54.37 434.446-163.13l163.124 349.31c-128.86 80.41-241.45 131.2-337.807 152.5-96.358 21.28-210.11 31.9-341.335 31.9-293.202 0-524.593-85.38-694.21-256.22-169.635-170.82-254.433-408.12-254.433-711.926 0-299.077 92.774-540.846 278.397-725.25 185.548-184.42 438.555-276.614 758.91-276.614 221.033 0 413.168 62.057 576.29 186.188l-189.73 331.58z" fill="#8A6D51"/><path d="M174.337 10.806c-.413-1.39-1.164-2.046-1.164-2.046.845 2.027.563 3.997-.356 4.86-2.44 2.29-9.946 1.67-12.16.77-3.453-1.445-2.008-4.297-2.008-4.297-1.45.506-3.06 4.053 1.14 5.798.3.12.75.25 1.29.38-1.71 5.18 1.8 6.59 1.8 6.59-8.07 2.74.28 15.95 2.476 20.438.882-4.673 2.252-6.737 3.622-11.13 1.236-3.96 1.536-6.68-1.804-8.986 4.09 2.308 5.404.73 4.9-.282-.508-1.01-2.384-5.045-2.91-6.19 3.51-.47 6.343-2.046 5.16-5.892zm-11.972 7.825c1.5-1.07 4.24-1.8 6.023.21-2.383 2.37-6.005.15-6.023-.2zm-4.41 35.77s.17 2.48-1.257 12.91c-1.427 10.42-7.32 23.65-8.107 26.01-1.57 4.73-1.29 4.77 3.78 4.86 5.59.097 14.958.06 19.78.17 5.01.13 4.768.26 4.13-5.5-.94-8.703-4.13-24.84-4.466-28.69-.47-5.364-.037-9.042-.656-10.45.037 0-2.346.207-3.603-.58-3.06.73-8.407 1.125-9.59 1.275m-.32-7.826c.75-4.036-.47-7.976-2.103-9.76 0 0-1.087 9.14-2.044 10.884 0 0 5.72.523 8.237.673 2.29.15 3.827.038 6.153-.15 0 0-.45-.28.657-.375 2.102-.17 4.166-.32 6.286-.43 1.315-.057.79 2.42.546 3.602-.247 1.18-2.2.88-4.6 1.01-2.42.13-2.57-.187-2.57-.187s.47 0-7.9.788c-8.35.79-12.31-.32-12.46-1.893-.17-1.577 2.063-15.707 3-18.878.958-3.155 7.28-3.586 7.28-3.586s.04 2.48.49 4.468c1.125 4.953 4.41 8.69 4.99 14.11-.712 0-1.39 0-1.99-.037-3.45-.19-3.976-.246-3.976-.246zm13.96-18.26s3.79.04 5.536 5.123c1.763 5.105 2.25 8.22 2.25 8.22s-.43-.206 3.135-4.822c.358-.45.846-1.557 1.296-2.626.113-.243.113-.487.207-.73 0 0-.883-.358-.6-1.41.58-2.044 1.14-4.014 1.76-6.04.416-1.277 2.555.074 3.587.712s.074 2.383-.64 4.673c-.714 2.31-1.915 2.87-1.915 2.87-1.576 5.37-4.88 13.89-7.487 13.06-2.63-.84-6.494-10.506-6.363-10.863-.884 1.84-1.11 9.815-1.11 9.815s-2.403.284-5.03.45c.17-3.02.845-5.026 1.65-7.71 1.07-3.53 3.34-7.074 3.717-10.715zM167.25 97c-.206 2.44-1.914 8.97-2.214 11.316-.113.935 2.83.41 5.44.485 2.31.075 4.598.32 5.18.3 2.177-.094.638-1.257-.15-1.257-.62 0-2.252-1.41-3.64-2.365-1.24-.86-2.31-1.254-2.384-1.67-.073-.6 1.43-6.64 1.43-6.64l-3.66-.17M166.024.84l.564 3.04c.43-.055.82-.15 1.05-.355.22-.225.32-.695.11-1.2.394.318.49 1.387.13 1.763-.26.262-.67.394-1.16.45l.392 2.064c.544-.094 1.05-.244 1.39-.525.412-.338.787-.75.43-1.614.845.638.807 2.064-.056 2.646-.414.28-.958.45-1.577.54l.414 2.16c.845-.13 1.596-.38 2.046-.81.543-.53.862-1.468.355-2.67 0 0 .47.375.695 1.2.56 2.065-.98 2.965-2.91 3.284l.223 1.26c4.466.393 3.772 2.082-2.1 2.082-5.856 0-6.55-1.69-2.084-2.084l.223-1.22c-.844-.094-1.558-.263-1.933-.413-2.473-1.034-1.553-3.023-.71-3.323 0 0-.863 1.446 1.18 2.31.36.15.96.28 1.654.374l.413-2.137c-.655-.076-1.2-.19-1.5-.3-1.8-.75-1.126-2.347-.506-2.57 0 0-.565.992.955 1.537.28.095.73.19 1.24.264l.393-2.046c-.416-.04-.735-.115-.9-.19-1.05-.433-.698-1.578-.32-1.71 0 0-.28.657.58 1.014.17.08.45.13.77.17l.54-3m-12.49 96.28c-.208 2.42-2.197 8.856-2.497 11.202-.13.935 2.836.41 5.444.485 2.29.073 4.58.32 5.16.3 2.177-.096.657-1.26-.13-1.26-.64 0-2.252-1.41-3.66-2.365-1.238-.863-2.308-1.257-2.364-1.67-.095-.6 1.706-6.53 1.706-6.53l-3.66-.17m74.1-42.914c-.434-1.387-1.184-2.044-1.184-2.044.844 2.027.563 3.997-.357 4.86-2.44 2.308-9.945 1.69-12.16.77-3.452-1.427-2.007-4.298-2.007-4.298-1.445.525-3.04 4.053 1.144 5.8.32.13.75.26 1.295.373-1.706 5.18 1.82 6.59 1.82 6.59-8.086 2.74.264 15.97 2.46 20.44.88-4.67 2.25-6.735 3.62-11.11 1.24-3.96 1.56-6.68-1.8-9.004 4.09 2.326 5.423.75 4.916-.263-.525-1.032-2.383-5.067-2.927-6.21 3.528-.47 6.34-2.047 5.18-5.894zm-11.974 7.826c1.5-1.07 4.24-1.782 6.024.207-2.4 2.364-6.02.15-6.02-.207zm-5.723 48.677c-1.014 10.47-7.32 23.663-8.107 26.027-1.576 4.72-1.295 4.74 3.772 4.84 5.59.09 14.93.05 19.75.18 5.03.114 4.767.245 4.15-5.516-.958-8.707-4.13-24.845-4.486-28.69-.263-3.173-.225-5.744-.28-7.62h.017s-.037-18.22.845-20.06c-.13.356 3.735 10.04 6.362 10.865 2.606.824 5.91-7.696 7.485-13.06 0 0 1.203-.566 1.916-2.87.714-2.29 1.65-4.037.64-4.67-1.033-.64-3.17-1.99-3.585-.717-.62 2.024-1.183 3.995-1.765 6.06-.28 1.05.6 1.406.6 1.406-.114.224-.114.47-.208.712-.45 1.09-.94 2.176-1.3 2.645-3.564 4.6-3.132 4.824-3.132 4.824s-.487-3.134-2.25-8.22c-1.746-5.103-5.537-5.14-5.537-5.14-.375 3.66-2.74 8.443-3.81 11.97-.656 2.12-1.013 5.8-2.29 7.676-.167-2.967-5.91-10.94-6.885-15.22-.45-1.97-.49-4.466-.49-4.466s-6.324.45-7.28 3.605c-2.12 7.092-3.08 16.08-3.172 23.55-.113 8.405-.057 7.917-.057 7.917s-.317.134-.45 2.536c-.15 2.4-.655 4.333.51 4.69 1.143.375 3.545 1.163 3.62-.17.132-2.12.207-4.183.263-6.285.02-1.105-.9-.77-.9-.77.204-8.836 3.825-17.712 4.876-26.53 3.72 7.973 1.69 24.936 1.167 30.49m10.524 29.69c-.205 2.44-1.91 8.99-2.194 11.316-.13.94 2.834.415 5.442.51 2.29.055 4.58.3 5.16.28 2.176-.09.656-1.257-.13-1.257-.62 0-2.254-1.387-3.66-2.363-1.24-.842-2.31-1.255-2.365-1.65-.094-.6 1.426-6.642 1.426-6.642l-3.68-.188m-1.2-96.153l.563 3.04c.43-.037.804-.15 1.03-.356.243-.225.34-.694.13-1.2.394.337.47 1.388.113 1.76-.248.266-.68.416-1.15.47l.395 2.048c.544-.075 1.05-.244 1.39-.507.393-.357.77-.75.412-1.633.862.638.824 2.083-.04 2.664-.412.28-.975.45-1.575.545l.395 2.14c.843-.133 1.594-.376 2.044-.808.547-.51.866-1.467.378-2.668 0 0 .47.39.695 1.22.543 2.042-.977 2.962-2.928 3.28l.244 1.24c4.466.414 3.77 2.103-2.102 2.103-5.855 0-6.568-1.69-2.102-2.102l.245-1.22c-.864-.09-1.56-.24-1.95-.41-2.48-1.032-1.54-3.02-.697-3.322 0 0-.883 1.463 1.163 2.31.377.15.978.28 1.67.373l.396-2.14c-.633-.055-1.2-.186-1.48-.3-1.8-.75-1.12-2.344-.502-2.57 0 0-.564.995.956 1.54.28.113.735.207 1.24.263l.378-2.045c-.395-.037-.733-.11-.9-.187-1.053-.43-.678-1.575-.32-1.707 0 0-.283.657.6 1.032.17.057.43.113.75.17l.563-3.022m-12.514 96.264c-.188 2.42-2.196 8.876-2.496 11.202-.115.94 2.85.413 5.44.507 2.31.057 4.597.3 5.18.283 2.176-.097.637-1.26-.13-1.26-.64 0-2.254-1.39-3.66-2.365-1.24-.84-2.31-1.254-2.366-1.65-.094-.6 1.708-6.55 1.708-6.55l-3.678-.17M289.36 68.73c.058 2.12.13 4.185.246 6.305.094 1.314 2.495.526 3.64.17 1.164-.376.657-2.29.507-4.71-.113-2.384-.45-2.515-.45-2.515s.056.47-.057-7.938c-.075-5.705-.657-12.31-1.876-18.277-1.127-5.554-2.12-7.017-5.894-7.655-1.97-.338-3.805-.938-5.925-1.614-.41-.11-.88-.224-1.37-.393-.02-.17-.183-2.663.15-4.126.85-3.53 3.14-6.12 1.9-9.833.54-.132.99-.263 1.29-.394 4.204-1.73 2.59-5.277 1.164-5.78 0 0 1.427 2.85-2.026 4.293-2.214.9-9.72 1.52-12.16-.77-.92-.863-1.2-2.834-.356-4.86 0 0-.75.657-1.163 2.045-1.183 3.85 1.65 5.426 5.16 5.895-.545 1.145-1.26 3.716-1.727 4.673-.486.938-.673 2.89 2.33 1.65-.06.527-.04 2.103 0 2.835.09 1.99-.36 2.44 1.78 2.22.6-.058 1.163-.096 1.24.15.15.486-.15 1.8-.188 2.025-1.855.844-4.56 1.84-6.453 2.158-2.57.434-4.56 1.56-5.33 3.81-3.115 9.028-3.92 19.44-3.94 28.88 0 0-.995.865-1.033 3.266-.038 2.42-.47 4.35.694 4.67 1.164.34 3.604 1.03 3.622-.3.058-2.12.04-4.185 0-6.305 0-1.09-.956-1.182-.956-1.182.038-.263-.037-.49 0-.77.563-5.16 2.346-10.546 3.772-15.48 1.54-5.274 2.702-9.477 2.608-9.76.882 1.84.845 20.04.845 20.04l.02.02c-.054 1.86-.02 4.448-.3 7.6-.335 3.866-3.51 20.004-4.464 28.71-.62 5.76-.884 5.63 4.145 5.5 4.825-.114 14.17-.077 19.76-.17 5.068-.094 5.35-.13 3.77-4.86-.784-2.365-7.09-15.557-8.103-26.01v-.02c-.523-5.533-2.55-22.497 1.166-30.49 1.05 8.82 4.67 17.713 4.88 26.552 0 0-.92-.336-.9.75zm-16.436-48.02c1.782-2.007 4.522-1.275 6.023-.206-.017.358-3.64 2.553-6.02.208zm.825 80.915c.19 2.44 1.894 8.97 2.194 11.316.13.938-2.838.394-5.446.488-2.307.076-4.58.32-5.18.3-2.156-.093-.636-1.256.15-1.256.62 0 2.254-1.407 3.66-2.364 1.24-.844 2.29-1.257 2.366-1.67.075-.6-1.427-6.643-1.427-6.643l3.677-.17m1.916-98.89l-.43 3.058c-.433-.036-.808-.13-1.052-.32-.242-.204-.355-.673-.17-1.2-.372.358-.43 1.428-.053 1.784.26.244.693.357 1.18.413l-.3 2.07c-.562-.056-1.07-.206-1.407-.47-.43-.318-.823-.71-.49-1.594-.82.677-.75 2.104.15 2.648.417.26 1 .414 1.6.47l-.3 2.177c-.863-.09-1.613-.32-2.083-.73-.58-.486-.937-1.406-.486-2.644 0 0-.45.413-.635 1.257-.47 2.065 1.106 2.91 3.057 3.154l-.184 1.256c-4.448.58-3.678 2.25 2.195 1.99 5.856-.245 6.475-1.97 1.99-2.18l-.263-1.2c.845-.15 1.54-.336 1.914-.505 2.42-1.125 1.408-3.077.563-3.34 0 0 .92 1.408-1.09 2.346-.356.17-.94.34-1.633.45l-.484-2.1c.64-.113 1.183-.244 1.464-.375 1.766-.83 1.034-2.405.415-2.59 0 0 .582.973-.9 1.573-.28.112-.73.224-1.24.3l-.45-2.008c.376-.055.714-.15.882-.224 1.033-.486.6-1.612.244-1.725 0 0 .3.658-.543 1.05-.17.058-.43.15-.75.19l-.696-2.965m11.74 98.983c.19 2.44 2.198 8.877 2.498 11.223.113.94-2.852.395-5.46.49-2.29.075-4.58.32-5.16.3-2.178-.094-.64-1.257.13-1.257.638 0 2.252-1.408 3.66-2.365 1.238-.844 2.308-1.257 2.364-1.67.094-.6-1.708-6.53-1.708-6.53l3.678-.188m42.705-31.88c-.412-1.37-1.18-2.045-1.18-2.045.847 2.044.585 3.996-.335 4.86-2.44 2.307-9.945 1.69-12.16.77-3.47-1.428-2.026-4.3-2.026-4.3-1.427.526-3.04 4.054 1.162 5.8.3.13.75.26 1.276.374-1.71 5.18 1.82 6.59 1.82 6.59-8.07 2.76.26 15.97 2.474 20.436.863-4.655 2.233-6.738 3.62-11.11 1.24-3.96 1.54-6.68-1.82-9.007 4.092 2.324 5.424.75 4.917-.284-.504-.995-2.38-5.03-2.906-6.193 3.51-.47 6.325-2.045 5.16-5.892zm-11.97 7.825c1.504-1.05 4.244-1.783 6.027.206-2.382 2.364-6.004.17-6.023-.207zm-5.666 48.676c-.996 10.47-7.32 23.663-8.108 26.027-1.578 4.725-1.296 4.744 3.77 4.84 5.59.11 14.956.054 19.78.185 5.01.112 4.765.262 4.127-5.518-.94-8.707-4.13-24.845-4.467-28.69-.28-3.173-.243-5.744-.3-7.62h.038s-.036-18.22.827-20.06c-.114.356 3.752 10.04 6.36 10.865 2.627.826 5.93-7.694 7.506-13.06 0 0 1.183-.563 1.915-2.853.713-2.31 1.65-4.054.62-4.69-1.033-.64-3.17-1.97-3.566-.715-.64 2.023-1.183 3.994-1.765 6.06-.28 1.05.58 1.405.58 1.405-.094.226-.094.47-.188.73-.45 1.07-.94 2.16-1.297 2.628-3.567 4.598-3.154 4.823-3.154 4.823s-.468-3.117-2.23-8.22c-1.747-5.105-5.538-5.143-5.538-5.143-.375 3.66-2.758 8.444-3.828 11.972-.638 2.14-1.013 5.8-2.27 7.674-.17-2.966-5.93-10.94-6.887-15.22-.45-1.97-.49-4.466-.49-4.466s-6.34.45-7.28 3.605c-2.14 7.092-3.078 16.08-3.17 23.55-.115 8.387-.077 7.917-.077 7.917s-.32.133-.45 2.535c-.13 2.403-.64 4.335.526 4.69 1.143.377 3.545 1.165 3.62-.167.13-2.102.185-4.166.242-6.286.037-1.09-.88-.77-.88-.77.206-8.838 3.83-17.714 4.86-26.533 3.734 7.977 1.71 24.96 1.163 30.495m10.548 29.71c-.205 2.42-1.913 8.97-2.213 11.296-.114.94 2.832.414 5.44.508 2.306.077 4.595.3 5.18.284 2.174-.095.635-1.26-.15-1.26-.62 0-2.255-1.387-3.644-2.363-1.237-.844-2.307-1.257-2.382-1.65-.077-.602 1.424-6.644 1.424-6.644l-3.66-.17m-1.22-96.15l.582 3.02c.41-.037.804-.15 1.03-.356.223-.227.32-.696.11-1.2.394.335.488 1.405.13 1.762-.262.26-.674.393-1.162.47l.394 2.043c.56-.075 1.05-.244 1.385-.507.413-.358.788-.75.43-1.634.845.657.827 2.083-.04 2.664-.41.28-.972.45-1.592.545l.413 2.14c.844-.13 1.594-.374 2.045-.806.545-.51.864-1.467.357-2.668 0 0 .47.373.696 1.22.563 2.042-.975 2.962-2.908 3.28l.224 1.238c4.463.413 3.77 2.102-2.105 2.102-5.856 0-6.55-1.69-2.085-2.103l.227-1.22c-.845-.092-1.558-.242-1.933-.41-2.48-1.033-1.56-3.004-.716-3.323 0 0-.864 1.464 1.18 2.31.357.15.957.28 1.65.374l.414-2.12c-.657-.078-1.2-.21-1.5-.32-1.802-.75-1.127-2.347-.51-2.57 0 0-.56.992.96 1.536.28.113.73.207 1.24.263l.39-2.045c-.413-.037-.73-.11-.9-.17-1.05-.43-.695-1.593-.32-1.725 0 0-.28.658.582 1.015.17.073.45.13.77.185l.543-3.002m-12.49 96.25c-.205 2.44-2.195 8.877-2.495 11.203-.13.94 2.834.413 5.442.507 2.286.074 4.576.3 5.16.28 2.174-.094.654-1.26-.134-1.26-.637 0-2.25-1.386-3.66-2.362-1.237-.84-2.306-1.254-2.363-1.65-.094-.6 1.707-6.55 1.707-6.55l-3.66-.17m1213.796 36.315c-.525 1.145-2.4 5.18-2.908 6.193s.825 2.59 4.915.28c-3.36 2.31-3.058 5.03-1.82 8.99 1.39 4.372 2.76 6.455 3.64 11.108 2.196-4.464 10.546-17.674 2.46-20.414 0 0 3.526-1.425 1.82-6.586.524-.136.975-.267 1.294-.4 4.184-1.725 2.57-5.272 1.144-5.78 0 0 1.45 2.854-2.02 4.28-2.215.92-9.72 1.54-12.16-.75-.9-.864-1.18-2.834-.338-4.88 0 0-.75.676-1.185 2.046-1.163 3.845 1.65 5.44 5.16 5.91zm.79 2.14c1.78-2.01 4.52-1.277 6.022-.207-.02.356-3.623 2.552-6.024.206zm11.745 48.45c1.016 10.47 7.32 23.663 8.11 26.028 1.574 4.726 1.293 4.745-3.774 4.86-5.592.09-14.937.054-19.76.167-5.028.13-4.766.26-4.146-5.5.934-8.725 4.124-24.844 4.462-28.71.28-3.17.24-5.742.3-7.6l-.02-.02s.04-18.2-.846-20.06c.11.358-3.736 10.04-6.36 10.867-2.63.844-5.91-7.694-7.51-13.06 0 0-1.18-.545-1.894-2.853-.714-2.31-1.67-4.053-.64-4.69 1.033-.62 3.17-1.972 3.566-.714.638 2.024 1.2 4.013 1.764 6.06.3 1.05-.58 1.406-.58 1.406.09.242.09.486.205.73.433 1.07.92 2.176 1.277 2.626 3.584 4.6 3.153 4.825 3.153 4.825s.486-3.115 2.232-8.22c1.763-5.104 5.553-5.122 5.553-5.122.36 3.64 2.74 8.447 3.81 11.956.64 2.14 1.015 5.798 2.29 7.694.15-2.966 5.91-10.96 6.887-15.24.45-1.97.47-4.465.47-4.465s6.343.45 7.3 3.602c2.12 7.11 3.06 16.1 3.17 23.55.114 8.406.058 7.937.058 7.937s.32.113.45 2.514c.13 2.42.636 4.333-.51 4.71-1.162.355-3.564 1.143-3.64-.19-.112-2.103-.187-4.167-.243-6.287-.037-1.09.883-.77.883-.77-.187-8.82-3.827-17.714-4.86-26.534-3.715 7.996-1.69 24.96-1.163 30.496m-10.547 29.712c.206 2.42 1.914 8.97 2.214 11.315.11.94-2.838.396-5.446.49-2.307.076-4.596.32-5.18.28-2.175-.09-.636-1.236.15-1.236.62 0 2.254-1.408 3.66-2.365 1.22-.866 2.29-1.26 2.365-1.67.076-.6-1.426-6.645-1.426-6.645l3.66-.17m1.22-96.15l-.58 3.02c-.414-.04-.81-.13-1.034-.357-.226-.21-.32-.68-.113-1.187-.394.32-.488 1.39-.132 1.746.266.283.698.414 1.167.47l-.395 2.046c-.562-.075-1.05-.225-1.39-.507-.41-.36-.786-.75-.41-1.636-.864.656-.845 2.082.02 2.664.41.28.974.45 1.593.543l-.413 2.16c-.844-.13-1.595-.396-2.045-.827-.545-.508-.864-1.446-.358-2.666 0 0-.47.394-.694 1.22-.566 2.045.973 2.965 2.906 3.284l-.225 1.257c-4.466.39-3.77 2.08 2.1 2.08 5.857 0 6.55-1.69 2.085-2.08l-.224-1.22c.844-.114 1.557-.265 1.933-.43 2.495-1.017 1.557-3.006.713-3.306 0 0 .863 1.443-1.182 2.29-.355.15-.955.3-1.65.39l-.413-2.14c.66-.073 1.204-.186 1.505-.317 1.8-.733 1.127-2.347.507-2.553 0 0 .56.995-.96 1.52-.28.113-.73.206-1.236.263l-.376-2.027c.394-.057.713-.113.88-.19 1.05-.43.677-1.594.32-1.706 0 0 .28.657-.58 1.013-.17.056-.433.132-.77.17l-.545-3.003m12.5 96.248c.206 2.44 2.195 8.878 2.495 11.224.132.938-2.833.394-5.44.488-2.29.076-4.58.32-5.162.28-2.177-.09-.657-1.236.132-1.236.638 0 2.25-1.407 3.66-2.364 1.237-.86 2.307-1.255 2.363-1.67.096-.6-1.705-6.53-1.705-6.53l3.66-.186m-83.5-72.506c.206-8.838 3.828-17.714 4.86-26.533 3.734 7.97 1.707 24.952 1.163 30.49-1.01 10.47-7.313 23.66-8.1 26.025-1.557 4.73-1.294 4.748 3.77 4.84 5.594.096 14.96.06 19.78.19 5.01.114 4.767.264 4.13-5.516-.94-8.708-4.13-24.846-4.467-28.69-.285-3.174-.247-5.745-.3-7.62h.034s-.057-18.22.825-20.06c-.095.28 1.09 4.484 2.61 9.76 1.442 4.95 3.225 10.32 3.79 15.5.02.26-.04.484-.02.75 0 0-.94.09-.958 1.18-.02 2.14-.04 4.184 0 6.304.037 1.33 2.457.636 3.64.32 1.163-.32.73-2.27.694-4.675-.056-2.42-1.03-3.286-1.03-3.286-.02-9.42-.846-19.836-3.94-28.88-.77-2.25-2.76-3.378-5.35-3.79-1.877-.32-4.58-1.314-6.436-2.178-.054-.206-.335-1.538-.185-2.026.057-.224.62-.206 1.24-.13 2.12.225 1.69-.244 1.783-2.215.037-.733.055-2.328-.02-2.853 3.003 1.257 2.815-.694 2.346-1.65-.47-.958-1.2-3.53-1.726-4.674 3.51-.47 6.323-2.047 5.16-5.894-.432-1.39-1.182-2.046-1.182-2.046.845 2.048.58 4-.337 4.86-2.44 2.29-9.95 1.69-12.16.77-3.455-1.424-2.03-4.295-2.03-4.295-1.427.504-3.04 4.05 1.16 5.796.3.13.75.263 1.278.375-1.22 3.716 1.07 6.324 1.896 9.85.356 1.447.17 3.94.17 4.11-.49.17-.978.28-1.37.415-2.12.656-3.98 1.257-5.93 1.595-3.773.637-4.768 2.1-5.91 7.655-1.22 5.97-1.785 12.572-1.86 18.296-.113 8.408-.075 7.92-.075 7.92s-.32.13-.45 2.534c-.135 2.4-.64 4.333.522 4.69 1.144.375 3.546 1.163 3.62-.17.13-2.12.188-4.163.245-6.283.037-1.107-.882-.77-.882-.77zm11.315-47.475c1.5-1.05 4.24-1.783 6.02.206-2.383 2.364-6.004.17-6.023-.207zm5.195 81.12c-.206 2.44-1.913 8.99-2.213 11.316-.115.94 2.85.412 5.44.506 2.31.056 4.6.3 5.18.282 2.175-.096.655-1.26-.13-1.26-.64 0-2.255-1.388-3.66-2.364-1.24-.845-2.31-1.257-2.366-1.65-.095-.602 1.425-6.644 1.425-6.644l-3.68-.187m-1.913-98.892l.43 3.06c.412-.02.806-.11 1.05-.32.22-.204.35-.673.163-1.18.375.34.413 1.408.038 1.765-.242.243-.693.374-1.162.412l.28 2.067c.58-.057 1.09-.19 1.428-.45.43-.34.803-.715.484-1.615.825.695.732 2.12-.15 2.665-.413.26-.995.393-1.595.47l.3 2.156c.844-.09 1.614-.3 2.083-.71.563-.49.92-1.426.47-2.646 0 0 .47.394.656 1.24.47 2.08-1.107 2.925-3.06 3.15l.17 1.26c4.448.6 3.68 2.25-2.176 2.006-5.855-.262-6.493-1.97-2.008-2.195l.282-1.2c-.847-.132-1.54-.32-1.916-.51-2.44-1.123-1.425-3.075-.562-3.34 0 0-.94 1.428 1.07 2.348.376.188.957.338 1.65.47l.49-2.12c-.64-.095-1.183-.245-1.483-.377-1.764-.825-1.013-2.402-.394-2.59 0 0-.6.976.9 1.577.282.114.714.226 1.22.32l.47-2.027c-.394-.057-.713-.13-.88-.226-1.03-.47-.62-1.613-.264-1.725 0 0-.3.656.562 1.05.15.075.43.15.75.206l.692-2.983m-11.745 99c-.208 2.42-2.197 8.875-2.497 11.2-.11.94 2.834.414 5.442.508 2.307.056 4.596.3 5.18.28 2.175-.092.636-1.256-.15-1.256-.62 0-2.254-1.388-3.64-2.364-1.24-.844-2.31-1.256-2.386-1.65-.07-.6 1.71-6.55 1.71-6.55l-3.66-.17m-37.546-25.99c-.544 1.148-2.4 5.18-2.908 6.196-.508 1.014.806 2.59 4.915.28-3.36 2.31-3.06 5.03-1.82 8.99 1.37 4.39 2.74 6.456 3.62 11.128 2.194-4.48 10.544-17.69 2.46-20.43 0 0 3.525-1.427 1.82-6.587.54-.13.973-.26 1.29-.374 4.205-1.745 2.59-5.29 1.165-5.798 0 0 1.425 2.85-2.027 4.295-2.214.9-9.72 1.52-12.16-.77-.92-.862-1.2-2.832-.356-4.86 0 0-.75.658-1.162 2.028-1.18 3.868 1.653 5.444 5.16 5.91zm.79 2.14c1.78-2.006 4.52-1.274 6.022-.204-.02.357-3.64 2.553-6.025.207zm11.67 48.47c1.013 10.455 7.32 23.646 8.107 26.01 1.578 4.73 1.315 4.767-3.77 4.86-5.592.095-14.937.057-19.76.17-5.03.13-4.766.26-4.147-5.5.952-8.724 4.142-24.843 4.46-28.71.28-3.17.263-5.74.3-7.6l-.02-.02s.04-18.2-.843-20.06c.133.36-3.733 10.04-6.36 10.868-2.61.844-5.91-7.694-7.487-13.06 0 0-1.2-.545-1.915-2.853-.715-2.31-1.65-4.053-.64-4.673 1.03-.637 3.17-1.99 3.584-.712.62 2.027 1.182 3.997 1.745 6.043.3 1.05-.58 1.408-.58 1.408.09.245.09.49.203.733.45 1.065.92 2.173 1.295 2.623 3.566 4.595 3.134 4.82 3.134 4.82s.49-3.117 2.252-8.22c1.743-5.087 5.534-5.124 5.534-5.124.373 3.64 2.74 8.442 3.81 11.95.654 2.14 1.01 5.797 2.286 7.674.17-2.945 5.91-10.94 6.89-15.2.45-1.99.488-4.465.488-4.465s6.323.43 7.28 3.58c2.12 7.11 3.077 16.1 3.17 23.55.11 8.405.055 7.936.055 7.936s.32.113.45 2.533c.15 2.4.656 4.314-.508 4.69-1.147.356-3.567 1.144-3.64-.17-.115-2.12-.19-4.184-.246-6.304-.02-1.09.9-.75.9-.75-.205-8.84-3.827-17.734-4.877-26.554-3.717 7.995-1.69 24.96-1.146 30.513h-.02m-10.526 29.69c.205 2.42 1.913 8.97 2.213 11.315.114.94-2.85.415-5.46.49-2.29.076-4.58.32-5.16.28-2.176-.09-.656-1.236.13-1.236.64 0 2.253-1.407 3.66-2.364 1.24-.864 2.31-1.258 2.365-1.67.096-.6-1.424-6.643-1.424-6.643l3.68-.17m1.2-96.15l-.56 3.02c-.414-.038-.808-.13-1.03-.357-.228-.21-.34-.68-.13-1.186-.398.32-.47 1.39-.117 1.765.243.26.675.39 1.144.45l-.373 2.06c-.564-.093-1.07-.243-1.39-.525-.415-.34-.79-.75-.434-1.616-.844.64-.825 2.065.038 2.647.414.284.976.45 1.577.546l-.393 2.16c-.846-.13-1.596-.394-2.046-.807-.542-.525-.86-1.463-.354-2.664 0 0-.49.375-.695 1.2-.563 2.046.957 2.966 2.908 3.285l-.244 1.255c-4.465.395-3.752 2.084 2.103 2.084s6.568-1.69 2.102-2.084l-.226-1.22c.847-.112 1.54-.263 1.935-.43 2.478-1.015 1.56-3.004.696-3.304 0 0 .88 1.445-1.165 2.31-.375.15-.957.28-1.67.373l-.394-2.14c.658-.07 1.2-.183 1.483-.314 1.82-.733 1.145-2.346.526-2.553 0 0 .54.996-.98 1.54-.28.094-.73.187-1.237.244l-.376-2.027c.393-.036.73-.11.9-.186 1.05-.432.676-1.596.32-1.727 0 0 .28.678-.6 1.034-.152.075-.433.13-.752.17l-.563-3.003m12.52 96.244c.21 2.44 2.2 8.877 2.5 11.223.113.937-2.834.412-5.442.487-2.308.073-4.58.32-5.18.28-2.176-.094-.637-1.24.15-1.24.62 0 2.234-1.407 3.64-2.364 1.24-.864 2.31-1.258 2.366-1.67.096-.6-1.706-6.53-1.706-6.53l3.68-.19m204.35-74.007c-.545 1.145-2.4 5.18-2.928 6.193-.507 1.014.825 2.59 4.916.28-3.356 2.31-3.04 5.03-1.8 8.99 1.37 4.373 2.74 6.456 3.62 11.11 2.2-4.467 10.55-17.677 2.46-20.417 0 0 3.53-1.407 1.82-6.586.545-.132.977-.263 1.296-.394 4.185-1.728 2.59-5.274 1.145-5.78 0 0 1.444 2.85-2.01 4.296-2.21.9-9.72 1.52-12.16-.77-.918-.862-1.2-2.833-.355-4.86 0 0-.75.657-1.183 2.046-1.16 3.843 1.654 5.42 5.18 5.89zm.77 2.14c1.782-2.008 4.52-1.277 6.023-.207 0 .358-3.62 2.553-6.023.207zm11.746 48.45c1.014 10.47 7.32 23.66 8.107 26.027 1.576 4.727 1.294 4.764-3.77 4.86-5.594.09-14.94.054-19.76.167-5.03.13-4.768.263-4.15-5.498.958-8.71 4.13-24.847 4.467-28.71.28-3.155.245-5.745.3-7.6l-.02-.02s.04-18.2-.842-20.04c.13.354-3.737 10.02-6.364 10.863-2.61.825-5.91-7.713-7.49-13.08 0 0-1.2-.544-1.913-2.85s-1.67-4.055-.635-4.674c1.03-.64 3.17-1.99 3.58-.73.62 2.024 1.182 4.013 1.764 6.06.28 1.05-.6 1.406-.6 1.406.11.245.11.49.203.733.45 1.07.92 2.172 1.296 2.622 3.565 4.617 3.133 4.824 3.133 4.824s.49-3.115 2.252-8.22c1.745-5.103 5.535-5.122 5.535-5.122.378 3.64 2.74 8.443 3.81 11.952.658 2.14 1.015 5.8 2.29 7.694.17-2.967 5.91-10.94 6.888-15.24.45-1.97.487-4.467.487-4.467s6.324.45 7.28 3.603c2.12 7.113 3.08 16.1 3.173 23.55.112 8.408.056 7.94.056 7.94s.32.13.45 2.515c.15 2.42.653 4.336-.51 4.71-1.146.358-3.567 1.146-3.64-.17-.114-2.12-.19-4.182-.246-6.302-.02-1.09.9-.75.9-.75-.21-8.84-3.83-17.736-4.88-26.555-3.717 7.992-1.69 24.956-1.165 30.492m-10.525 29.706c.207 2.42 1.915 8.97 2.196 11.317.133.937-2.832.393-5.44.487-2.308.075-4.578.32-5.16.3-2.177-.094-.657-1.257.13-1.257.62 0 2.253-1.41 3.66-2.365 1.24-.847 2.31-1.26 2.365-1.673.09-.6-1.43-6.64-1.43-6.64l3.68-.17m1.2-96.15l-.562 3.04c-.437-.058-.81-.15-1.037-.377-.244-.21-.34-.677-.132-1.184-.394.32-.47 1.39-.13 1.76.26.264.693.395 1.16.47l-.393 2.046c-.542-.076-1.05-.245-1.386-.527-.395-.357-.77-.75-.414-1.615-.86.64-.824 2.065.04 2.646.41.283.974.45 1.575.545l-.41 2.16c-.824-.13-1.574-.395-2.044-.826-.525-.51-.844-1.446-.356-2.647 0 0-.47.375-.695 1.2-.564 2.065.974 2.966 2.926 3.285l-.244 1.257c-4.47.392-3.774 2.08 2.1 2.08 5.854 0 6.567-1.69 2.1-2.082l-.243-1.22c.865-.115 1.56-.265 1.95-.416 2.48-1.03 1.54-3.02.697-3.32 0 0 .882 1.443-1.163 2.29-.377.17-.977.3-1.67.39l-.395-2.14c.638-.073 1.2-.185 1.48-.3 1.804-.75 1.128-2.362.51-2.57 0 0 .562.996-.958 1.54-.28.094-.73.188-1.24.244l-.375-2.028c.394-.057.713-.113.9-.188 1.05-.433.676-1.596.32-1.71 0 0 .262.658-.6 1.014-.17.074-.43.13-.75.17l-.564-3.004m12.52 96.25c.19 2.44 2.194 8.875 2.495 11.22.113.94-2.852.395-5.46.49-2.29.074-4.58.32-5.16.3-2.177-.095-.64-1.258.13-1.258.64 0 2.253-1.407 3.66-2.364 1.24-.846 2.308-1.26 2.365-1.672.094-.6-1.707-6.53-1.707-6.53l3.678-.187m-28.46-164.22c.19-8.84 3.81-17.734 4.863-26.535 3.714 7.976 1.687 24.94 1.162 30.495-1.013 10.45-7.32 23.64-8.106 26.003-1.58 4.73-1.3 4.766 3.77 4.86 5.59.094 14.936.056 19.76.17 5.03.13 4.765.262 4.146-5.5-.94-8.706-4.13-24.844-4.467-28.71-.28-3.152-.246-5.742-.3-7.6h.02s-.04-18.22.84-20.06c-.092.282 1.07 4.485 2.61 9.758 1.427 4.94 3.21 10.32 3.773 15.5.037.266-.02.49 0 .75 0 0-.938.098-.957 1.186-.02 2.12-.037 4.185 0 6.305.02 1.333 2.46.64 3.62.3 1.166-.32.734-2.25.697-4.652-.038-2.42-1.014-3.284-1.014-3.284-.04-9.44-.847-19.854-3.94-28.88-.77-2.25-2.78-3.377-5.35-3.81-1.897-.318-4.6-1.312-6.456-2.157-.037-.226-.32-1.54-.187-2.027.073-.23.636-.21 1.255-.15 2.12.222 1.67-.23 1.765-2.2.036-.73.054-2.326 0-2.85 3 1.257 2.813-.713 2.344-1.65-.47-.958-1.2-3.53-1.728-4.67 3.49-.47 6.324-2.048 5.142-5.89-.415-1.39-1.165-2.05-1.165-2.05.843 2.027.56 3.997-.358 4.86-2.44 2.29-9.946 1.67-12.14.77-3.473-1.445-2.03-4.298-2.03-4.298-1.443.508-3.04 4.055 1.146 5.78.32.15.75.264 1.296.395-1.24 3.715 1.05 6.323 1.895 9.832.34 1.46.17 3.96.15 4.124-.487.17-.956.282-1.35.413-2.12.66-3.98 1.26-5.95 1.597-3.77.638-4.765 2.102-5.89 7.656-1.22 5.97-1.802 12.574-1.877 18.278-.115 8.407-.058 7.94-.058 7.94s-.32.13-.45 2.53c-.15 2.403-.64 4.317.504 4.693 1.143.357 3.563 1.145 3.64-.17.11-2.12.186-4.183.242-6.303.02-1.09-.883-.75-.883-.75zm11.3-47.476c1.52-1.07 4.26-1.803 6.022.205-2.38 2.364-6 .15-6.02-.206zm5.216 81.12c-.207 2.44-1.914 8.97-2.215 11.315-.11.94 2.835.413 5.443.49 2.308.073 4.598.32 5.18.3 2.176-.096.637-1.26-.15-1.26-.62 0-2.253-1.384-3.64-2.36-1.24-.844-2.31-1.26-2.384-1.67-.076-.6 1.425-6.642 1.425-6.642l-3.66-.17m-1.932-98.895l.43 3.06c.433-.02.827-.116 1.052-.32.243-.21.356-.678.17-1.184.392.34.43 1.41.054 1.766-.264.242-.696.355-1.165.41l.28 2.064c.563-.056 1.07-.206 1.43-.47.41-.32.804-.712.485-1.594.825.677.73 2.1-.15 2.647-.43.282-.995.413-1.614.47l.32 2.176c.843-.094 1.594-.32 2.08-.713.564-.486.92-1.424.47-2.644 0 0 .45.395.64 1.24.468 2.064-1.09 2.908-3.04 3.15l.168 1.26c4.446.6 3.677 2.25-2.197 2.007-5.855-.262-6.474-1.97-1.99-2.195l.28-1.2c-.842-.15-1.536-.32-1.912-.507-2.44-1.123-1.426-3.074-.58-3.34 0 0-.92 1.41 1.087 2.35.357.167.94.336 1.65.45l.49-2.103c-.657-.11-1.2-.242-1.483-.373-1.76-.826-1.01-2.4-.39-2.59 0 0-.6.976.9 1.577.262.11.713.224 1.22.3l.47-2.01c-.396-.055-.733-.15-.9-.224-1.034-.49-.603-1.614-.246-1.727 0 0-.3.654.545 1.05.17.073.45.15.75.186l.696-2.966m-11.747 98.987c-.19 2.44-2.178 8.875-2.478 11.22-.13.94 2.83.414 5.44.49 2.29.074 4.577.32 5.16.3 2.176-.095.656-1.258-.13-1.258-.64 0-2.254-1.385-3.66-2.36-1.24-.845-2.31-1.26-2.366-1.67-.093-.6 1.71-6.53 1.71-6.53l-3.68-.17v-.02m-49.65-27.62c-.543 1.142-2.4 5.18-2.907 6.19-.508 1.013.805 2.61 4.915.282-3.36 2.306-3.06 5.045-1.82 9.005 1.37 4.37 2.753 6.432 3.62 11.105 2.192-4.466 10.542-17.696 2.46-20.435 0 0 3.522-1.407 1.82-6.586.54-.116.97-.25 1.29-.38 4.203-1.745 2.59-5.29 1.163-5.8 0 0 1.427 2.87-2.026 4.3-2.214.92-9.72 1.52-12.16-.77-.92-.864-1.2-2.815-.356-4.86 0 0-.75.656-1.162 2.045-1.18 3.846 1.65 5.423 5.16 5.892zm.79 2.14c1.782-1.99 4.522-1.28 6.023-.21-.02.36-3.64 2.57-6.025.21zm11.67 48.47c1.014 10.47 7.32 23.64 8.107 26.005 1.578 4.748 1.315 4.767-3.77 4.86-5.592.094-14.937.057-19.76.188-5.03.116-4.766.247-4.147-5.514.957-8.707 4.147-24.845 4.466-28.69.28-3.17.262-5.76.3-7.62h-.02s.038-18.22-.844-20.06c.132.357-3.734 10.04-6.36 10.865-2.61.83-5.912-7.69-7.488-13.06 0 0-1.2-.56-1.914-2.87-.713-2.29-1.652-4.033-.638-4.67 1.032-.64 3.17-1.99 3.584-.714.615 2.028 1.18 3.998 1.76 6.043.28 1.07-.6 1.407-.6 1.407.093.244.093.488.206.73.45 1.09.918 2.178 1.293 2.647 3.566 4.6 3.134 4.825 3.134 4.825s.488-3.135 2.252-8.22c1.744-5.104 5.535-5.14 5.535-5.14.377 3.657 2.74 8.443 3.81 11.97.658 2.14 1.014 5.8 2.29 7.675.17-2.964 5.91-10.94 6.887-15.22.45-1.97.49-4.463.49-4.463s6.327.43 7.28 3.583c2.12 7.11 3.08 16.1 3.17 23.57.118 8.385.06 7.916.06 7.916s.32.13.47 2.535c.13 2.406.638 4.34-.525 4.695-1.144.356-3.546 1.163-3.64-.17-.112-2.12-.187-4.166-.243-6.305-.02-1.086.9-.75.9-.75-.207-8.84-3.83-17.73-4.86-26.532-3.735 7.974-1.708 24.956-1.164 30.492h-.02m-10.526 29.68c.207 2.44 1.915 8.97 2.215 11.315.114.934-2.85.41-5.44.483-2.31.075-4.598.32-5.18.3-2.177-.094-.657-1.258.132-1.258.638 0 2.25-1.39 3.66-2.364 1.237-.84 2.307-1.254 2.363-1.65.094-.62-1.407-6.64-1.407-6.64l3.66-.19m1.197-96.15l-.565 3.04c-.413-.036-.807-.15-1.032-.374-.225-.206-.338-.676-.132-1.182-.37.32-.462 1.388-.11 1.764.25.262.68.394 1.15.47l-.377 2.044c-.56-.073-1.07-.242-1.39-.523-.41-.34-.79-.733-.43-1.615-.842.638-.824 2.064.04 2.665.41.28.975.43 1.576.525l-.395 2.158c-.846-.13-1.596-.37-2.047-.803-.543-.507-.862-1.464-.355-2.665 0 0-.487.376-.693 1.2-.563 2.066.957 2.966 2.908 3.304l-.242 1.24c-4.446.41-3.752 2.1 2.103 2.1 5.87 0 6.564-1.69 2.1-2.1l-.228-1.22c.845-.094 1.558-.263 1.933-.413 2.48-1.034 1.56-3.023.695-3.323 0 0 .884 1.463-1.16 2.308-.376.15-.958.28-1.67.375l-.395-2.138c.658-.074 1.2-.187 1.483-.3 1.82-.75 1.145-2.345.526-2.57 0 0 .542.994-.978 1.538-.264.09-.733.184-1.24.26l-.375-2.046c.394-.04.73-.114.9-.19 1.05-.43.676-1.576.32-1.71 0 0 .28.66-.582 1.016-.17.077-.45.13-.77.17l-.56-3.002m12.516 96.268c.206 2.42 2.196 8.857 2.496 11.203.112.93-2.834.41-5.44.48-2.31.077-4.58.32-5.18.3-2.178-.09-.64-1.256.15-1.256.62 0 2.25-1.39 3.64-2.365 1.24-.845 2.31-1.258 2.364-1.65.094-.62-1.69-6.55-1.69-6.55l3.66-.17m-931.72 62.914l.056-.02c.206-.018.45-.055.713-.074.24-.018.54-.018.9-.036 1.67-.02 4.2.112 6.81.45h.02c5.59.732 13.11 2.29 22.91 4.316 1.67.34 3.43.695 5.23 1.07h.02c2.458.507 5.63 1.11 9.458 1.764 3.888.676 8.335 1.39 13.27 2.158 25.708 3.98 66.184 9.16 111.633 12.8h.15c9.515.77 19.198 1.444 28.974 2.007 9.832.58 19.76 1.09 29.65 1.462 14.635.582 52.484 2.478 96.563.977 38.92-1.33 84.235-.9 127.695-3.36 20.98-1.18 42.24-.56 61.474-1.52 53.2-2.663 95.44-6.247 108.14-7.655l.15 1.39c-12.61 1.39-55.282 4.86-108.237 7.525-19.16.958-39.65.32-60.573 1.52-40.42 2.346-82.51 2.12-119.59 3.454-49.032 1.745-89.864-.3-105.683-.92-9.946-.394-19.872-.882-29.668-1.464-9.85-.58-19.555-1.258-29.01-2.008l-.15-.02c-45.45-3.64-85.965-8.82-111.73-12.795-5.082-.788-9.53-1.52-13.283-2.177-3.81-.654-7-1.236-9.516-1.762-1.82-.376-3.565-.732-5.254-1.07-9.775-2.027-17.26-3.566-22.817-4.297-2.555-.337-5.01-.45-6.627-.43-.3 0-.58.02-.845.04-.225 0-.43.035-.563.035l-.053.02-.227-1.37m2.515 17.803h.02c.15-.02.356-.04.62-.096.243-.02.506-.06.825-.096 1.556-.15 3.96-.262 6.867-.037h.018c.96.075 2.01.187 3.118.3 1.07.113 2.234.263 3.454.43 6.21.826 13.867 2.196 22.274 3.92h.02c4.877.997 13.02 2.31 23.68 3.77 10.66 1.47 23.85 3.12 38.805 4.79 33.756 3.77 125.705 10.51 223.864 10.49 125.14-.038 260.38-7.92 298.04-12.855l.187 1.37c-39.745 5.236-187.05 13.493-317.466 13.193-90.54-.19-173.294-7.3-204.8-10.81-14.94-1.67-28.13-3.32-38.825-4.786-10.68-1.48-18.86-2.795-23.777-3.79h-.02c-8.37-1.707-15.988-3.077-22.18-3.92-1.164-.15-2.31-.3-3.416-.414-1.07-.115-2.102-.21-3.06-.3h-.036c-2.814-.21-5.122-.115-6.623.054-.282.02-.544.057-.77.076-.187.04-.394.058-.562.096h-.02l-.243-1.39m46-12.645l5.966 1.013-7.315 20.79-5.966-.994 7.32-20.81m12.888 2.327l5.988.995-7.334 20.81-5.968-1.015 7.316-20.792m13.115 2.308l5.984 1.017-7.337 20.81-5.963-1.013 7.32-20.81m13.17 1.614l5.97.995-7.32 20.81-5.967-1.014 7.318-20.792m12.557 1.99l6.02.733-6.38 21.11-6.004-.73 6.364-21.11m12.74 1.294l6.025.733-6.38 21.11-6.027-.73 6.38-21.112m13.886 1.28l6.044.47-5.444 21.373-6.044-.47 5.442-21.37m14.264 1.2l6.04.45-5.422 21.374-6.06-.454 5.44-21.374m14.378 1.183l6.04.47-5.42 21.372-6.04-.47 5.423-21.374m13.877 1.198l6.042.47-.9 9.532-1.036-2.46-.564 1.126-.9-.976-.28 2.364-.846-1.67-.826-1.576-1.596 2.74.9-9.553zm3.246 13.792l-2.628 8.05-6.044-.47 3.004-8.858 1.595 1.953 1.2-.882.505-1.763.43 2.72 1.428-2.327.506 1.576zM699.73 282.88l5.966 1.013-7.318 20.792-5.968-.995 7.32-20.81m-14.658-2.344l5.987.995-7.34 20.81-5.97-1.01 7.32-20.79m163.143 20.138l6.042.414-5.274 21.41-6.04-.412 5.276-21.41m14.373 1.07l6.043.43-5.273 21.412-6.04-.43 5.27-21.414m13.943 1.107l6.043.413-5.273 21.41-6.045-.412 5.272-21.41m13.492.9l6.06.28-4.728 21.526-6.06-.263 4.728-21.543m15.425.283l6.06.28-4.747 21.543-6.04-.28 4.73-21.54m14.035.3l6.06.28-4.728 21.525-6.06-.262 4.727-21.542m14.223.055l6.06.076-.468 9.93-1.09-.94-1.22 1.05-.73-1.555-.92.884-.81-1.597-1.28 2.046.45-9.89zm5.198 12.78l-3.247 8.97-6.06-.094 3.247-8.95.375.978.934-.28 1.2-.77.17 1.088.826.544 1.183-.62 1.37-.864zm7.92-12.93l6.06.094-4.11 21.67-6.06-.114 4.11-21.654m-342.143-18.8c.075.957.075 2.796.488 4.86.657 3.434 1.84 7.487 2.027 9.007.13.99-2.965.43-5.686.503-2.38.094-4.78.338-5.38.32-2.27-.095-.675-1.315.15-1.315.657 0 2.346-1.462 3.81-2.457 1.29-.9 2.4-1.313 2.458-1.745.056-.283-.544-2.29-.938-4.32-.47-2.306-.75-4.67-.75-4.67l3.825-.187m14.427 5.22c.077.79-.185 2.16.19 3.715.846 3.453 3.08 7.938 3.286 9.608.13.978-3.397.43-6.117.51-2.402.074-4.786.336-5.386.32-2.27-.115-.67-1.316.136-1.316.676 0 2.365-1.464 3.83-2.477 1.275-.88 2.4-1.295 2.46-1.726.054-.336-.9-2.7-1.504-4.84-.525-1.876-.713-3.603-.713-3.603l3.827-.185m-5.034-89.45s1.483 2.98-2.12 4.484c-2.308.956-10.133 1.594-12.685-.808-.96-.9-1.24-2.946-.36-5.067 0 0-.78.694-1.23 2.12-1.22 4.015 1.726 5.667 5.404 6.155-.563 1.2-2.514 5.404-3.04 6.474-.544 1.05.845 2.7 5.123.28-3.51 2.42-3.19 5.252-1.894 9.38 1.426 4.58 2.87 6.738 3.77 11.598 2.31-4.653 11.017-18.446 2.57-21.317 0 0 3.7-1.46 1.916-6.863.544-.13 1.013-.264 1.332-.396 4.39-1.82 2.7-5.515 1.22-6.04zm-10.19 9.12c1.86-2.084 4.73-1.334 6.287-.21-.02.378-3.79 2.667-6.284.21zm12.203 50.53c.805 8.35 7.41 22.725 8.24 25.183 1.65 4.954 1.37 4.973-3.926 5.067-5.836.11-15.594.07-20.623.18-5.232.134-4.97.265-4.312-5.74.97-9.08 4.52-23.962 4.872-27.977.28-3.303.243-6.005.3-7.938l-.02-.02s.037-18.99-.882-20.922c.13.376-3.903 10.47-6.624 11.334-2.74.863-6.193-8.03-7.825-13.624 0 0-1.256-.582-1.99-2.984-.75-2.406-1.743-4.226-.655-4.88 1.07-.66 3.302-2.067 3.715-.75.656 2.12 1.238 4.18 1.838 6.32.3 1.09-.62 1.465-.62 1.465.114.244.114.507.226.77.45 1.107.956 2.27 1.332 2.74 3.734 4.803 3.284 5.03 3.284 5.03s.503-3.267 2.342-8.577c1.82-5.31 5.78-5.348 5.78-5.348.375 3.81 2.852 8.8 3.98 12.48.674 2.214 1.05 6.04 2.38 8.01.17-3.094 6.155-11.407 7.168-15.873.47-2.066.51-4.674.51-4.674s6.603.47 7.6 3.752c2.212 7.412 3.21 16.794 3.32 24.582.112 8.762.056 8.274.056 8.274s.337.13.47 2.627c.15 2.517.674 4.525-.527 4.9-1.2.375-3.72 1.2-3.79-.19-.13-2.193-.21-4.333-.267-6.566-.038-1.127.938-.79.938-.79-.223-9.213-3.995-18.483-5.083-27.678-3.886 8.33-2.03 23.453-1.22 31.804m-9.7-69.313l-.6 3.15c-.434-.035-.847-.15-1.07-.373-.246-.21-.36-.716-.134-1.24-.412.336-.505 1.443-.13 1.84.263.28.713.41 1.2.485l-.393 2.14c-.58-.092-1.105-.26-1.462-.543-.412-.375-.806-.788-.43-1.69-.882.677-.864 2.16.037 2.78.432.28 1.013.45 1.65.562l-.41 2.25c-.883-.15-1.67-.41-2.14-.86-.582-.526-.9-1.52-.376-2.778 0 0-.507.412-.73 1.256-.58 2.16 1.012 3.1 3.04 3.437l-.246 1.314c-4.652.414-3.92 2.177 2.197 2.177s6.83-1.763 2.177-2.195l-.225-1.253c.886-.115 1.618-.284 2.01-.434 2.59-1.088 1.616-3.152.73-3.47 0 0 .92 1.52-1.22 2.4-.37.17-1.01.3-1.722.395l-.412-2.215c.676-.074 1.24-.205 1.54-.336 1.875-.77 1.18-2.44.543-2.666 0-.02.584 1.033-1.01 1.596-.28.112-.75.205-1.295.28l-.395-2.14c.415-.036.75-.11.94-.186 1.11-.45.715-1.65.34-1.782 0 0 .28.695-.62 1.07-.17.057-.47.13-.79.17l-.58-3.134m-27.774 28.41c.093 0 28.185-1.82 51.284-7.378 4.147-.995 7.56-2.027 10.265-2.853.62-.207 1.05-.3 1.595-.488-.17-1.05.636-1.278 1.61-.565.9-.376 1.56-.81 2.366-1.577 1.614-1.557 2.74-3.06 4.147-7.186-.3 3.174-1.22 5.745-2.927 7.62-.9.996-1.764 1.784-3.397 2.385.49 1.63 1.48 4.634 2.08 8.76.6.32 2.91 1.916 4.784 3.85.584-.19 1.203-.28 1.785-.32.6-.037 1.2 0 1.8.113 2.965.544 5.46 2.984 6.85 5.742l-.45.206c-1.22-2.44-4.054-4.22-6.625-4.69-.506-.093-.994-.112-1.5-.093-.3.02-.62.058-.92.114.394.524.73 1.09.976 1.67l.02.02c.3.69.675 1.65 1.088 2.662 1.35 3.396 2.832 7.712 4.446 8.8l-.41.6c-1.933-1.313-3.81-5.366-5.236-8.93-.355-.92-.712-1.803-1.07-2.628v-.02c-1.05-2.42-3.92-4.354-5.404-5.218.28 2.29.43 4.766.376 7.32.975.335 3.02 1.386 3.527 4.407.224 1.37.13 2.61.055 3.85-.15 2.006-.51 3.94.822 6.416l-.356.45c-2.61-3.96-1.483-6.55-1.802-10.51-.32-2.01-1.5-2.89-2.31-3.246-.038.845-.113 1.708-.226 2.59-1.764-.225-3.64.58-3.415 3.096.112 1.2.337 2.29.562 3.32.485 2.403 1.18 4.523-.45 7.6l-.435-.487c.842-2.667.092-4.618-.377-6.85-.227-1.07-.45-2.197-.564-3.454-.355-3.903 2.57-4.43 3.53-4.485.188-2.024.188-4.05.113-5.983-.864-.04-4.13.072-6.494 3.75-2.798 4.372-1.747 9.14-1.747 9.14l-.45.3s-2.004-5.256 1.11-10.116c2.59-4.032 6.23-4.37 7.507-4.35-.413-5.874-1.764-10.846-2.4-12.967-24.06 8.33-63.56 10.883-63.67 10.883l-.076-1.273m382.52 84.944l6.062.097-4.11 21.676-6.06-.096 4.11-21.673m14.32 0l6.06.096-4.11 21.672-6.06-.1 4.11-21.674m14.317 0l6.06.096-4.11 21.674-6.06-.096 4.11-21.675m14.993-1.35l6.06.093-4.11 21.653-6.06-.098 4.11-21.655m13.325-.693l6.06.093-4.11 21.674-6.06-.093 4.11-21.676m-381.86-66.79c1.2.902 2.027 2.647 2.027 4.674 0 2.007-.825 3.753-2.026 4.653-1.2-.9-2.007-2.645-2.007-4.652 0-2.027.805-3.772 2.006-4.673m6.753 7.79c.884 1.22 1.147 3.138.547 5.05-.6 1.935-1.914 3.36-3.303 3.85-.882-1.2-1.145-3.116-.544-5.03.6-1.933 1.89-3.36 3.3-3.847v-.02m6.53-2.91c1.48-.02 3.21.884 4.41 2.48 1.24 1.613 1.63 3.51 1.22 4.934-1.485.02-3.19-.882-4.41-2.496-1.22-1.593-1.635-3.49-1.22-4.914m6.584-5.082c1.464-.263 3.303.356 4.748 1.764 1.463 1.385 2.158 3.19 1.97 4.67-1.464.243-3.284-.376-4.748-1.784-1.463-1.39-2.158-3.19-1.97-4.654m3.565-9.4c1.462.282 2.963 1.52 3.83 3.34.863 1.82.88 3.753.19 5.067-1.467-.28-2.95-1.52-3.81-3.34-.88-1.82-.9-3.754-.21-5.07m-533.9-128.93c-.413-1.39-1.164-2.046-1.164-2.046.84 2.028.56 3.998-.36 4.86-2.44 2.29-9.947 1.67-12.16.77-3.454-1.444-2.027-4.296-2.027-4.296-1.427.505-3.04 4.05 1.163 5.797.3.114.75.245 1.275.376-1.707 5.16 1.82 6.58 1.82 6.58-8.07 2.74.283 15.95 2.478 20.436.88-4.67 2.232-6.738 3.62-11.13 1.24-3.96 1.54-6.68-1.82-9.01 4.11 2.33 5.424.75 4.917-.26-.506-1.013-2.382-5.047-2.907-6.192 3.51-.467 6.343-2.062 5.16-5.89zm-11.965 7.83c1.506-1.07 4.246-1.803 6.03.205-2.385 2.365-6.006.15-6.025-.206zm-4.39 35.765s.15 2.477-1.274 12.91c-1.426 10.415-7.32 23.644-8.107 26.01-1.58 4.727-1.297 4.765 3.77 4.86 5.59.093 14.933.055 19.774.168 5.01.13 4.748.264 4.13-5.496-.94-8.726-4.13-24.845-4.467-28.71-.47-5.368-.04-9.027-.66-10.434.036 0-2.347.186-3.604-.583-3.06.732-8.426 1.126-9.59 1.276h.02m-.335-7.825c.75-4.033-.45-7.973-2.1-9.756 0 0-1.09 9.14-2.028 10.884 0 0 5.703.53 8.22.68 2.287.15 3.826.04 6.153-.15 0 0-.434-.28.654-.374 2.12-.168 4.166-.318 6.287-.43 1.337-.057.79 2.42.568 3.602-.245 1.182-2.216.882-4.617 1.014-2.4.13-2.57-.19-2.57-.19s.49 0-7.88.79-12.33-.32-12.48-1.896c-.17-1.573 2.064-15.722 3-18.875.958-3.154 7.3-3.586 7.3-3.586s.038 2.478.47 4.467c1.126 4.955 4.428 8.69 4.99 14.11-.712 0-1.387 0-1.99-.035-3.432-.19-3.976-.245-3.976-.245zm13.96-18.256s3.79.037 5.555 5.122c1.744 5.1 2.232 8.22 2.232 8.22s-.43-.21 3.155-4.83c.356-.45.844-1.557 1.275-2.626.113-.246.113-.49.207-.734 0 0-.884-.356-.584-1.406.563-2.046 1.126-4.016 1.764-6.043.394-1.275 2.533.076 3.565.714s.074 2.384-.64 4.674c-.713 2.31-1.895 2.87-1.895 2.87-1.575 5.37-4.88 13.89-7.505 13.045-2.63-.827-6.476-10.51-6.36-10.866-.885 1.857-1.11 9.83-1.11 9.83s-2.384.284-5.03.45c.187-3.02.863-5.026 1.67-7.71 1.05-3.526 3.32-7.073 3.696-10.713zm-4.35 68.68c-.21 2.42-1.916 8.97-2.217 11.315-.112.937 2.834.412 5.442.487 2.308.075 4.58.32 5.18.28 2.157-.074.637-1.237-.15-1.237-.62 0-2.252-1.41-3.64-2.366-1.24-.86-2.31-1.254-2.365-1.67-.093-.6 1.408-6.64 1.408-6.64l-3.66-.17m-1.22-96.15l.56 3.02c.433-.037.808-.13 1.033-.356.246-.21.34-.68.13-1.188.397.32.49 1.39.135 1.762-.262.262-.694.393-1.163.45l.395 2.063c.563-.09 1.05-.24 1.39-.523.412-.34.787-.75.412-1.615.86.64.822 2.066-.04 2.648-.395.284-.958.45-1.577.546l.413 2.157c.84-.13 1.573-.392 2.042-.805.543-.525.862-1.463.356-2.664 0 0 .47.375.696 1.2.564 2.046-.975 2.966-2.91 3.285l.228 1.257c4.468.395 3.77 2.084-2.1 2.084-5.855 0-6.55-1.69-2.083-2.08l.224-1.22c-.844-.11-1.557-.263-1.933-.43-2.495-1.015-1.56-3.004-.713-3.304 0 0-.862 1.446 1.184 2.31.356.15.957.28 1.65.374l.414-2.14c-.657-.073-1.2-.186-1.5-.317-1.803-.732-1.127-2.346-.508-2.552 0 0-.564.997.956 1.54.28.095.73.188 1.24.245l.375-2.027c-.377-.037-.714-.11-.9-.188-1.053-.43-.678-1.595-.32-1.726 0 0-.264.675.6 1.03.17.074.45.13.77.17l.543-3.004m-12.49 96.246c-.21 2.44-2.197 8.876-2.497 11.222-.133.938 2.832.413 5.44.488 2.305.075 4.575.32 5.16.28 2.174-.093.654-1.237-.134-1.237-.62 0-2.255-1.408-3.66-2.365-1.24-.862-2.29-1.256-2.367-1.67-.093-.6 1.71-6.53 1.71-6.53l-3.66-.17v-.017m927.084 120.114l6.06.094-4.07 21.67-6.062-.093 4.073-21.675m14.26-.015l6.08.075-4.09 21.673-6.06-.074 4.07-21.672m14.336-.02l6.06.095-4.09 21.67-6.06-.094 4.09-21.67m15.03-1.39l6.06.092-4.07 21.674-6.06-.093 4.07-21.675m13.288-.698l6.06.075-4.09 21.673-6.06-.074 4.09-21.676m15.293-.26l6.08.073-4.09 21.675-6.062-.074 4.077-21.674m14.335-.02l6.06.075-4.09 21.674-6.06-.075 4.09-21.675m14.32-.016l6.06.073-4.07 21.672-6.064-.076 4.073-21.673m14.973-1.39l6.063.077-4.07 21.676-6.06-.074 4.07-21.673m13.342-.72l6.06.094-4.07 21.672-6.08-.095 4.09-21.672m15.8-.224l6.06-.058-3.62 21.766-6.06.035 3.62-21.75-54.272 10.41m69.588-10.99l6.06-.054-3.62 21.766-6.063.04 3.622-21.75m14.316-.34l6.06-.036-3.6 21.75-6.077.04 3.62-21.75m14.26-.32l6.08-.04-3.62 21.75-6.06.038 3.6-21.75m14.994-1.705l6.06-.036-3.62 21.75-6.062.036 3.623-21.75m13.268-.975l6.06-.055-3.602 21.766-6.06.04 3.603-21.75m12.29-1.07l6.08-.038-3.62 21.744-6.06.038 3.6-21.75m13.285-.972l6.063-.054-3.6 21.767-6.08.037 3.62-21.75" fill="#141311"/></g></svg>