<svg width="1920" height="433" viewBox="0 0 1920 433" xmlns="http://www.w3.org/2000/svg" class="svg-test"><g fill="none" fill-rule="evenodd"><path d="M267.765 1976.932c-99.904 41.94-204.22 62.938-312.962 62.938-204.538 0-365.278-51.097-482.315-153.385-117.02-102.232-175.547-247.342-175.547-435.31 0-219.89 82.46-391.89 247.36-516.002 164.91-124.13 399.25-186.187 703.07-186.187 52.02 0 113.49 8.876 184.42 26.59 0-223.416-141.28-335.124-423.782-335.124-166.69 0-306.188 27.772-418.477 83.335l-95.76-344C-353.73 106.51-172.29 69.86 38.14 69.86c289.62 0 501.813 65.904 636.583 197.71 134.756 131.805 202.14 381.53 202.14 749.174v406.076c0 252.97 50.817 411.986 152.505 476.97-36.647 63.838-77.442 103.17-122.347 117.937-44.942 14.768-96.358 22.143-154.266 22.143-63.84 0-121.202-23.644-172-70.913-50.852-47.288-85.117-98.704-102.85-154.286-40.194 66.24-110.244 120.31-210.13 162.268zm167.57-866.212c-75.66-15.35-132.404-23.044-170.234-23.044-349.922 0-524.85 114.655-524.85 344 0 170.218 98.686 255.336 296.13 255.336 265.975 0 398.96-132.987 398.96-398.963v-177.33zM2376.76 566.626c-104.032-98.104-243.55-147.174-418.476-147.174-167.853 0-300.56 55.844-398.08 167.57-97.522 111.71-146.292 266.277-146.292 463.704 0 398.38 189.733 597.553 569.198 597.553 164.287 0 309.133-54.37 434.446-163.13l163.124 349.31c-128.86 80.41-241.45 131.205-337.807 152.503-96.358 21.28-210.11 31.9-341.335 31.9-293.202 0-524.593-85.38-694.21-256.218-169.635-170.82-254.433-408.12-254.433-711.927 0-299.077 92.774-540.846 278.397-725.25 185.548-184.42 438.555-276.614 758.91-276.614 221.033 0 413.168 62.056 576.29 186.187l-189.73 331.58z" fill="#8A6D51"/><path d="M174.337 10.806c-.413-1.39-1.164-2.046-1.164-2.046.845 2.027.563 3.997-.356 4.86-2.44 2.29-9.946 1.67-12.16.77-3.453-1.445-2.008-4.297-2.008-4.297-1.45.506-3.06 4.053 1.14 5.798.3.12.75.25 1.293.38-1.71 5.18 1.8 6.59 1.8 6.59-8.07 2.74.28 15.95 2.477 20.434.883-4.673 2.253-6.737 3.623-11.13 1.237-3.96 1.537-6.68-1.803-8.986 4.09 2.308 5.405.732 4.9-.282-.507-1.01-2.383-5.045-2.91-6.19 3.51-.47 6.344-2.046 5.162-5.892zm-11.972 7.825c1.5-1.07 4.24-1.8 6.023.21-2.383 2.367-6.005.15-6.023-.203zm-4.41 35.77s.17 2.478-1.257 12.91c-1.427 10.416-7.32 23.645-8.107 26.01-1.57 4.73-1.29 4.766 3.78 4.86 5.59.093 14.954.056 19.777.17 5.01.13 4.767.26 4.13-5.5-.94-8.707-4.13-24.845-4.467-28.69-.47-5.368-.038-9.046-.657-10.454.037 0-2.346.207-3.603-.58-3.06.73-8.408 1.125-9.59 1.275m-.324-7.827c.75-4.035-.47-7.975-2.102-9.758 0 0-1.088 9.14-2.045 10.884 0 0 5.72.524 8.23.674 2.29.15 3.83.038 6.155-.15 0 0-.45-.28.657-.375 2.102-.17 4.166-.32 6.286-.433 1.314-.056.79 2.42.545 3.603-.246 1.18-2.198.88-4.6 1.01-2.42.13-2.57-.19-2.57-.19s.47 0-7.9.79c-8.35.79-12.31-.32-12.46-1.896-.17-1.577 2.064-15.707 3.002-18.878.957-3.154 7.28-3.585 7.28-3.585s.038 2.48.49 4.468c1.124 4.953 4.408 8.69 4.99 14.11-.713 0-1.39 0-1.99-.037-3.452-.186-3.977-.242-3.977-.242zm13.96-18.26s3.79.04 5.537 5.124c1.763 5.104 2.25 8.22 2.25 8.22s-.43-.207 3.135-4.823c.357-.45.845-1.558 1.295-2.627.112-.244.112-.488.206-.732 0 0-.89-.357-.6-1.408.58-2.045 1.14-4.015 1.76-6.042.41-1.276 2.55.075 3.58.713s.076 2.383-.637 4.673c-.714 2.31-1.915 2.87-1.915 2.87-1.576 5.368-4.88 13.888-7.487 13.06-2.627-.842-6.492-10.506-6.36-10.863-.88 1.84-1.107 9.814-1.107 9.814s-2.403.283-5.03.45c.17-3.02.845-5.027 1.65-7.71 1.07-3.53 3.342-7.075 3.717-10.716zm-4.353 68.68c-.206 2.44-1.914 8.97-2.214 11.317-.12.932 2.83.41 5.44.482 2.31.075 4.592.32 5.18.3 2.17-.094.632-1.257-.15-1.257-.62 0-2.258-1.41-3.64-2.366-1.24-.864-2.31-1.258-2.39-1.67-.075-.6 1.427-6.644 1.427-6.644l-3.66-.17M166.024.84l.563 3.04c.43-.055.825-.15 1.05-.355.226-.225.32-.695.113-1.2.396.318.49 1.387.13 1.763-.26.262-.672.394-1.16.45l.394 2.064c.544-.094 1.05-.244 1.39-.525.412-.338.787-.75.43-1.614.845.638.807 2.064-.056 2.646-.413.28-.957.45-1.576.54l.414 2.16c.844-.13 1.595-.38 2.045-.81.546-.526.865-1.464.358-2.665 0 0 .47.374.695 1.2.56 2.064-.98 2.964-2.91 3.283l.224 1.26c4.466.393 3.772 2.082-2.1 2.082-5.856 0-6.55-1.69-2.084-2.083l.224-1.22c-.844-.094-1.558-.263-1.933-.413-2.475-1.034-1.555-3.023-.71-3.323 0 0-.865 1.446 1.18 2.31.357.15.957.28 1.652.374l.413-2.138c-.657-.076-1.2-.19-1.5-.3-1.803-.75-1.128-2.347-.508-2.57 0 0-.564.992.956 1.537.28.093.73.187 1.24.262l.394-2.046c-.413-.04-.732-.114-.9-.19-1.05-.432-.695-1.577-.32-1.71 0 0-.28.658.582 1.015.17.078.45.13.77.17l.54-3m-12.495 96.27c-.207 2.42-2.196 8.856-2.496 11.202-.13.935 2.836.41 5.444.485 2.29.075 4.58.32 5.16.3 2.177-.094.657-1.257-.13-1.257-.64 0-2.252-1.41-3.66-2.366-1.238-.864-2.308-1.258-2.364-1.67-.095-.6 1.706-6.53 1.706-6.53l-3.66-.17m74.1-42.91c-.433-1.388-1.183-2.045-1.183-2.045.844 2.027.563 3.997-.357 4.86-2.44 2.308-9.945 1.69-12.16.77-3.452-1.427-2.007-4.298-2.007-4.298-1.445.526-3.04 4.054 1.144 5.8.32.13.75.26 1.295.374-1.707 5.18 1.82 6.59 1.82 6.59-8.087 2.74.263 15.97 2.46 20.44.88-4.674 2.25-6.738 3.62-11.11 1.24-3.96 1.558-6.68-1.8-9.007 4.09 2.326 5.422.75 4.915-.263-.525-1.033-2.383-5.068-2.927-6.21 3.528-.47 6.342-2.048 5.18-5.895zm-11.973 7.825c1.5-1.07 4.24-1.782 6.024.207-2.4 2.364-6.02.15-6.02-.207zm-5.723 48.677c-1.014 10.47-7.32 23.663-8.107 26.027-1.576 4.722-1.295 4.74 3.772 4.84 5.59.09 14.93.05 19.752.182 5.03.113 4.767.244 4.148-5.517-.956-8.707-4.13-24.845-4.484-28.69-.263-3.173-.225-5.744-.28-7.62h.017s-.038-18.22.844-20.06c-.13.356 3.735 10.04 6.362 10.865 2.606.827 5.91-7.693 7.485-13.06 0 0 1.202-.563 1.915-2.87.714-2.29 1.65-4.034.64-4.67-1.033-.64-3.17-1.99-3.585-.714-.62 2.024-1.184 3.995-1.766 6.06-.28 1.05.6 1.406.6 1.406-.114.225-.114.47-.208.713-.45 1.09-.94 2.176-1.298 2.645-3.565 4.6-3.133 4.825-3.133 4.825s-.487-3.135-2.25-8.22c-1.746-5.104-5.537-5.142-5.537-5.142-.376 3.66-2.74 8.444-3.81 11.972-.657 2.12-1.014 5.8-2.29 7.675-.168-2.966-5.91-10.94-6.886-15.22-.45-1.97-.49-4.465-.49-4.465s-6.324.45-7.28 3.603c-2.12 7.092-3.08 16.08-3.172 23.55-.113 8.405-.057 7.917-.057 7.917s-.317.133-.45 2.535c-.15 2.402-.655 4.334.51 4.69 1.143.376 3.545 1.164 3.62-.168.132-2.12.207-4.184.263-6.286.02-1.106-.9-.77-.9-.77.206-8.837 3.827-17.713 4.878-26.532 3.72 7.974 1.69 24.937 1.167 30.492m10.524 29.69c-.205 2.44-1.91 8.99-2.194 11.315-.13.94 2.834.417 5.442.51 2.29.057 4.58.3 5.16.28 2.176-.09.656-1.255-.13-1.255-.62 0-2.254-1.388-3.66-2.364-1.24-.844-2.31-1.257-2.365-1.65-.094-.602 1.426-6.644 1.426-6.644l-3.68-.188m-1.2-96.152l.563 3.04c.43-.037.806-.15 1.03-.356.245-.228.34-.697.13-1.2.396.334.47 1.385.115 1.76-.248.263-.68.413-1.15.47l.395 2.045c.545-.075 1.05-.244 1.39-.507.394-.357.77-.75.413-1.633.862.638.824 2.083-.04 2.664-.412.28-.975.45-1.575.544l.395 2.14c.843-.133 1.594-.376 2.044-.808.546-.51.865-1.467.377-2.668 0 0 .47.392.695 1.22.544 2.043-.976 2.963-2.927 3.282l.245 1.238c4.466.415 3.77 2.104-2.102 2.104-5.855 0-6.568-1.69-2.102-2.102l.244-1.22c-.865-.092-1.56-.242-1.95-.41-2.48-1.033-1.54-3.02-.698-3.323 0 0-.882 1.463 1.164 2.31.376.15.977.28 1.67.373l.395-2.14c-.634-.056-1.2-.187-1.48-.3-1.8-.75-1.122-2.345-.503-2.57 0 0-.564.994.956 1.538.28.114.734.208 1.24.264l.377-2.045c-.395-.037-.733-.11-.9-.187-1.053-.432-.678-1.576-.32-1.708 0 0-.283.657.6 1.032.17.057.43.113.75.17l.563-3.022m-12.515 96.264c-.188 2.42-2.196 8.876-2.496 11.202-.114.94 2.85.414 5.44.508 2.31.057 4.598.3 5.18.283 2.177-.095.638-1.26-.13-1.26-.64 0-2.253-1.387-3.66-2.363-1.24-.842-2.31-1.255-2.365-1.65-.094-.6 1.708-6.55 1.708-6.55l-3.678-.17m82.63-71.756c.057 2.12.13 4.186.245 6.306.094 1.313 2.495.525 3.64.17 1.164-.377.657-2.29.507-4.71-.115-2.385-.45-2.516-.45-2.516s.054.47-.06-7.938c-.074-5.705-.656-12.31-1.875-18.277-1.126-5.556-2.12-7.02-5.893-7.657-1.97-.338-3.804-.938-5.924-1.614-.414-.114-.883-.226-1.37-.395-.02-.17-.19-2.666.15-4.13.843-3.527 3.133-6.117 1.894-9.832.544-.132.995-.263 1.295-.394 4.202-1.73 2.59-5.278 1.162-5.78 0 0 1.426 2.85-2.027 4.292-2.213.9-9.72 1.52-12.16-.77-.92-.862-1.2-2.833-.355-4.86 0 0-.75.658-1.163 2.046-1.183 3.847 1.65 5.423 5.16 5.892-.545 1.145-1.26 3.716-1.727 4.673-.488.938-.675 2.89 2.327 1.65-.058.527-.04 2.103 0 2.835.092 1.99-.36 2.44 1.78 2.216.6-.056 1.164-.094 1.24.15.15.488-.15 1.802-.187 2.027-1.858.846-4.56 1.84-6.456 2.16-2.57.434-4.56 1.56-5.33 3.81-3.114 9.028-3.92 19.44-3.94 28.88 0 0-.994.865-1.032 3.266-.037 2.42-.47 4.355.695 4.674 1.165.336 3.605 1.03 3.623-.3.057-2.12.038-4.187 0-6.307 0-1.09-.957-1.183-.957-1.183.038-.264-.037-.49 0-.77.563-5.16 2.346-10.547 3.77-15.48 1.54-5.275 2.704-9.478 2.61-9.76.88 1.84.845 20.04.845 20.04l.02.02c-.055 1.86-.02 4.447-.3 7.6-.336 3.865-3.51 20.003-4.465 28.71-.62 5.76-.883 5.63 4.146 5.5 4.823-.115 14.168-.078 19.76-.17 5.066-.095 5.348-.13 3.77-4.86-.786-2.366-7.092-15.558-8.105-26.01v-.02c-.523-5.534-2.55-22.498 1.166-30.49 1.05 8.82 4.67 17.712 4.878 26.55 0 0-.92-.335-.9.75zM272.93 20.71c1.782-2.006 4.522-1.274 6.023-.205-.014.357-3.64 2.552-6.02.207zm.825 80.916c.188 2.44 1.896 8.97 2.196 11.315.13.94-2.84.395-5.445.49-2.308.074-4.58.32-5.18.3-2.157-.095-.637-1.258.15-1.258.62 0 2.253-1.408 3.66-2.365 1.24-.843 2.29-1.256 2.365-1.67.074-.6-1.428-6.642-1.428-6.642l3.68-.17m1.915-98.89l-.43 3.058c-.433-.037-.808-.13-1.052-.32-.244-.205-.357-.674-.17-1.2-.374.357-.43 1.427-.055 1.783.26.243.693.356 1.18.412l-.3 2.07c-.562-.057-1.07-.207-1.407-.47-.43-.32-.824-.713-.487-1.595-.825.676-.75 2.103.15 2.647.413.26.995.413 1.596.47l-.3 2.176c-.864-.094-1.614-.32-2.084-.732-.58-.487-.938-1.407-.487-2.645 0 0-.45.412-.634 1.256-.47 2.064 1.107 2.91 3.058 3.153l-.186 1.255c-4.448.58-3.678 2.25 2.195 1.99 5.856-.246 6.475-1.97 1.99-2.18l-.263-1.2c.844-.15 1.54-.337 1.913-.506 2.42-1.125 1.408-3.077.563-3.34 0 0 .92 1.41-1.088 2.346-.356.17-.938.34-1.633.45l-.485-2.1c.638-.113 1.182-.244 1.463-.375 1.766-.826 1.034-2.402.415-2.59 0 0 .583.976-.9 1.576-.28.113-.73.225-1.24.3l-.45-2.007c.377-.058.715-.15.883-.227 1.035-.486.6-1.612.246-1.725 0 0 .3.657-.543 1.05-.17.057-.43.15-.75.19l-.697-2.966m11.742 98.984c.188 2.44 2.196 8.876 2.496 11.222.114.938-2.85.394-5.46.488-2.29.075-4.58.32-5.16.3-2.177-.094-.64-1.257.13-1.257.64 0 2.253-1.41 3.66-2.366 1.24-.843 2.31-1.256 2.365-1.67.093-.6-1.71-6.53-1.71-6.53l3.68-.187m42.707-31.884c-.413-1.37-1.182-2.045-1.182-2.045.85 2.046.587 3.998-.333 4.86-2.44 2.31-9.944 1.69-12.16.77-3.47-1.426-2.025-4.297-2.025-4.297-1.426.527-3.04 4.055 1.163 5.8.3.13.75.26 1.277.375-1.71 5.18 1.82 6.59 1.82 6.59-8.07 2.76.26 15.97 2.476 20.437.864-4.654 2.234-6.737 3.62-11.11 1.24-3.96 1.54-6.68-1.82-9.006 4.093 2.326 5.425.75 4.918-.282-.504-.994-2.38-5.03-2.906-6.192 3.51-.47 6.325-2.046 5.16-5.893zm-11.972 7.825c1.506-1.05 4.246-1.78 6.03.208-2.384 2.364-6.006.17-6.025-.207zm-5.664 48.678c-.993 10.47-7.317 23.663-8.105 26.027-1.578 4.724-1.296 4.743 3.77 4.84 5.59.11 14.956.053 19.78.184 5.01.112 4.765.262 4.127-5.518-.937-8.708-4.127-24.846-4.465-28.69-.28-3.174-.242-5.745-.3-7.62h.04s-.038-18.22.825-20.06c-.113.355 3.753 10.04 6.36 10.864 2.628.826 5.93-7.694 7.507-13.06 0 0 1.182-.563 1.914-2.853.713-2.31 1.652-4.053.62-4.69-1.033-.64-3.172-1.97-3.566-.714-.64 2.023-1.182 3.994-1.764 6.06-.28 1.05.582 1.405.582 1.405-.094.228-.094.47-.188.734-.45 1.07-.94 2.157-1.295 2.626-3.565 4.597-3.152 4.822-3.152 4.822s-.465-3.116-2.23-8.22c-1.744-5.104-5.535-5.142-5.535-5.142-.375 3.66-2.758 8.445-3.828 11.973-.638 2.14-1.013 5.8-2.27 7.675-.17-2.965-5.93-10.94-6.887-15.218-.45-1.97-.49-4.466-.49-4.466s-6.34.45-7.28 3.604c-2.14 7.093-3.076 16.08-3.17 23.55-.113 8.388-.075 7.918-.075 7.918s-.32.132-.45 2.534c-.132 2.402-.638 4.334.525 4.69 1.144.376 3.546 1.164 3.62-.168.13-2.102.186-4.166.243-6.286.037-1.09-.882-.77-.882-.77.21-8.838 3.83-17.714 4.86-26.533 3.738 7.974 1.71 24.956 1.167 30.492m10.546 29.71c-.205 2.42-1.913 8.97-2.213 11.295-.114.94 2.832.415 5.44.51 2.308.074 4.597.3 5.18.28 2.176-.093.637-1.257-.15-1.257-.62 0-2.253-1.388-3.642-2.364-1.238-.846-2.308-1.26-2.383-1.65-.075-.604 1.426-6.646 1.426-6.646l-3.66-.17m-1.22-96.15l.584 3.02c.414-.038.808-.15 1.033-.357.225-.227.32-.696.113-1.2.394.335.488 1.405.13 1.762-.262.262-.674.394-1.162.47l.394 2.044c.56-.075 1.05-.244 1.384-.507.413-.356.788-.75.432-1.632.843.658.825 2.084-.04 2.665-.41.282-.974.45-1.594.545l.413 2.14c.844-.132 1.594-.376 2.045-.808.545-.51.864-1.468.357-2.67 0 0 .47.376.694 1.22.563 2.045-.975 2.965-2.908 3.284l.225 1.24c4.464.413 3.77 2.102-2.104 2.102-5.854 0-6.55-1.69-2.083-2.102l.225-1.22c-.845-.092-1.558-.242-1.933-.41-2.477-1.033-1.558-3.004-.713-3.323 0 0-.864 1.465 1.18 2.31.357.15.957.28 1.65.375l.414-2.12c-.658-.076-1.2-.207-1.5-.32-1.803-.75-1.128-2.345-.51-2.57 0 0-.562.994.958 1.538.28.113.73.207 1.24.263l.39-2.045c-.412-.035-.73-.11-.9-.17-1.05-.43-.694-1.59-.32-1.723 0 0-.28.657.583 1.014.17.074.45.13.77.186l.544-3m-12.5 96.24c-.205 2.44-2.195 8.878-2.495 11.204-.13.94 2.834.414 5.442.508 2.286.075 4.576.3 5.16.282 2.174-.094.654-1.258-.134-1.258-.638 0-2.252-1.388-3.66-2.364-1.238-.844-2.307-1.257-2.364-1.65-.095-.602 1.706-6.55 1.706-6.55l-3.66-.17m1213.8 36.308c-.525 1.146-2.4 5.18-2.908 6.194-.507 1.013.826 2.59 4.916.28-3.36 2.31-3.058 5.03-1.82 8.99 1.39 4.372 2.76 6.455 3.64 11.108 2.196-4.466 10.546-17.676 2.46-20.416 0 0 3.526-1.426 1.82-6.587.524-.137.975-.268 1.294-.4 4.184-1.726 2.57-5.273 1.144-5.78 0 0 1.45 2.853-2.02 4.28-2.215.92-9.72 1.54-12.16-.75-.9-.865-1.182-2.835-.34-4.88 0 0-.75.675-1.18 2.045-1.164 3.846 1.65 5.44 5.16 5.91zm.79 2.14c1.78-2.008 4.52-1.276 6.022-.206-.02.356-3.622 2.552-6.023.206zm11.745 48.452c1.015 10.47 7.32 23.662 8.108 26.027 1.576 4.722 1.295 4.74-3.772 4.86-5.592.09-14.937.05-19.76.163-5.028.13-4.766.262-4.146-5.498.932-8.727 4.122-24.846 4.46-28.71.28-3.173.244-5.744.3-7.6l-.02-.02s.04-18.203-.843-20.06c.112.356-3.735 10.04-6.36 10.865-2.63.845-5.91-7.693-7.508-13.06 0 0-1.184-.544-1.897-2.852-.714-2.31-1.67-4.054-.64-4.69 1.033-.62 3.172-1.973 3.566-.715.64 2.025 1.2 4.014 1.764 6.06.3 1.05-.58 1.407-.58 1.407.092.244.092.488.205.732.43 1.068.92 2.176 1.275 2.626 3.583 4.598 3.152 4.824 3.152 4.824s.487-3.116 2.233-8.22c1.766-5.105 5.556-5.123 5.556-5.123.357 3.64 2.74 8.444 3.81 11.953.637 2.14 1.013 5.798 2.29 7.694.15-2.965 5.91-10.96 6.885-15.24.45-1.97.47-4.464.47-4.464s6.344.45 7.3 3.603c2.12 7.11 3.06 16.1 3.17 23.55.115 8.405.06 7.936.06 7.936s.32.114.45 2.515c.13 2.42.636 4.335-.51 4.71-1.163.357-3.565 1.145-3.64-.187-.113-2.103-.19-4.167-.244-6.287-.037-1.09.883-.77.883-.77-.188-8.82-3.828-17.715-4.86-26.535-3.716 7.996-1.69 24.96-1.164 30.496m-10.545 29.712c.207 2.42 1.915 8.97 2.215 11.315.11.938-2.837.394-5.445.488-2.31.077-4.598.32-5.18.28-2.177-.09-.638-1.235.15-1.235.62 0 2.252-1.408 3.66-2.365 1.22-.865 2.29-1.26 2.363-1.67.076-.6-1.426-6.644-1.426-6.644l3.66-.17m1.22-96.15l-.58 3.02c-.415-.038-.81-.13-1.035-.357-.225-.21-.32-.68-.112-1.187-.393.32-.487 1.39-.13 1.745.263.282.695.413 1.164.47l-.394 2.045c-.562-.075-1.05-.225-1.39-.507-.41-.36-.786-.75-.41-1.635-.864.657-.845 2.083.02 2.665.41.282.974.45 1.593.544l-.413 2.16c-.844-.13-1.595-.396-2.045-.827-.544-.508-.863-1.446-.357-2.666 0 0-.47.395-.694 1.22-.566 2.046.973 2.966 2.906 3.285l-.225 1.256c-4.466.394-3.77 2.083 2.1 2.083 5.857 0 6.55-1.69 2.085-2.083l-.225-1.22c.845-.112 1.558-.263 1.934-.43 2.49-1.015 1.553-3.004.71-3.304 0 0 .862 1.444-1.18 2.29-.36.15-.96.3-1.655.392l-.413-2.14c.658-.074 1.202-.187 1.503-.318 1.8-.732 1.126-2.346.506-2.552 0 0 .56.995-.96 1.52-.28.113-.73.206-1.237.263L1527 180.3c.393-.056.712-.112.88-.19 1.05-.43.676-1.593.32-1.705 0 0 .28.657-.58 1.013-.17.057-.434.133-.77.17l-.546-3.002m12.502 96.248c.206 2.44 2.195 8.876 2.495 11.222.134.938-2.83.394-5.44.488-2.29.075-4.58.32-5.16.28-2.177-.092-.657-1.237.13-1.237.64 0 2.25-1.408 3.66-2.365 1.24-.863 2.31-1.257 2.365-1.67.094-.6-1.707-6.53-1.707-6.53l3.66-.188m-83.5-72.505c.206-8.84 3.828-17.716 4.86-26.535 3.734 7.97 1.707 24.952 1.163 30.49-1.01 10.47-7.312 23.66-8.1 26.025-1.56 4.73-1.295 4.747 3.77 4.84 5.593.095 14.957.058 19.78.19 5.01.112 4.766.262 4.128-5.518-.938-8.707-4.128-24.845-4.466-28.69-.28-3.173-.243-5.744-.3-7.62h.038s-.056-18.22.826-20.06c-.093.28 1.09 4.485 2.61 9.76 1.444 4.952 3.227 10.32 3.79 15.5.02.26-.038.485-.02.75 0 0-.937.092-.956 1.18-.02 2.14-.038 4.185 0 6.305.038 1.334 2.458.64 3.64.32 1.164-.32.732-2.27.695-4.672-.056-2.42-1.03-3.285-1.03-3.285-.02-9.42-.846-19.836-3.94-28.88-.77-2.252-2.76-3.378-5.35-3.79-1.877-.32-4.58-1.314-6.436-2.178-.057-.206-.338-1.538-.188-2.026.055-.225.62-.207 1.237-.13 2.12.224 1.69-.245 1.783-2.216.04-.732.057-2.327-.02-2.852 3.005 1.257 2.817-.694 2.348-1.65-.467-.958-1.2-3.53-1.724-4.674 3.51-.47 6.323-2.046 5.16-5.893-.432-1.39-1.182-2.044-1.182-2.044.845 2.046.58 3.997-.337 4.86-2.44 2.29-9.947 1.69-12.16.77-3.454-1.426-2.028-4.297-2.028-4.297-1.428.504-3.04 4.05 1.16 5.796.3.133.75.264 1.277.376-1.22 3.716 1.07 6.324 1.896 9.85.356 1.447.17 3.94.17 4.11-.49.17-.978.28-1.37.415-2.12.657-3.98 1.258-5.93 1.596-3.773.638-4.768 2.1-5.91 7.656-1.22 5.97-1.785 12.574-1.86 18.3-.113 8.405-.075 7.92-.075 7.92s-.32.13-.45 2.53c-.133 2.404-.64 4.336.524 4.69 1.144.378 3.546 1.166 3.62-.166.13-2.12.188-4.165.245-6.285.037-1.11-.882-.77-.882-.77zm11.315-47.477c1.5-1.05 4.24-1.783 6.023.206-2.383 2.364-6.004.17-6.023-.207zm5.197 81.12c-.207 2.44-1.914 8.99-2.214 11.316-.113.94 2.852.412 5.44.506 2.31.056 4.6.3 5.18.282 2.177-.095.657-1.26-.13-1.26-.64 0-2.253-1.387-3.66-2.363-1.24-.845-2.308-1.257-2.364-1.65-.094-.602 1.426-6.644 1.426-6.644l-3.68-.187m-1.915-98.892l.43 3.06c.414-.02.808-.112 1.052-.32.222-.205.354-.674.166-1.18.377.34.415 1.407.04 1.764-.243.244-.694.375-1.163.413l.283 2.07c.58-.057 1.09-.19 1.426-.45.43-.34.805-.715.486-1.615.825.695.732 2.12-.15 2.665-.413.262-.995.393-1.595.47l.3 2.156c.845-.093 1.615-.3 2.084-.713.565-.49.92-1.425.47-2.645 0 0 .47.395.658 1.24.47 2.082-1.107 2.926-3.06 3.15l.17 1.26c4.448.6 3.68 2.25-2.176 2.007-5.854-.262-6.492-1.97-2.007-2.195l.282-1.2c-.846-.134-1.54-.32-1.915-.51-2.44-1.125-1.424-3.077-.56-3.34 0 0-.94 1.426 1.07 2.346.374.188.955.338 1.65.47l.49-2.12c-.64-.095-1.185-.245-1.485-.377-1.764-.827-1.013-2.404-.394-2.59 0 0-.6.974.9 1.575.284.115.716.227 1.22.32l.47-2.026c-.392-.056-.71-.13-.88-.225-1.032-.47-.62-1.616-.263-1.728 0 0-.3.658.562 1.05.15.077.43.15.75.208l.692-2.984m-11.742 99c-.207 2.42-2.196 8.876-2.496 11.202-.11.94 2.835.413 5.443.507 2.307.055 4.596.3 5.18.28 2.175-.093.636-1.257-.15-1.257-.62 0-2.254-1.388-3.64-2.364-1.24-.846-2.31-1.258-2.386-1.65-.072-.603 1.71-6.55 1.71-6.55l-3.66-.17m-37.55-25.986c-.543 1.146-2.4 5.18-2.907 6.194-.507 1.013.807 2.59 4.916.28-3.36 2.31-3.06 5.03-1.82 8.99 1.37 4.39 2.74 6.455 3.62 11.127 2.193-4.48 10.543-17.69 2.46-20.43 0 0 3.524-1.427 1.82-6.587.54-.13.97-.26 1.29-.374 4.204-1.747 2.59-5.294 1.164-5.8 0 0 1.426 2.85-2.026 4.296-2.214.9-9.72 1.52-12.16-.77-.92-.863-1.2-2.833-.356-4.86 0 0-.75.657-1.16 2.027-1.18 3.867 1.652 5.443 5.16 5.91zm.79 2.14c1.782-2.008 4.522-1.276 6.023-.206-.02.356-3.64 2.552-6.024.206zm11.67 48.47c1.014 10.453 7.32 23.644 8.108 26.01 1.576 4.728 1.313 4.765-3.772 4.86-5.592.093-14.937.055-19.76.168-5.03.13-4.766.262-4.147-5.498.953-8.726 4.143-24.845 4.46-28.71.284-3.172.265-5.743.3-7.6l-.016-.02s.037-18.202-.845-20.06c.13.357-3.735 10.04-6.36 10.866-2.61.844-5.91-7.694-7.49-13.06 0 0-1.2-.545-1.913-2.853-.716-2.31-1.65-4.053-.64-4.673 1.03-.638 3.17-1.99 3.583-.713.62 2.027 1.183 3.997 1.746 6.043.3 1.05-.58 1.407-.58 1.407.09.244.09.488.204.732.45 1.064.92 2.172 1.296 2.622 3.567 4.597 3.135 4.823 3.135 4.823s.49-3.115 2.253-8.22c1.745-5.085 5.536-5.122 5.536-5.122.374 3.64 2.74 8.444 3.81 11.953.655 2.14 1.01 5.8 2.287 7.676.17-2.945 5.91-10.94 6.89-15.2.45-1.99.488-4.465.488-4.465s6.324.43 7.28 3.584c2.12 7.11 3.078 16.1 3.172 23.55.112 8.406.055 7.937.055 7.937s.32.115.45 2.535c.15 2.4.66 4.315-.505 4.69-1.146.357-3.566 1.145-3.64-.17-.114-2.12-.19-4.183-.245-6.303-.02-1.09.9-.75.9-.75-.206-8.84-3.828-17.734-4.878-26.554-3.716 7.994-1.69 24.958-1.145 30.512h-.02m-10.528 29.69c.204 2.42 1.912 8.97 2.212 11.315.113.937-2.852.412-5.46.487-2.29.075-4.58.32-5.16.28-2.177-.092-.657-1.237.13-1.237.64 0 2.252-1.407 3.66-2.364 1.238-.863 2.308-1.257 2.364-1.67.094-.6-1.426-6.642-1.426-6.642l3.68-.17m1.2-96.15l-.563 3.02c-.412-.038-.806-.13-1.03-.357-.226-.21-.34-.677-.13-1.184-.396.32-.47 1.39-.115 1.764.246.262.678.393 1.147.45l-.373 2.064c-.564-.092-1.07-.242-1.39-.524-.413-.34-.79-.75-.432-1.615-.844.64-.825 2.065.038 2.647.415.283.977.45 1.578.545l-.394 2.16c-.845-.13-1.595-.395-2.045-.808-.545-.527-.864-1.465-.357-2.666 0 0-.488.375-.694 1.2-.566 2.046.954 2.966 2.905 3.285l-.245 1.256c-4.465.394-3.752 2.083 2.103 2.083s6.568-1.69 2.102-2.084l-.226-1.22c.845-.112 1.54-.263 1.933-.43 2.477-1.015 1.558-3.004.695-3.304 0 0 .88 1.447-1.167 2.31-.374.15-.956.28-1.67.375l-.393-2.14c.657-.073 1.2-.186 1.482-.317 1.82-.73 1.144-2.344.525-2.55 0 0 .54.995-.98 1.54-.28.093-.73.186-1.237.243l-.377-2.027c.393-.034.73-.11.9-.184 1.05-.432.676-1.596.32-1.727 0 0 .28.675-.6 1.03-.152.075-.433.13-.752.17l-.562-3.003m12.52 96.244c.208 2.44 2.197 8.877 2.497 11.223.112.935-2.835.41-5.443.485-2.308.075-4.58.32-5.18.28-2.176-.092-.637-1.237.15-1.237.62 0 2.234-1.41 3.64-2.366 1.24-.863 2.31-1.257 2.366-1.67.096-.6-1.706-6.53-1.706-6.53l3.678-.188m204.352-74.01c-.545 1.146-2.402 5.18-2.928 6.194-.507 1.013.825 2.59 4.916.28-3.354 2.31-3.04 5.03-1.8 8.99 1.37 4.372 2.74 6.455 3.62 11.11 2.2-4.468 10.55-17.678 2.46-20.418 0 0 3.53-1.407 1.82-6.586.547-.132.98-.263 1.298-.394 4.186-1.727 2.59-5.273 1.146-5.78 0 0 1.445 2.852-2.01 4.297-2.212.9-9.72 1.52-12.16-.77-.917-.863-1.2-2.834-.354-4.86 0 0-.75.656-1.184 2.045-1.163 3.842 1.652 5.42 5.18 5.89zm.77 2.14c1.782-2.007 4.52-1.276 6.023-.206 0 .357-3.622 2.552-6.024.206zm11.746 48.452c1.013 10.47 7.318 23.662 8.106 26.027 1.576 4.724 1.294 4.76-3.77 4.86-5.594.09-14.94.05-19.76.164-5.03.13-4.768.262-4.15-5.5.958-8.707 4.13-24.845 4.467-28.71.28-3.153.244-5.743.3-7.6l-.02-.02s.04-18.2-.843-20.04c.13.356-3.74 10.02-6.365 10.865-2.61.826-5.91-7.712-7.488-13.08 0 0-1.2-.543-1.914-2.85s-1.67-4.054-.638-4.673c1.03-.638 3.17-1.99 3.582-.73.62 2.024 1.182 4.013 1.764 6.06.28 1.05-.6 1.406-.6 1.406.113.243.113.487.206.73.45 1.07.92 2.176 1.295 2.626 3.567 4.618 3.135 4.825 3.135 4.825s.49-3.115 2.252-8.22c1.745-5.103 5.535-5.122 5.535-5.122.375 3.64 2.74 8.445 3.81 11.954.655 2.14 1.012 5.8 2.29 7.693.167-2.966 5.91-10.94 6.885-15.238.45-1.97.488-4.467.488-4.467s6.324.45 7.28 3.604c2.12 7.113 3.08 16.1 3.173 23.55.113 8.408.057 7.94.057 7.94s.32.13.45 2.515c.15 2.42.656 4.334-.507 4.71-1.146.356-3.567 1.144-3.64-.17-.114-2.12-.19-4.184-.246-6.304-.02-1.09.9-.75.9-.75-.206-8.84-3.83-17.734-4.88-26.553-3.714 7.992-1.69 24.956-1.162 30.492m-10.524 29.706c.207 2.42 1.915 8.97 2.196 11.316.132.94-2.833.395-5.442.49-2.308.074-4.578.32-5.16.3-2.177-.095-.657-1.258.13-1.258.62 0 2.253-1.408 3.66-2.365 1.24-.847 2.31-1.26 2.365-1.673.09-.6-1.43-6.64-1.43-6.64l3.68-.17m1.202-96.15l-.564 3.04c-.434-.058-.81-.15-1.034-.377-.244-.21-.34-.678-.132-1.185-.394.32-.47 1.39-.13 1.763.262.264.693.395 1.162.47l-.395 2.046c-.54-.075-1.05-.244-1.385-.526-.395-.357-.77-.75-.414-1.615-.86.637-.823 2.064.04 2.645.41.283.975.45 1.576.545l-.413 2.158c-.823-.13-1.573-.393-2.043-.824-.525-.51-.844-1.446-.356-2.647 0 0-.47.375-.693 1.2-.562 2.065.976 2.966 2.928 3.285l-.245 1.258c-4.47.394-3.775 2.083 2.1 2.083 5.853 0 6.566-1.69 2.1-2.082l-.244-1.22c.862-.112 1.556-.262 1.95-.413 2.477-1.03 1.54-3.02.694-3.32 0 0 .883 1.445-1.162 2.29-.377.17-.977.3-1.67.393l-.395-2.14c.638-.074 1.2-.186 1.48-.3 1.804-.75 1.128-2.363.51-2.57 0 0 .563.995-.957 1.54-.28.093-.73.187-1.24.243l-.373-2.027c.395-.058.714-.114.9-.19 1.05-.43.677-1.594.32-1.707 0 0 .263.657-.6 1.013-.17.075-.43.132-.75.17l-.563-3.003m12.518 96.248c.19 2.44 2.196 8.877 2.497 11.223.11.938-2.854.394-5.46.488-2.29.076-4.58.32-5.16.3-2.18-.093-.64-1.256.13-1.256.637 0 2.25-1.407 3.66-2.364 1.237-.846 2.306-1.26 2.363-1.672.094-.6-1.707-6.53-1.707-6.53l3.676-.186M1627.85 130.64c.19-8.84 3.81-17.734 4.862-26.535 3.715 7.975 1.688 24.94 1.163 30.494-1.013 10.45-7.318 23.64-8.106 26-1.58 4.73-1.3 4.767 3.77 4.86 5.59.095 14.93.057 19.76.17 5.03.13 4.76.263 4.14-5.5-.937-8.705-4.127-24.843-4.465-28.71-.28-3.15-.244-5.74-.3-7.6h.02s-.04-18.22.843-20.06c-.094.283 1.07 4.486 2.61 9.76 1.425 4.936 3.21 10.32 3.77 15.5.038.263-.02.49 0 .75 0 0-.937.095-.956 1.183-.02 2.12-.038 4.185 0 6.305.02 1.33 2.458.64 3.62.3 1.165-.32.733-2.25.696-4.654-.036-2.42-1.012-3.285-1.012-3.285-.04-9.44-.846-19.854-3.94-28.88-.77-2.25-2.78-3.377-5.35-3.81-1.896-.318-4.598-1.31-6.455-2.157-.037-.226-.32-1.54-.187-2.027.075-.227.638-.208 1.257-.15 2.12.224 1.67-.227 1.765-2.197.037-.73.055-2.327 0-2.85 3.002 1.256 2.814-.714 2.345-1.65-.47-.96-1.2-3.53-1.726-4.67 3.49-.47 6.324-2.05 5.142-5.89-.413-1.39-1.163-2.05-1.163-2.05.844 2.026.562 3.996-.357 4.86-2.44 2.29-9.945 1.67-12.14.77-3.472-1.446-2.028-4.3-2.028-4.3-1.444.508-3.04 4.055 1.145 5.78.32.15.75.264 1.295.395-1.24 3.715 1.05 6.323 1.895 9.832.338 1.463.17 3.96.15 4.127-.488.17-.957.282-1.35.413-2.12.66-3.98 1.26-5.95 1.597-3.77.638-4.766 2.102-5.89 7.656-1.22 5.97-1.803 12.575-1.878 18.28-.114 8.406-.057 7.94-.057 7.94s-.32.13-.45 2.53c-.15 2.402-.64 4.316.506 4.692 1.144.357 3.564 1.145 3.64-.17.112-2.12.187-4.183.243-6.303.02-1.09-.885-.75-.885-.75zm11.298-47.476c1.52-1.07 4.26-1.802 6.023.206-2.38 2.364-6 .15-6.02-.206zm5.217 81.12c-.207 2.44-1.914 8.97-2.215 11.316-.112.938 2.834.413 5.442.488 2.308.075 4.598.32 5.18.3 2.176-.094.637-1.257-.15-1.257-.62 0-2.253-1.382-3.64-2.36-1.24-.842-2.31-1.26-2.384-1.67-.075-.6 1.426-6.64 1.426-6.64l-3.66-.17m-1.932-98.893l.43 3.06c.433-.02.827-.114 1.052-.32.244-.207.357-.676.17-1.182.393.34.43 1.41.055 1.767-.27.243-.7.356-1.17.41l.28 2.065c.564-.055 1.07-.205 1.43-.468.41-.32.805-.714.486-1.596.826.677.732 2.1-.15 2.647-.43.28-.994.413-1.613.47l.32 2.176c.843-.093 1.594-.32 2.08-.712.564-.487.92-1.425.47-2.645 0 0 .45.394.64 1.24.468 2.063-1.09 2.907-3.04 3.15l.168 1.26c4.448.6 3.68 2.25-2.195 2.006-5.856-.262-6.475-1.97-1.99-2.195l.28-1.2c-.843-.15-1.537-.32-1.913-.506-2.44-1.126-1.426-3.077-.58-3.34 0 0-.92 1.407 1.087 2.346.36.167.94.336 1.65.45l.49-2.103c-.656-.11-1.2-.243-1.48-.374-1.765-.826-1.014-2.402-.395-2.59 0 0-.6.976.9 1.577.263.11.714.224 1.22.3l.47-2.01c-.395-.055-.732-.15-.9-.224-1.033-.49-.602-1.614-.245-1.727 0 0-.3.653.546 1.05.17.072.45.15.75.185l.695-2.966m-11.744 98.985c-.188 2.438-2.177 8.874-2.477 11.22-.13.938 2.832.413 5.44.488 2.29.076 4.577.32 5.16.3 2.176-.093.656-1.256-.13-1.256-.64 0-2.254-1.385-3.66-2.36-1.24-.845-2.31-1.26-2.366-1.67-.094-.6 1.708-6.53 1.708-6.53l-3.676-.17v-.02m-49.67-27.646c-.543 1.145-2.4 5.18-2.907 6.193-.508 1.013.805 2.61 4.915.282-3.36 2.308-3.06 5.047-1.82 9.007 1.37 4.37 2.758 6.43 3.62 11.104 2.197-4.466 10.547-17.696 2.46-20.435 0 0 3.527-1.407 1.82-6.586.544-.112.976-.244 1.295-.375 4.203-1.747 2.59-5.29 1.163-5.8 0 0 1.427 2.87-2.026 4.3-2.214.92-9.72 1.52-12.16-.77-.92-.866-1.2-2.817-.356-4.86 0 0-.75.654-1.162 2.043-1.182 3.846 1.65 5.423 5.16 5.892zm.79 2.14c1.782-1.99 4.522-1.276 6.023-.206-.02.36-3.64 2.57-6.025.21zm11.67 48.47c1.014 10.47 7.32 23.644 8.107 26.008 1.578 4.747 1.315 4.766-3.77 4.86-5.592.093-14.937.056-19.76.187-5.03.113-4.766.244-4.147-5.517.957-8.707 4.147-24.845 4.466-28.692.28-3.17.262-5.76.3-7.618h-.02s.038-18.22-.844-20.06c.132.357-3.734 10.04-6.36 10.865-2.61.83-5.912-7.69-7.488-13.06 0 0-1.2-.56-1.914-2.87-.713-2.29-1.652-4.03-.638-4.67 1.032-.64 3.17-1.99 3.584-.712.614 2.028 1.18 3.998 1.76 6.043.28 1.07-.6 1.407-.6 1.407.092.244.092.488.205.73.45 1.09.918 2.178 1.293 2.647 3.566 4.6 3.134 4.823 3.134 4.823s.488-3.134 2.252-8.22c1.744-5.103 5.535-5.14 5.535-5.14.375 3.658 2.74 8.444 3.81 11.97.656 2.14 1.01 5.8 2.29 7.676.17-2.966 5.91-10.94 6.885-15.22.45-1.97.488-4.465.488-4.465s6.324.43 7.28 3.584c2.12 7.112 3.078 16.1 3.172 23.57.113 8.387.056 7.918.056 7.918s.32.13.47 2.536c.13 2.403.64 4.336-.524 4.692-1.145.357-3.547 1.164-3.64-.17-.113-2.12-.188-4.165-.244-6.304-.02-1.087.9-.75.9-.75-.204-8.84-3.826-17.732-4.86-26.533-3.732 7.975-1.705 24.957-1.16 30.493h-.02m-10.525 29.68c.206 2.44 1.914 8.97 2.214 11.317.116.934-2.85.41-5.44.483-2.31.076-4.596.32-5.18.3-2.175-.093-.655-1.257.134-1.257.638 0 2.25-1.39 3.66-2.366 1.237-.842 2.307-1.255 2.363-1.65.094-.62-1.407-6.642-1.407-6.642l3.66-.188m1.197-96.15l-.563 3.04c-.413-.037-.807-.15-1.032-.375-.224-.207-.337-.677-.13-1.183-.37.32-.466 1.39-.11 1.765.245.262.676.394 1.146.47l-.376 2.044c-.563-.074-1.07-.243-1.39-.524-.41-.338-.79-.732-.43-1.614-.844.638-.826 2.064.038 2.665.412.28.975.43 1.576.525l-.394 2.158c-.847-.13-1.597-.37-2.048-.803-.544-.507-.863-1.464-.356-2.665 0 0-.488.377-.694 1.2-.563 2.067.957 2.967 2.908 3.305l-.243 1.24c-4.45.41-3.755 2.1 2.1 2.1 5.87 0 6.564-1.69 2.1-2.1l-.228-1.22c.845-.095 1.558-.264 1.933-.414 2.477-1.034 1.558-3.023.694-3.323 0 0 .882 1.465-1.16 2.31-.378.15-.96.28-1.67.375l-.397-2.137c.657-.075 1.2-.188 1.482-.3 1.82-.75 1.145-2.346.526-2.57 0 0 .545.993-.975 1.537-.263.09-.732.185-1.24.26l-.374-2.045c.395-.04.733-.114.9-.19 1.053-.43.677-1.576.32-1.71 0 0 .28.66-.58 1.016-.17.075-.45.13-.77.17l-.56-3.004m12.514 96.267c.206 2.42 2.196 8.857 2.496 11.203.115.934-2.83.41-5.44.483-2.31.076-4.58.32-5.18.3-2.175-.093-.636-1.257.15-1.257.62 0 2.254-1.39 3.64-2.367 1.24-.844 2.31-1.257 2.367-1.65.094-.62-1.69-6.55-1.69-6.55l3.66-.17M664.95 280.076l.056-.02c.206-.018.45-.055.713-.074.242-.016.542-.016.9-.034 1.67-.02 4.202.11 6.81.45h.02c5.59.73 13.115 2.29 22.91 4.314 1.67.34 3.434.695 5.235 1.07h.02c2.457.507 5.63 1.108 9.457 1.764 3.887.675 8.334 1.39 13.27 2.157 25.707 3.98 66.183 9.16 111.632 12.8h.15c9.515.77 19.198 1.444 28.974 2.007 9.832.58 19.76 1.09 29.65 1.465 14.635.58 52.484 2.477 96.563.976 38.92-1.332 84.236-.9 127.696-3.36 20.98-1.18 42.24-.56 61.474-1.52 53.2-2.663 95.44-6.247 108.144-7.655l.15 1.39c-12.61 1.39-55.283 4.86-108.238 7.526-19.16.956-39.65.32-60.573 1.52-40.42 2.344-82.51 2.12-119.59 3.452-49.033 1.744-89.865-.3-105.684-.92-9.947-.395-19.873-.883-29.67-1.465-9.85-.58-19.55-1.256-29.01-2.006l-.15-.02c-45.45-3.64-85.96-8.82-111.726-12.795-5.083-.788-9.53-1.52-13.284-2.177-3.81-.655-7-1.237-9.513-1.763-1.82-.375-3.566-.73-5.255-1.07-9.774-2.026-17.26-3.565-22.816-4.296-2.554-.338-5.01-.45-6.626-.432-.3 0-.58.02-.844.04-.224 0-.43.036-.562.036l-.055.02-.228-1.37m2.514 17.803h.02c.15-.02.356-.036.62-.092.243-.02.506-.06.825-.098 1.557-.15 3.96-.263 6.868-.038h.017c.96.074 2.01.186 3.118.3 1.07.112 2.233.262 3.453.43 6.21.825 13.867 2.195 22.274 3.92h.02c4.877.996 13.02 2.31 23.68 3.77 10.66 1.467 23.85 3.118 38.805 4.788 33.756 3.772 125.705 10.51 223.864 10.49 125.142-.037 260.38-7.92 298.042-12.854l.187 1.37c-39.747 5.235-187.05 13.492-317.468 13.192-90.54-.188-173.295-7.3-204.8-10.81-14.94-1.67-28.13-3.32-38.826-4.784-10.678-1.48-18.86-2.796-23.776-3.79h-.02c-8.37-1.708-15.985-3.078-22.18-3.92-1.16-.15-2.31-.3-3.413-.415-1.07-.115-2.102-.21-3.06-.3h-.036c-2.813-.21-5.12-.115-6.622.054-.282.02-.544.056-.77.075-.187.036-.394.055-.562.093h-.02l-.243-1.39m46-12.646l5.966 1.013-7.316 20.79-5.967-.995 7.32-20.81m12.888 2.33l5.987.994-7.333 20.81-5.968-1.015 7.317-20.79m13.114 2.307l5.986 1.014-7.337 20.81-5.963-1.012 7.318-20.81m13.17 1.614l5.97.994-7.32 20.81-5.966-1.016 7.317-20.79m12.555 1.99l6.022.732-6.38 21.11-6.005-.73 6.362-21.112m12.74 1.295l6.024.734-6.38 21.11-6.024-.73 6.38-21.112m13.886 1.277l6.044.47-5.445 21.373-6.044-.47 5.442-21.373m14.263 1.2l6.04.45-5.42 21.376-6.06-.454 5.44-21.373m14.375 1.183l6.042.47-5.423 21.372-6.04-.47 5.424-21.373m13.878 1.194l6.042.47-.9 9.532-1.033-2.46-.563 1.127-.9-.976-.28 2.364-.845-1.67-.826-1.576-1.595 2.74.9-9.553zm3.246 13.792l-2.626 8.05-6.042-.47 3.002-8.857 1.595 1.953 1.2-.882.508-1.763.43 2.72 1.427-2.327.507 1.576zm-137.846-30.55l5.967 1.013-7.317 20.793-5.968-.995 7.32-20.81m-14.658-2.343l5.987.995-7.337 20.81-5.967-1.012 7.318-20.792m163.147 20.135l6.042.415-5.274 21.41-6.042-.412 5.277-21.41m14.37 1.07l6.044.43-5.273 21.412-6.042-.43 5.273-21.412m13.943 1.107l6.04.412-5.272 21.41-6.042-.412 5.273-21.41m13.494.9l6.06.28-4.727 21.525-6.06-.263 4.728-21.542m15.426.282l6.06.28-4.746 21.543-6.04-.282 4.73-21.54m14.034.3l6.06.28-4.728 21.524-6.06-.264 4.728-21.543m14.222.052l6.06.075-.468 9.93-1.09-.94-1.22 1.05-.73-1.554-.92.882-.81-1.596-1.277 2.044.45-9.89zm5.198 12.78l-3.247 8.968-6.06-.093 3.247-8.95.375.98.933-.28 1.2-.77.17 1.087.827.544 1.182-.62 1.37-.86zm7.92-12.93l6.06.093-4.11 21.67-6.06-.114 4.11-21.654M604.7 285.42c.076.957.076 2.796.49 4.86.656 3.434 1.84 7.487 2.026 9.007.13.994-2.965.43-5.686.506-2.38.094-4.78.338-5.38.32-2.27-.095-.676-1.315.15-1.315.656 0 2.345-1.463 3.81-2.458 1.293-.9 2.4-1.313 2.457-1.745.056-.284-.544-2.29-.938-4.32-.47-2.307-.75-4.67-.75-4.67l3.824-.188m14.428 5.217c.075.788-.187 2.158.188 3.715.846 3.45 3.08 7.936 3.286 9.606.13.977-3.397.43-6.117.508-2.404.075-4.788.337-5.388.32-2.27-.114-.673-1.315.134-1.315.676 0 2.365-1.465 3.828-2.478 1.277-.882 2.403-1.295 2.46-1.726.056-.338-.9-2.703-1.502-4.842-.525-1.876-.713-3.603-.713-3.603l3.827-.186m-5.035-89.45s1.483 2.982-2.12 4.484c-2.308.956-10.133 1.594-12.685-.808-.957-.9-1.24-2.946-.357-5.067 0 0-.782.695-1.232 2.12-1.22 4.016 1.726 5.668 5.404 6.156-.563 1.2-2.514 5.404-3.04 6.474-.544 1.05.845 2.702 5.123.28-3.51 2.422-3.19 5.255-1.894 9.384 1.427 4.577 2.87 6.735 3.77 11.595 2.31-4.653 11.018-18.446 2.57-21.317 0 0 3.7-1.46 1.917-6.863.546-.13 1.015-.262 1.334-.394 4.39-1.82 2.7-5.517 1.22-6.04zm-10.19 9.12c1.86-2.084 4.73-1.334 6.287-.208-.02.376-3.79 2.665-6.287.207zM616.1 260.85c.808 8.35 7.413 22.724 8.24 25.182 1.65 4.954 1.37 4.973-3.923 5.067-5.836.11-15.594.07-20.623.18-5.235.132-4.972.263-4.315-5.74.97-9.08 4.52-23.964 4.87-27.98.283-3.302.245-6.004.3-7.937l-.017-.02s.036-18.99-.883-20.922c.13.377-3.902 10.47-6.623 11.335-2.74.863-6.193-8.03-7.825-13.624 0 0-1.257-.58-1.99-2.983-.75-2.404-1.744-4.224-.656-4.88 1.07-.657 3.302-2.065 3.715-.75.658 2.12 1.24 4.183 1.84 6.323.3 1.09-.62 1.464-.62 1.464.114.245.114.508.226.77.45 1.108.956 2.27 1.332 2.74 3.734 4.804 3.284 5.03 3.284 5.03s.506-3.266 2.345-8.576c1.82-5.31 5.78-5.347 5.78-5.347.377 3.81 2.854 8.8 3.98 12.48.676 2.215 1.05 6.04 2.383 8.01.17-3.093 6.154-11.406 7.167-15.872.47-2.066.51-4.674.51-4.674s6.604.47 7.6 3.753c2.213 7.412 3.21 16.794 3.32 24.582.113 8.762.057 8.274.057 8.274s.337.13.47 2.627c.15 2.516.674 4.524-.527 4.9-1.2.374-3.715 1.2-3.79-.19-.13-2.194-.207-4.334-.263-6.567-.038-1.127.938-.79.938-.79-.225-9.213-3.997-18.483-5.085-27.678-3.884 8.33-2.027 23.454-1.22 31.805m-9.7-69.315l-.6 3.152c-.432-.037-.845-.15-1.07-.375-.244-.21-.357-.716-.132-1.24-.413.336-.506 1.443-.13 1.84.262.28.712.41 1.2.485l-.394 2.14c-.58-.094-1.106-.263-1.463-.545-.413-.374-.807-.787-.43-1.69-.883.678-.865 2.16.036 2.78.432.28 1.013.45 1.65.563l-.41 2.25c-.883-.15-1.67-.41-2.14-.86-.582-.524-.9-1.52-.376-2.776 0 0-.507.41-.732 1.255-.58 2.16 1.014 3.1 3.04 3.437l-.244 1.314c-4.65.414-3.92 2.177 2.198 2.177s6.83-1.763 2.176-2.195l-.225-1.255c.885-.113 1.617-.282 2.01-.432 2.59-1.087 1.615-3.15.73-3.47 0 0 .92 1.52-1.22 2.4-.37.17-1.01.3-1.723.396l-.413-2.215c.676-.074 1.24-.205 1.54-.336 1.875-.77 1.18-2.44.543-2.665 0-.02.582 1.033-1.013 1.596-.282.112-.75.205-1.295.28l-.396-2.14c.413-.036.75-.11.938-.186 1.11-.45.716-1.65.34-1.78 0 0 .28.694-.62 1.07-.17.056-.47.13-.79.17l-.58-3.135m-27.773 28.41c.092 0 28.184-1.82 51.283-7.376 4.148-.996 7.563-2.028 10.266-2.854.62-.207 1.05-.3 1.594-.488-.17-1.05.64-1.277 1.614-.564.9-.376 1.558-.808 2.365-1.577 1.613-1.558 2.74-3.06 4.146-7.187-.3 3.174-1.22 5.745-2.928 7.62-.9.996-1.765 1.784-3.398 2.385.49 1.63 1.484 4.634 2.084 8.762.6.32 2.91 1.914 4.785 3.847.586-.19 1.205-.282 1.787-.32.6-.037 1.2 0 1.8.113 2.966.544 5.462 2.984 6.85 5.742l-.45.205c-1.22-2.44-4.053-4.22-6.624-4.69-.506-.094-.994-.113-1.5-.094-.3.02-.62.06-.92.115.394.525.73 1.09.976 1.67l.02.02c.3.692.672 1.65 1.085 2.663 1.35 3.397 2.834 7.713 4.448 8.8l-.412.6c-1.93-1.312-3.81-5.365-5.234-8.93-.356-.92-.713-1.802-1.07-2.627v-.02c-1.05-2.42-3.922-4.352-5.405-5.216.28 2.29.43 4.767.376 7.32.975.336 3.02 1.387 3.527 4.408.226 1.37.132 2.61.057 3.85-.15 2.007-.507 3.94.825 6.417l-.357.45c-2.61-3.96-1.485-6.55-1.804-10.508-.32-2.01-1.5-2.89-2.31-3.247-.038.845-.113 1.708-.226 2.59-1.762-.225-3.64.582-3.413 3.096.114 1.2.34 2.29.564 3.32.486 2.404 1.18 4.524-.45 7.6l-.434-.486c.842-2.665.092-4.616-.377-6.85-.228-1.07-.45-2.195-.565-3.452-.357-3.902 2.57-4.43 3.528-4.484.187-2.026.187-4.05.112-5.985-.864-.04-4.13.074-6.494 3.752-2.795 4.372-1.744 9.138-1.744 9.138l-.45.3s-2.004-5.254 1.11-10.114c2.59-4.033 6.23-4.37 7.507-4.35-.413-5.875-1.764-10.847-2.402-12.968-24.056 8.332-63.556 10.884-63.67 10.884l-.073-1.274m382.52 84.944l6.063.095-4.11 21.676-6.06-.097 4.11-21.674m14.32 0l6.06.095-4.11 21.674-6.06-.097 4.11-21.674m14.317 0l6.06.095-4.11 21.672-6.06-.096 4.11-21.674m14.993-1.35l6.06.094-4.11 21.655-6.06-.098 4.11-21.655m13.324-.693l6.06.094-4.11 21.672-6.06-.094 4.11-21.677m-381.87-66.78c1.2.9 2.028 2.646 2.028 4.673 0 2.007-.826 3.753-2.027 4.653-1.2-.9-2.007-2.646-2.007-4.653 0-2.027.807-3.772 2.008-4.673m6.755 7.79c.883 1.22 1.146 3.135.546 5.05-.6 1.932-1.913 3.36-3.302 3.846-.882-1.2-1.145-3.115-.544-5.03.6-1.932 1.89-3.358 3.3-3.846v-.02m6.53-2.91c1.48-.02 3.21.883 4.41 2.478 1.24 1.614 1.63 3.51 1.22 4.935-1.484.02-3.19-.882-4.41-2.496-1.22-1.595-1.634-3.49-1.22-4.916m6.585-5.082c1.463-.263 3.302.356 4.747 1.764 1.463 1.385 2.158 3.19 1.97 4.67-1.464.243-3.284-.376-4.748-1.784-1.464-1.388-2.16-3.19-1.97-4.653m3.564-9.4c1.465.282 2.966 1.52 3.83 3.34.866 1.82.884 3.753.19 5.067-1.464-.28-2.946-1.52-3.81-3.34-.88-1.82-.9-3.755-.206-5.07m-533.9-128.93c-.414-1.39-1.165-2.047-1.165-2.047.84 2.027.56 3.997-.36 4.86-2.44 2.29-9.948 1.67-12.16.77-3.455-1.445-2.028-4.297-2.028-4.297-1.427.506-3.04 4.053 1.163 5.798.3.113.75.244 1.275.375-1.707 5.16 1.82 6.58 1.82 6.58-8.07 2.74.283 15.95 2.478 20.437.88-4.67 2.233-6.737 3.62-11.128 1.24-3.96 1.54-6.68-1.82-9.01 4.11 2.328 5.425.75 4.918-.26-.506-1.014-2.382-5.048-2.907-6.193 3.51-.467 6.344-2.062 5.16-5.89zm-11.973 7.824c1.507-1.07 4.247-1.802 6.03.206-2.384 2.365-6.005.15-6.024-.206zm-4.39 35.766s.15 2.477-1.273 12.91c-1.426 10.415-7.32 23.644-8.107 26.01-1.577 4.727-1.295 4.765 3.77 4.86 5.59.093 14.935.055 19.776.168 5.01.13 4.75.262 4.13-5.498-.94-8.726-4.13-24.845-4.466-28.71-.47-5.368-.04-9.027-.66-10.434.037 0-2.346.187-3.603-.582-3.06.732-8.425 1.126-9.59 1.276h.02m-.335-7.825c.75-4.035-.45-7.975-2.1-9.758 0 0-1.09 9.14-2.027 10.883 0 0 5.704.53 8.22.68 2.288.15 3.827.04 6.154-.15 0 0-.432-.28.656-.374 2.12-.17 4.166-.32 6.287-.43 1.337-.058.79 2.42.568 3.6-.244 1.183-2.215.883-4.616 1.015-2.402.13-2.57-.19-2.57-.19s.487 0-7.883.79-12.33-.32-12.48-1.895c-.17-1.575 2.063-15.724 3-18.877.957-3.152 7.3-3.584 7.3-3.584s.037 2.475.47 4.464c1.125 4.954 4.427 8.688 4.99 14.11-.713 0-1.388 0-1.99-.036-3.433-.19-3.977-.244-3.977-.244zm13.96-18.258s3.793.036 5.557 5.12c1.745 5.1 2.233 8.22 2.233 8.22s-.43-.21 3.157-4.83c.357-.45.845-1.556 1.276-2.625.113-.245.113-.49.207-.733 0 0-.883-.356-.583-1.406.563-2.046 1.126-4.016 1.764-6.043.396-1.275 2.535.076 3.567.714s.075 2.383-.638 4.673c-.714 2.31-1.896 2.87-1.896 2.87-1.576 5.37-4.88 13.887-7.506 13.043-2.628-.825-6.475-10.51-6.36-10.864-.884 1.855-1.11 9.83-1.11 9.83s-2.383.282-5.03.45c.188-3.02.864-5.028 1.67-7.71 1.05-3.528 3.32-7.075 3.697-10.715zm-4.35 68.68c-.208 2.42-1.915 8.97-2.216 11.314-.113.938 2.833.413 5.44.488 2.31.075 4.58.32 5.18.28 2.158-.074.638-1.237-.15-1.237-.62 0-2.25-1.408-3.64-2.365-1.24-.863-2.31-1.257-2.364-1.67-.093-.6 1.408-6.643 1.408-6.643l-3.66-.168m-1.22-96.153l.56 3.02c.433-.037.808-.13 1.033-.356.245-.21.34-.68.13-1.187.396.32.49 1.39.134 1.764-.262.263-.694.394-1.163.45l.394 2.064c.564-.09 1.05-.24 1.39-.523.413-.34.788-.75.413-1.615.862.64.824 2.066-.04 2.648-.393.283-.956.45-1.575.545l.414 2.158c.84-.13 1.573-.392 2.042-.805.544-.525.863-1.463.357-2.664 0 0 .47.376.695 1.2.563 2.047-.976 2.967-2.91 3.286l.227 1.257c4.467.394 3.77 2.083-2.1 2.083-5.856 0-6.55-1.69-2.084-2.083l.225-1.22c-.844-.112-1.557-.263-1.933-.43-2.497-1.015-1.56-3.004-.715-3.304 0 0-.863 1.446 1.183 2.31.355.15.956.28 1.65.374l.413-2.14c-.656-.074-1.2-.187-1.5-.318-1.802-.733-1.126-2.347-.507-2.553 0 0-.563.995.957 1.54.28.093.73.186 1.237.243l.375-2.027c-.376-.037-.713-.11-.9-.188-1.052-.43-.677-1.595-.32-1.726 0 0-.263.675.6 1.03.17.074.45.13.77.17l.544-3.004m-12.49 96.245c-.21 2.44-2.198 8.877-2.498 11.223-.132.938 2.833.413 5.442.488 2.304.076 4.574.32 5.16.28 2.173-.092.653-1.236-.135-1.236-.62 0-2.253-1.406-3.66-2.363-1.24-.862-2.29-1.256-2.365-1.67-.093-.6 1.71-6.53 1.71-6.53l-3.66-.17v-.017m927.084 120.114l6.06.094-4.07 21.67-6.063-.093 4.073-21.675m14.26-.015l6.08.075-4.09 21.673-6.06-.075 4.07-21.674m14.337-.02l6.06.095-4.09 21.673-6.06-.094 4.09-21.67m15.03-1.39l6.06.09-4.07 21.675-6.06-.094 4.07-21.673m13.287-.696l6.06.076-4.09 21.673-6.06-.076 4.09-21.677m15.292-.26l6.08.075-4.09 21.675-6.064-.073 4.075-21.674m14.336-.02l6.06.074-4.09 21.674-6.062-.074 4.09-21.674m14.32-.018l6.06.075-4.07 21.672-6.062-.077 4.072-21.672m14.973-1.39l6.062.078-4.074 21.677-6.06-.075 4.07-21.674m13.343-.718l6.06.094-4.07 21.672-6.08-.094 4.09-21.673m15.8-.225l6.06-.056-3.62 21.768-6.06.034 3.62-21.748-54.274 10.41m69.586-10.99l6.06-.056-3.62 21.767-6.062.04 3.623-21.75m14.316-.34l6.06-.035-3.603 21.75-6.075.04 3.62-21.75m14.26-.32l6.08-.04-3.62 21.75-6.06.037 3.6-21.75m14.993-1.705l6.06-.037-3.62 21.75-6.063.035 3.622-21.75m13.266-.975l6.06-.056-3.602 21.766-6.06.038 3.602-21.75m12.29-1.07l6.08-.036-3.62 21.745-6.06.038 3.6-21.75m13.285-.972l6.063-.055-3.603 21.768-6.08.037 3.62-21.75" fill="#141311"/></g></svg>