<svg width="3285" height="2057" viewBox="0 0 3285 2057" xmlns="http://www.w3.org/2000/svg"><title>bg-intro</title><desc>Created with Sketch.</desc><g fill="none" fill-rule="evenodd"><path d="M971.765 1993.464c-99.904 41.94-204.22 62.938-312.962 62.938-204.538 0-365.278-51.097-482.315-153.385C59.468 1800.785.94 1655.675.94 1467.707c0-219.89 82.455-391.89 247.36-516.002 164.907-124.13 399.244-186.187 703.068-186.187 52.016 0 113.49 8.876 184.422 26.59 0-223.416-141.282-335.124-423.788-335.124-166.69 0-306.188 27.772-418.477 83.335l-95.758-344c152.503-73.28 333.94-109.93 544.37-109.93 289.62 0 501.814 65.9 636.584 197.705 134.757 131.807 202.14 381.532 202.14 749.176v406.077c0 252.97 50.817 411.985 152.505 476.97-36.647 63.837-77.442 103.17-122.347 117.936-44.942 14.766-96.358 22.14-154.266 22.14-63.84 0-121.203-23.643-172-70.912-50.853-47.29-85.12-98.704-102.85-154.286-40.195 66.24-110.245 120.303-210.13 162.26zm167.57-866.212c-75.66-15.35-132.404-23.044-170.234-23.044-349.923 0-524.85 114.654-524.85 344 0 170.218 98.685 255.336 296.13 255.336 265.974 0 398.96-132.987 398.96-398.963v-177.323zM3080.76 583.158c-104.03-98.104-243.55-147.174-418.475-147.174-167.853 0-300.56 55.844-398.08 167.57-97.522 111.71-146.292 266.277-146.292 463.704 0 398.38 189.733 597.553 569.198 597.553 164.29 0 309.138-54.36 434.45-163.12L3284.68 1851c-128.86 80.41-241.45 131.205-337.806 152.503-96.358 21.28-210.11 31.902-341.335 31.902-293.2 0-524.594-85.38-694.21-256.218-169.635-170.818-254.434-408.12-254.434-711.926 0-299.073 92.774-540.842 278.397-725.25C2120.84 157.59 2373.85 65.4 2694.203 65.4c221.034 0 413.17 62.056 576.29 186.187l-189.73 331.578z" fill="#8A6D51"/><path d="M2361.612 214.48c-.545 1.146-2.402 5.18-2.928 6.194-.506 1.013.826 2.59 4.917.28-3.353 2.31-3.04 5.03-1.8 8.99 1.37 4.372 2.74 6.455 3.62 11.11 2.2-4.468 10.55-17.678 2.46-20.418 0 0 3.53-1.407 1.82-6.586.548-.132.98-.263 1.3-.394 4.184-1.727 2.59-5.273 1.144-5.78 0 0 1.445 2.852-2.01 4.297-2.212.9-9.72 1.52-12.16-.77-.917-.862-1.2-2.833-.354-4.86 0 0-.75.657-1.184 2.046-1.163 3.84 1.652 5.42 5.18 5.89zm12.312 81.528c-3.278.022-6.954.03-10.148.053.495 2.95 1.78 8.03 2.02 10.037.132.938-2.833.394-5.442.488-2.308.076-4.578.32-5.16.3-2.177-.093-.657-1.256.13-1.256.62 0 2.253-1.408 3.66-2.365 1.24-.846 2.31-1.26 2.365-1.672.062-.432-.71-3.703-1.147-5.49l-1.505.03c-5.03.13-4.766.264-4.147-5.497.958-8.707 4.13-24.845 4.467-28.71.28-3.153.244-5.743.3-7.6l-.02-.02s.04-18.2-.843-20.04c.13.356-3.735 10.02-6.362 10.865-2.61.826-5.91-7.712-7.487-13.08 0 0-1.2-.543-1.916-2.85s-1.67-4.054-.64-4.673c1.033-.636 3.172-1.99 3.585-.73.62 2.026 1.183 4.015 1.765 6.06.28 1.05-.6 1.408-.6 1.408.112.245.112.49.205.733.45 1.07.92 2.176 1.296 2.626 3.567 4.616 3.135 4.823 3.135 4.823s.49-3.117 2.253-8.22c1.746-5.105 5.536-5.124 5.536-5.124.376 3.64 2.74 8.443 3.81 11.952.656 2.14 1.013 5.8 2.29 7.694.168-2.966 5.91-10.94 6.886-15.238.45-1.97.488-4.467.488-4.467s6.323.45 7.28 3.602c2.12 7.112 3.078 16.1 3.172 23.55.112 8.407.056 7.938.056 7.938s.32.132.45 2.516c.15 2.42.657 4.334-.506 4.71-1.145.356-3.566 1.144-3.64-.17-.113-2.12-.188-4.184-.245-6.304-.02-1.09.9-.75.9-.75-.21-8.84-3.83-17.734-4.88-26.553-3.717 7.99-1.69 24.955-1.165 30.49 1.013 10.47 7.318 23.663 8.106 26.028 1.578 4.73 1.296 4.766-3.77 4.86l-.993.015c.516 2.9 2.08 8.07 2.343 10.12.113.937-2.852.393-5.46.487-2.29.075-4.58.32-5.16.3-2.177-.094-.64-1.257.13-1.257.64 0 2.253-1.406 3.66-2.363 1.24-.847 2.308-1.26 2.365-1.673.07-.45-.92-3.88-1.423-5.58zm-11.543-79.388c1.79-2.007 4.528-1.276 6.03-.206 0 .357-3.62 2.552-6.024.206zm2.427-17.995l-.563 3.04c-.432-.057-.807-.15-1.032-.376-.243-.21-.337-.68-.13-1.188-.395.32-.47 1.39-.13 1.764.26.263.692.394 1.16.47l-.393 2.045c-.545-.074-1.05-.243-1.39-.525-.394-.357-.77-.75-.413-1.615-.863.64-.826 2.066.037 2.647.41.283.974.45 1.575.545l-.414 2.158c-.826-.13-1.576-.393-2.046-.824-.526-.51-.845-1.447-.357-2.648 0 0-.468.375-.693 1.2-.564 2.065.974 2.966 2.926 3.285l-.244 1.257c-4.466.394-3.772 2.083 2.102 2.083 5.854 0 6.567-1.69 2.1-2.083l-.243-1.22c.86-.112 1.558-.262 1.95-.413 2.48-1.03 1.54-3.02.696-3.32 0 0 .882 1.444-1.163 2.29-.374.17-.974.3-1.67.392l-.392-2.14c.64-.077 1.2-.19 1.483-.3 1.8-.75 1.124-2.366.505-2.57 0 0 .563.992-.957 1.54-.282.09-.732.184-1.24.24l-.374-2.027c.394-.057.713-.113.9-.188 1.05-.432.676-1.595.32-1.708 0 0 .262.656-.6 1.012-.17.074-.432.13-.75.17l-.564-3.004zm.386-33.055c-.494 2.95-1.782 8.022-2.04 10.03-.11.938 2.835.413 5.443.488 2.308.075 4.598.32 5.18.3 2.176-.094.637-1.257-.15-1.257-.62 0-2.253-1.383-3.64-2.36-1.24-.843-2.31-1.26-2.384-1.67-.055-.432.713-3.704 1.144-5.49l1.558.03c5.03.13 4.767.26 4.148-5.5-.938-8.704-4.128-24.842-4.466-28.71-.28-3.15-.24-5.74-.3-7.6h.02s-.036-18.22.846-20.06c-.094.28 1.07 4.487 2.608 9.76 1.426 4.936 3.21 10.32 3.772 15.5.037.263-.02.488 0 .75 0 0-.938.095-.957 1.183-.02 2.12-.04 4.185 0 6.305.02 1.332 2.458.638 3.62.3 1.165-.32.733-2.25.696-4.653-.04-2.42-1.014-3.282-1.014-3.282-.037-9.44-.844-19.854-3.94-28.88-.77-2.25-2.777-3.377-5.35-3.81-1.894-.318-4.596-1.312-6.453-2.157-.04-.225-.32-1.54-.19-2.026.075-.227.638-.208 1.257-.15 2.12.224 1.67-.227 1.763-2.197.037-.73.055-2.326 0-2.85 3 1.256 2.814-.714 2.345-1.653-.47-.957-1.2-3.528-1.727-4.672 3.49-.467 6.326-2.044 5.144-5.89-.415-1.39-1.165-2.046-1.165-2.046.843 2.026.56 3.996-.358 4.86-2.44 2.29-9.945 1.67-12.14.77-3.472-1.446-2.03-4.3-2.03-4.3-1.442.508-3.04 4.055 1.147 5.78.32.15.75.264 1.294.395-1.24 3.715 1.05 6.323 1.894 9.832.338 1.462.17 3.96.15 4.126-.488.17-.957.282-1.35.413-2.12.656-3.98 1.256-5.95 1.594-3.77.638-4.766 2.102-5.89 7.656-1.22 5.968-1.803 12.573-1.878 18.277-.114 8.41-.057 7.94-.057 7.94s-.32.13-.45 2.533c-.15 2.4-.64 4.315.507 4.69 1.144.357 3.564 1.145 3.64-.17.112-2.12.187-4.183.243-6.303.02-1.09-.883-.75-.883-.75.19-8.84 3.81-17.733 4.862-26.534 3.713 7.975 1.686 24.94 1.16 30.494-1.012 10.45-7.317 23.642-8.105 26.007-1.578 4.73-1.296 4.767 3.77 4.86l.994.016c-.512 2.9-2.062 8.07-2.324 10.118-.13.938 2.833.413 5.442.488 2.29.075 4.578.32 5.16.3 2.177-.094.657-1.257-.13-1.257-.64 0-2.253-1.39-3.66-2.365-1.24-.845-2.308-1.258-2.365-1.67-.07-.45.92-3.88 1.424-5.58 3.264.02 6.925.03 10.11.052zm-2.44-82.096c1.28 0 2.315-.98 2.315-.98s-1.036-1.003-2.313-1.003c-1.275 0-2.31 1.01-2.31 1.01s1.035.98 2.313.98zm.683-18.08l.43 3.058c.433-.02.827-.113 1.052-.32.244-.206.357-.675.17-1.18.393.336.43 1.406.055 1.763-.265.243-.697.356-1.166.412l.28 2.064c.564-.05 1.07-.2 1.428-.463.412-.32.806-.713.487-1.595.826.676.73 2.1-.15 2.646-.43.282-.994.413-1.613.47l.32 2.176c.842-.093 1.593-.32 2.08-.712.563-.488.92-1.426.47-2.646 0 0 .45.395.64 1.24.467 2.064-1.09 2.908-3.04 3.15l.167 1.26c4.447.6 3.678 2.25-2.196 2.007-5.856-.262-6.475-1.97-1.99-2.195l.28-1.2c-.843-.15-1.537-.32-1.913-.506-2.44-1.127-1.426-3.078-.58-3.34 0 0-.92 1.406 1.087 2.345.357.167.938.336 1.65.45l.49-2.103c-.657-.112-1.202-.244-1.483-.375-1.763-.827-1.012-2.403-.393-2.59 0 0-.6.975.9 1.576.263.11.714.224 1.22.3l.47-2.01c-.395-.055-.732-.15-.9-.224-1.033-.488-.602-1.614-.245-1.727 0 0-.3.656.546 1.05.17.075.45.15.75.188l.695-2.964zm-61.418 71.344c-.544 1.144-2.402 5.18-2.908 6.192-.508 1.013.805 2.61 4.915.282-3.36 2.308-3.06 5.047-1.82 9.007 1.37 4.37 2.758 6.43 3.62 11.103 2.197-4.466 10.547-17.696 2.46-20.435 0 0 3.527-1.408 1.82-6.587.544-.11.976-.243 1.295-.374 4.203-1.746 2.59-5.29 1.163-5.8 0 0 1.427 2.87-2.026 4.3-2.214.92-9.72 1.52-12.16-.77-.92-.865-1.2-2.816-.356-4.86 0 0-.75.655-1.16 2.044-1.183 3.846 1.65 5.423 5.16 5.892zm12.272 81.526c-3.283.023-6.966.033-10.165.06.496 2.952 1.782 8.018 2.04 10.025.112.932-2.853.41-5.443.48-2.31.077-4.6.32-5.18.3-2.18-.092-.66-1.256.13-1.256.64 0 2.25-1.39 3.66-2.365 1.237-.844 2.307-1.257 2.363-1.65.068-.45-.697-3.716-1.126-5.496-.547.01-1.056.02-1.52.033-5.03.112-4.77.243-4.15-5.518.955-8.708 4.145-24.846 4.464-28.693.282-3.17.263-5.76.3-7.617h-.018s.037-18.22-.845-20.06c.134.36-3.732 10.04-6.36 10.867-2.61.827-5.91-7.693-7.486-13.06 0 0-1.2-.562-1.914-2.87-.712-2.29-1.65-4.035-.637-4.673 1.032-.638 3.17-1.99 3.584-.713.618 2.03 1.18 4 1.763 6.044.28 1.07-.6 1.408-.6 1.408.092.245.092.49.205.73.45 1.09.918 2.18 1.293 2.648 3.564 4.6 3.132 4.822 3.132 4.822s.488-3.135 2.252-8.22c1.744-5.104 5.535-5.14 5.535-5.14.374 3.657 2.74 8.443 3.81 11.97.655 2.14 1.01 5.8 2.287 7.675.17-2.966 5.91-10.94 6.887-15.22.45-1.97.49-4.465.49-4.465s6.325.43 7.28 3.584c2.12 7.11 3.08 16.1 3.17 23.57.116 8.386.06 7.917.06 7.917s.32.13.47 2.535c.13 2.403.637 4.336-.526 4.692-1.145.356-3.547 1.163-3.64-.17-.113-2.12-.188-4.166-.244-6.305-.02-1.087.9-.75.9-.75-.205-8.84-3.827-17.732-4.86-26.533-3.733 7.975-1.706 24.957-1.16 30.493h-.02c1.012 10.47 7.32 23.645 8.105 26.01 1.577 4.747 1.314 4.766-3.77 4.86l-.99.014c.523 2.886 2.077 8.066 2.34 10.12.112.936-2.834.41-5.442.485-2.308.076-4.58.32-5.18.3-2.176-.093-.637-1.257.15-1.257.62 0 2.253-1.39 3.64-2.366 1.24-.844 2.31-1.257 2.366-1.65.07-.464-.91-3.9-1.41-5.6zm-11.485-79.387c1.783-1.99 4.523-1.276 6.024-.206-.02.36-3.64 2.57-6.026.21zm2.346-17.996l-.562 3.04c-.413-.03-.807-.15-1.032-.37-.225-.206-.338-.675-.132-1.18-.372.32-.466 1.387-.11 1.763.245.26.676.394 1.146.47l-.377 2.044c-.564-.075-1.07-.244-1.39-.525-.412-.34-.79-.732-.43-1.614-.845.638-.827 2.064.037 2.665.41.28.974.43 1.575.524l-.394 2.158c-.844-.13-1.594-.372-2.045-.804-.544-.506-.863-1.463-.356-2.664 0 0-.49.377-.695 1.2-.563 2.067.957 2.967 2.908 3.305l-.242 1.24c-4.446.41-3.752 2.1 2.103 2.1 5.87 0 6.566-1.69 2.1-2.1l-.226-1.22c.845-.094 1.558-.263 1.933-.413 2.476-1.032 1.557-3.02.693-3.32 0 0 .885 1.462-1.16 2.307-.375.15-.957.28-1.67.376l-.394-2.136c.655-.075 1.2-.188 1.48-.3 1.82-.75 1.145-2.346.526-2.57 0 0 .544.993-.976 1.537-.262.095-.73.19-1.24.264l-.373-2.045c.394-.038.732-.113.9-.188 1.052-.433.676-1.578.32-1.71 0 0 .28.657-.582 1.014-.17.075-.45.13-.77.17l-.56-3.004zm-61.042 71.57c-.525 1.15-2.4 5.18-2.908 6.197-.508 1.013.825 2.59 4.915.28-3.36 2.31-3.058 5.03-1.82 8.99 1.39 4.372 2.76 6.455 3.64 11.108 2.196-4.466 10.546-17.676 2.46-20.416 0 0 3.526-1.427 1.82-6.588.524-.133.975-.264 1.294-.396 4.182-1.726 2.57-5.273 1.142-5.78 0 0 1.448 2.853-2.023 4.28-2.217.92-9.72 1.538-12.16-.75-.9-.865-1.184-2.835-.34-4.88 0 0-.75.675-1.183 2.045-1.163 3.846 1.65 5.44 5.16 5.91zm12.332 81.53c-3.285.023-6.97.03-10.168.054.497 2.946 1.783 8.028 2.04 10.034.11.938-2.834.394-5.442.488-2.308.076-4.597.32-5.18.28-2.176-.092-.637-1.236.15-1.236.62 0 2.253-1.41 3.66-2.366 1.22-.863 2.29-1.257 2.364-1.67.058-.433-.71-3.704-1.14-5.49l-1.5.03c-5.03.13-4.77.26-4.15-5.5.938-8.724 4.128-24.843 4.466-28.71.28-3.17.244-5.74.3-7.6l-.02-.02s.04-18.2-.843-20.06c.112.36-3.735 10.04-6.362 10.868-2.626.845-5.91-7.693-7.505-13.06 0 0-1.182-.544-1.895-2.852-.715-2.308-1.67-4.053-.64-4.69 1.032-.62 3.17-1.972 3.565-.714.638 2.026 1.2 4.015 1.764 6.06.3 1.05-.58 1.408-.58 1.408.09.244.09.488.203.732.432 1.067.92 2.175 1.276 2.625 3.585 4.598 3.154 4.824 3.154 4.824s.487-3.116 2.233-8.22c1.764-5.105 5.554-5.123 5.554-5.123.36 3.64 2.74 8.444 3.81 11.953.64 2.14 1.016 5.798 2.29 7.694.15-2.965 5.91-10.96 6.888-15.238.45-1.97.47-4.467.47-4.467s6.342.45 7.3 3.603c2.12 7.114 3.058 16.1 3.17 23.55.113 8.41.057 7.94.057 7.94s.32.114.45 2.515c.13 2.42.636 4.336-.51 4.71-1.162.358-3.564 1.146-3.64-.186-.112-2.102-.187-4.166-.243-6.286-.038-1.09.882-.77.882-.77-.19-8.82-3.83-17.713-4.86-26.533-3.717 7.993-1.69 24.957-1.165 30.493 1.016 10.47 7.32 23.663 8.11 26.028 1.575 4.728 1.294 4.747-3.773 4.86l-1.007.015c.526 2.9 2.076 8.07 2.338 10.12.133.937-2.832.393-5.44.487-2.29.076-4.58.32-5.16.28-2.178-.092-.658-1.236.13-1.236.64 0 2.25-1.406 3.66-2.363 1.238-.863 2.308-1.257 2.364-1.67.07-.45-.92-3.88-1.422-5.58zm-11.544-79.387c1.782-2.007 4.522-1.275 6.023-.205-.02.356-3.624 2.552-6.025.206zm2.42-17.994l-.58 3.02c-.414-.038-.808-.13-1.034-.357-.224-.21-.32-.678-.11-1.185-.395.32-.49 1.39-.133 1.745.26.283.693.414 1.162.47l-.393 2.046c-.564-.076-1.05-.226-1.39-.508-.413-.36-.788-.75-.413-1.634-.863.656-.844 2.082.02 2.664.412.282.975.45 1.594.544l-.413 2.158c-.844-.13-1.595-.394-2.045-.825-.543-.51-.862-1.447-.356-2.667 0 0-.47.396-.694 1.22-.566 2.047.973 2.967 2.906 3.286l-.226 1.256c-4.465.394-3.77 2.083 2.1 2.083 5.858 0 6.55-1.69 2.086-2.084l-.225-1.22c.846-.112 1.56-.263 1.935-.43 2.495-1.015 1.557-3.004.713-3.304 0 0 .864 1.443-1.18 2.29-.357.15-.957.3-1.65.39l-.415-2.14c.66-.073 1.203-.186 1.504-.317 1.8-.732 1.125-2.346.505-2.552 0 0 .56.996-.96 1.52-.28.114-.73.207-1.238.264l-.375-2.027c.393-.057.712-.113.88-.19 1.05-.43.676-1.594.32-1.706 0 0 .28.658-.582 1.014-.17.056-.43.132-.77.17l-.543-3.003zm-54.668 58.674c-.496 2.954-1.783 8.034-2.04 10.024-.112.94 2.853.413 5.442.507 2.307.057 4.597.3 5.18.283 2.175-.094.655-1.258-.133-1.258-.638 0-2.252-1.39-3.66-2.365-1.238-.844-2.307-1.256-2.363-1.65-.068-.434.707-3.712 1.142-5.495.56.01 1.082.02 1.56.034 5.01.112 4.766.262 4.128-5.518-.938-8.704-4.128-24.842-4.466-28.69-.282-3.17-.244-5.74-.3-7.62h.037s-.056-18.22.826-20.06c-.09.284 1.09 4.488 2.61 9.76 1.446 4.955 3.23 10.32 3.79 15.5.02.26-.036.49-.02.75 0 0-.935.095-.954 1.18-.02 2.14-.038 4.188 0 6.308.038 1.333 2.458.638 3.64.32 1.164-.32.732-2.27.695-4.673-.057-2.42-1.032-3.282-1.032-3.282-.02-9.42-.845-19.835-3.94-28.88-.77-2.25-2.76-3.377-5.35-3.79-1.876-.32-4.578-1.313-6.435-2.177-.054-.205-.335-1.537-.185-2.025.056-.225.62-.207 1.238-.132 2.122.226 1.69-.243 1.784-2.214.036-.73.054-2.327-.02-2.85 3.002 1.255 2.814-.696 2.345-1.65-.468-.96-1.2-3.53-1.725-4.676 3.51-.47 6.323-2.046 5.16-5.893-.432-1.39-1.182-2.045-1.182-2.045.844 2.047.58 3.998-.338 4.86-2.44 2.29-9.946 1.69-12.16.77-3.453-1.425-2.027-4.296-2.027-4.296-1.427.503-3.04 4.05 1.162 5.795.3.132.75.263 1.276.375-1.22 3.717 1.07 6.325 1.9 9.853.356 1.444.17 3.94.17 4.11-.49.17-.978.28-1.37.412-2.12.656-3.98 1.257-5.93 1.595-3.773.64-4.768 2.1-5.91 7.657-1.22 5.966-1.785 12.57-1.86 18.295-.113 8.405-.075 7.917-.075 7.917s-.32.13-.45 2.533c-.132 2.402-.64 4.334.525 4.69 1.144.376 3.546 1.164 3.62-.168.13-2.12.187-4.166.244-6.286.038-1.107-.88-.77-.88-.77.205-8.838 3.827-17.714 4.86-26.533 3.733 7.974 1.706 24.956 1.162 30.492-1.012 10.47-7.317 23.662-8.105 26.026-1.556 4.73-1.293 4.747 3.77 4.84.328.007.664.01 1.01.016-.522 2.89-2.076 8.084-2.34 10.12-.11.94 2.835.412 5.44.506 2.31.056 4.6.3 5.18.282 2.18-.096.64-1.26-.15-1.26-.62 0-2.25-1.388-3.64-2.364-1.24-.845-2.306-1.257-2.382-1.65-.055-.45.93-3.896 1.43-5.6 3.26.022 6.92.03 10.106.06zm-1.74-100.183l.432 3.06c.412-.02.806-.112 1.05-.32.225-.205.357-.674.17-1.18.374.337.412 1.406.037 1.763-.244.243-.695.374-1.164.412l.282 2.067c.58-.056 1.088-.19 1.426-.45.43-.34.81-.714.49-1.614.826.695.73 2.12-.15 2.665-.412.264-.994.395-1.594.47l.3 2.158c.844-.092 1.614-.3 2.083-.712.562-.49.92-1.426.47-2.646 0 0 .467.394.655 1.24.47 2.08-1.108 2.925-3.06 3.15l.17 1.26c4.447.6 3.678 2.25-2.177 2.006-5.855-.262-6.493-1.97-2.008-2.195l.28-1.2c-.847-.13-1.54-.32-1.916-.507-2.44-1.125-1.426-3.077-.563-3.34 0 0-.94 1.426 1.07 2.346.378.187.96.337 1.65.47l.49-2.12c-.64-.096-1.18-.246-1.48-.378-1.765-.825-1.014-2.402-.395-2.59 0 0-.6.976.9 1.577.282.113.714.225 1.22.32l.47-2.03c-.394-.055-.713-.13-.882-.224-1.03-.47-.62-1.615-.26-1.727 0 0-.3.656.56 1.05.15.075.43.15.75.206l.697-2.984zm-49.298 73.01c-.543 1.147-2.4 5.18-2.907 6.195-.507 1.013.807 2.59 4.916.28-3.36 2.31-3.06 5.03-1.82 8.99 1.37 4.39 2.74 6.455 3.62 11.127 2.19-4.48 10.54-17.69 2.46-20.43 0 0 3.522-1.426 1.82-6.586.54-.13.97-.262 1.29-.375 4.202-1.745 2.59-5.292 1.162-5.8 0 0 1.426 2.85-2.026 4.298-2.215.9-9.72 1.52-12.16-.77-.92-.863-1.2-2.833-.357-4.86 0 0-.75.657-1.163 2.027-1.18 3.867 1.653 5.443 5.16 5.91zm12.257 81.528c-3.277.023-6.954.03-10.148.054.49 2.948 1.78 8.03 2.033 10.036.113.938-2.852.413-5.46.488-2.29.076-4.58.32-5.16.28-2.177-.09-.657-1.236.13-1.236.64 0 2.252-1.408 3.66-2.365 1.238-.863 2.308-1.257 2.364-1.67.07-.433-.706-3.704-1.14-5.49l-1.506.03c-5.03.13-4.765.26-4.146-5.5.956-8.724 4.146-24.843 4.465-28.71.28-3.17.262-5.74.3-7.6l-.02-.02s.038-18.2-.844-20.06c.13.36-3.735 10.04-6.36 10.868-2.61.845-5.913-7.693-7.49-13.06 0 0-1.2-.544-1.913-2.852-.713-2.307-1.65-4.052-.638-4.672 1.03-.637 3.17-1.99 3.583-.712.62 2.027 1.18 3.997 1.744 6.043.3 1.05-.58 1.407-.58 1.407.09.245.09.49.204.733.45 1.07.92 2.176 1.295 2.626 3.566 4.596 3.134 4.822 3.134 4.822s.488-3.117 2.252-8.22c1.745-5.087 5.536-5.124 5.536-5.124.376 3.64 2.74 8.445 3.81 11.954.657 2.14 1.013 5.798 2.29 7.675.17-2.947 5.91-10.94 6.886-15.2.45-1.99.488-4.467.488-4.467s6.324.43 7.28 3.582c2.12 7.113 3.078 16.1 3.172 23.55.113 8.408.056 7.94.056 7.94s.32.113.45 2.533c.15 2.403.658 4.317-.506 4.693-1.145.355-3.565 1.143-3.64-.17-.113-2.12-.188-4.185-.244-6.305-.02-1.09.9-.75.9-.75-.206-8.84-3.828-17.733-4.878-26.553-3.716 7.994-1.69 24.958-1.145 30.512h-.02c1.014 10.452 7.32 23.643 8.108 26.01 1.576 4.727 1.313 4.764-3.772 4.86l-.988.013c.526 2.9 2.077 8.07 2.34 10.118.112.94-2.835.414-5.443.49-2.307.074-4.58.32-5.18.28-2.175-.093-.636-1.238.15-1.238.62 0 2.235-1.408 3.64-2.365 1.24-.863 2.31-1.257 2.367-1.67.07-.45-.92-3.88-1.422-5.58zM2142.4 210.24c1.782-2.008 4.522-1.276 6.023-.206-.02.356-3.64 2.552-6.024.206zm2.345-17.995l-.563 3.02c-.413-.037-.807-.13-1.032-.356-.225-.21-.338-.68-.13-1.188-.395.32-.47 1.39-.114 1.764.244.263.676.394 1.145.45l-.37 2.065c-.563-.093-1.07-.243-1.39-.525-.412-.34-.79-.75-.43-1.615-.845.64-.826 2.065.037 2.647.413.283.975.45 1.576.545l-.393 2.158c-.846-.13-1.596-.393-2.046-.806-.544-.525-.863-1.463-.356-2.664 0 0-.488.375-.694 1.2-.565 2.046.955 2.966 2.906 3.285l-.244 1.257c-4.466.394-3.753 2.083 2.102 2.083s6.568-1.69 2.102-2.083l-.226-1.22c.846-.112 1.54-.263 1.934-.43 2.477-1.015 1.558-3.004.695-3.304 0 0 .88 1.447-1.166 2.31-.375.15-.957.28-1.67.375l-.394-2.14c.657-.074 1.2-.187 1.482-.318 1.82-.732 1.145-2.345.526-2.552 0 0 .544.995-.976 1.54-.28.093-.732.186-1.238.243l-.376-2.027c.392-.038.73-.11.9-.188 1.05-.432.675-1.596.32-1.727 0 0 .28.676-.6 1.032-.153.073-.434.13-.753.17l-.563-3.005zm-710.29 92.98l5.966 1.014-7.312 20.79-5.968-1 7.32-20.81zm12.89 2.327l5.986.995-7.33 20.81-5.968-1.013 7.318-20.792zm13.117 2.308l5.986 1.014-7.337 20.81-5.96-1.013 7.317-20.81zm13.173 1.614l5.967.995-7.318 20.81-5.967-1.02 7.318-20.79zm12.554 1.99l6.02.73-6.38 21.112-6.008-.732 6.362-21.11zm12.74 1.294l6.02.732-6.38 21.11-6.025-.73 6.38-21.112zm13.88 1.276l6.044.47-5.443 21.373-6.042-.47 5.442-21.373zm14.263 1.2l6.042.45-5.424 21.375-6.06-.457 5.44-21.373zm14.374 1.183l6.042.47-5.424 21.373-6.04-.47 5.42-21.373zm13.886 1.2l6.042.47-.9 9.533-1.035-2.458-.562 1.126-.9-.976-.282 2.364-.843-1.67-.826-1.576-1.594 2.74.9-9.552zm3.246 13.793l-2.628 8.05-6.042-.468 3.003-8.858 1.595 1.952 1.2-.882.51-1.764.43 2.72 1.427-2.326.507 1.576zm-137.848-30.55l5.967 1.014-7.32 20.792-5.967-.995 7.32-20.81zm-14.656-2.345l5.986.995-7.337 20.81-5.968-1.013 7.318-20.792zm163.143 20.135l6.04.413-5.272 21.41-6.043-.412 5.276-21.41zm14.373 1.07l6.042.43-5.274 21.412-6.04-.43 5.272-21.412zm13.942 1.107l6.04.413-5.272 21.41-6.045-.412 5.272-21.41zm13.49.9l6.06.282-4.727 21.52-6.06-.265 4.727-21.543zm15.426.282l6.06.28-4.746 21.54-6.043-.28 4.73-21.54zm14.037.3l6.06.28-4.728 21.52-6.06-.26 4.727-21.545zm14.224.05l6.06.076-.467 9.926-1.09-.938-1.22 1.05-.73-1.558-.92.882-.81-1.597-1.275 2.046.45-9.89zm189.44 5.135l1.494-7.913-6.06-.075-4.093 21.673 6.063.076 2.596-13.76 8.553-1.64 1.2-6.367 6.06.074-.955 5.08 8.96-1.72-3.165 16.85 6.06.074 3.41-18.133 7.396-1.42.55-2.91 6.06.094-.3 1.607 10.04-1.926-3.62 21.75 6.06-.038 3.62-21.768-6.06.056-10.04 1.927-3.77 20.065-6.08-.093 3.54-18.765-7.397 1.42.664-3.544-6.06-.074-.907 4.827-8.96 1.72-3.118 16.592-6.06-.076 2.875-15.31-8.552 1.64zm-184.24 7.644l-3.248 8.97-6.06-.094 3.246-8.95.374.975.935-.28 1.2-.77.17 1.09.825.544 1.182-.62 1.37-.862zm7.92-12.93l6.06.094-4.11 21.673-6.06-.113 4.11-21.654zm14.315.676l6.064.095-4.11 21.675-6.06-.096 4.11-21.674zm14.32 0l6.06.095-4.11 21.675-6.06-.096 4.11-21.674zm14.32 0l6.06.095-4.11 21.675-6.06-.096 4.11-21.674zm14.992-1.35l6.06.094-4.11 21.657-6.06-.096 4.11-21.652zm13.324-.694l6.06.094-4.11 21.673-6.06-.094 4.11-21.675zm13.943 1.07l6.06.093-4.07 21.672-6.062-.095 4.073-21.675zm14.262-.02l6.08.076-4.09 21.67-6.062-.074 4.072-21.673zm14.336-.018l6.06.094-4.09 21.67-6.06-.093 4.09-21.67zm15.03-1.39l6.063.095-4.072 21.674-6.06-.094 4.07-21.67zm13.287-.693l6.06.076-4.09 21.674-6.06-.073 4.09-21.676zm15.293-.262l6.08.073-4.09 21.675-6.06-.074 4.073-21.673zm88.084-2.948l6.06-.056-3.62 21.767-6.062.04 3.622-21.75zm14.317-.338l6.06-.037-3.6 21.75-6.077.037 3.62-21.75zm14.264-.32l6.08-.036-3.622 21.747-6.06.038 3.603-21.75zm14.993-1.706l6.06-.04-3.62 21.75-6.062.037 3.622-21.748zm13.267-.977l6.06-.056-3.602 21.767-6.06.04 3.603-21.75zm12.29-1.07l6.08-.037-3.62 21.746-6.062.037 3.604-21.75zm13.286-.975l6.062-.056-3.603 21.767-6.08.037 3.62-21.75zm-609.81-13.135l.057-.02c.205-.017.45-.054.712-.073.243-.017.543-.017.9-.035 1.67-.02 4.203.112 6.81.45h.02c5.59.732 13.117 2.29 22.91 4.316 1.67.34 3.436.696 5.237 1.07h.02c2.457.508 5.63 1.11 9.457 1.765 3.888.676 8.335 1.39 13.27 2.158 25.708 3.98 66.184 9.16 111.633 12.8h.15c9.515.77 19.198 1.446 28.974 2.01 9.834.58 19.76 1.087 29.65 1.463 14.637.582 52.486 2.478 96.565.977 38.92-1.33 84.236-.9 127.696-3.36 20.98-1.18 42.24-.56 61.475-1.52 53.2-2.663 95.44-6.247 108.142-7.655l.15 1.39c-12.61 1.39-55.283 4.86-108.238 7.525-19.16.957-39.65.32-60.574 1.52-40.42 2.345-82.51 2.12-119.59 3.453-49.033 1.745-89.865-.3-105.684-.92-9.946-.394-19.872-.882-29.668-1.464-9.85-.58-19.554-1.26-29.01-2.01l-.15-.02c-45.45-3.64-85.964-8.82-111.728-12.795-5.083-.788-9.53-1.52-13.284-2.177-3.81-.657-7-1.24-9.513-1.765-1.82-.376-3.567-.732-5.256-1.07-9.776-2.027-17.263-3.566-22.818-4.297-2.554-.34-5.01-.45-6.626-.433-.3 0-.58.02-.844.04-.224 0-.43.036-.562.036l-.056.02-.226-1.37zm2.515 17.81h.02c.15-.02.36-.038.62-.094.246-.02.51-.06.828-.097 1.557-.15 3.96-.264 6.868-.04h.02c.96.076 2.01.188 3.116.3 1.07.114 2.232.264 3.452.433 6.21.824 13.866 2.194 22.273 3.92h.02c4.88.995 13.023 2.31 23.68 3.77 10.66 1.466 23.85 3.117 38.807 4.787 33.756 3.773 125.705 10.51 223.864 10.49 125.145-.036 260.384-7.92 298.045-12.853l.188 1.37c-39.745 5.236-187.05 13.493-317.466 13.193-90.54-.187-173.292-7.3-204.8-10.81-14.936-1.67-28.127-3.32-38.823-4.783-10.68-1.48-18.86-2.796-23.777-3.79h-.017c-8.37-1.708-15.988-3.078-22.18-3.92-1.164-.15-2.31-.3-3.416-.415-1.07-.113-2.102-.207-3.06-.3h-.036c-2.813-.207-5.12-.113-6.622.056-.28.02-.543.057-.77.076-.186.037-.393.056-.56.094h-.02l-.244-1.39zm-62.09-6.653c3.155-.022 6.73-.033 9.968-.057.082.6.285 1.89.67 3.26.6 2.14 1.557 4.507 1.5 4.845-.056.43-1.182.844-2.458 1.726-1.463 1.015-3.152 2.48-3.828 2.48-.808 0-2.403 1.2-.13 1.313.6.018 2.982-.244 5.384-.32 2.72-.075 6.25.47 6.118-.506-.206-1.67-2.44-6.155-3.283-9.608-.306-1.27-.188-2.42-.174-3.226l1.28-.02c5.294-.094 5.575-.113 3.924-5.067-.83-2.458-7.435-16.832-8.24-25.182-.81-8.35-2.666-23.474 1.22-31.806 1.09 9.194 4.86 18.464 5.083 27.677 0 0-.977-.334-.94.79.057 2.234.13 4.374.264 6.57.076 1.39 2.59.562 3.79.187 1.2-.376.677-2.384.527-4.9-.132-2.496-.47-2.627-.47-2.627s.057.49-.056-8.274c-.11-7.79-1.104-17.17-3.32-24.583-.993-3.285-7.6-3.754-7.6-3.754s-.036 2.61-.505 4.673c-1.013 4.464-7 12.78-7.168 15.873-1.332-1.97-1.707-5.797-2.383-8.01-1.125-3.68-3.602-8.67-3.977-12.48 0 0-3.96.037-5.78 5.35-1.84 5.31-2.345 8.573-2.345 8.573s.45-.226-3.285-5.03c-.376-.47-.882-1.632-1.333-2.74-.112-.262-.112-.525-.225-.77 0 0 .92-.374.62-1.462-.34-1.213-.677-2.403-1.023-3.592 4.09-.39 9.382-.952 15.248-1.73-.223 1.548.183 3.315.843 5.418 1.427 4.58 2.87 6.737 3.77 11.597 1.86-3.744 7.86-13.41 5.733-18.535 10.153-1.656 20.88-3.914 29.586-6.93.638 2.12 1.99 7.094 2.402 12.968-1.276-.017-4.916.32-7.506 4.355-2.157 3.365-1.857 6.92-1.47 8.79-.955.964-1.57 2.52-1.57 4.29 0 2.006.807 3.752 2.008 4.652 1.2-.9 2.027-2.646 2.027-4.653 0-1.903-.728-3.557-1.81-4.498-.123-1.7-.02-4.897 1.903-7.907 2.365-3.68 5.63-3.79 6.493-3.754.072 1.933.072 3.96-.115 5.986-.956.056-3.884.58-3.527 4.485.11 1.256.337 2.382.563 3.45.392 1.874.983 3.548.666 5.61-1.187.633-2.23 1.928-2.75 3.605-.6 1.913-.34 3.827.543 5.03 1.39-.49 2.7-1.916 3.302-3.85.537-1.71.383-3.422-.286-4.637.717-2.273.18-4.053-.22-6.02-.226-1.033-.45-2.12-.564-3.323-.225-2.514 1.65-3.32 3.415-3.096.115-.88.19-1.744.227-2.59.807.358 1.99 1.24 2.308 3.248.28 3.46-.545 5.876.985 9.073-.16 1.33.29 2.93 1.345 4.307 1.22 1.614 2.93 2.515 4.41 2.496.413-1.425.02-3.32-1.22-4.934-1.096-1.457-2.63-2.334-4.018-2.46-.524-1.763-.283-3.28-.166-4.84.077-1.238.17-2.477-.055-3.847-.507-3.02-2.553-4.07-3.528-4.41.055-2.55-.095-5.03-.377-7.32 1.482.863 4.353 2.795 5.404 5.216v.018c.357.825.714 1.707 1.07 2.627 1.08 2.698 2.415 5.67 3.838 7.53-.153 1.45.54 3.21 1.98 4.575 1.463 1.408 3.283 2.027 4.747 1.783.186-1.48-.51-3.283-1.97-4.67-1.16-1.13-2.58-1.754-3.85-1.82-1.27-1.75-2.45-5.11-3.547-7.864-.413-1.014-.788-1.97-1.088-2.665l-.02-.02c-.243-.58-.58-1.144-.975-1.67.3-.056.62-.094.92-.11.506-.02.994 0 1.5.092 2.048.373 4.26 1.58 5.694 3.286-.502 1.29-.41 3.023.387 4.67.865 1.82 2.347 3.06 3.81 3.34.695-1.315.677-3.248-.19-5.07-.802-1.697-2.162-2.89-3.53-3.27-1.447-2.09-3.54-3.775-5.943-4.216-.6-.112-1.2-.15-1.8-.112-.583.038-1.202.13-1.784.32-1.874-1.933-4.183-3.53-4.783-3.847-.6-4.128-1.596-7.13-2.084-8.763 1.633-.6 2.496-1.39 3.397-2.384 1.708-1.876 2.628-4.447 2.928-7.62-1.405 4.13-2.53 5.63-4.145 7.19-.806.77-1.463 1.2-2.364 1.575-.974-.71-1.78-.486-1.612.565-.546.188-.977.282-1.596.488-2.702.826-6.117 1.858-10.264 2.852-5.806 1.396-11.926 2.556-17.837 3.51-.57-.682-1.37-1.228-2.45-1.596 0 0 3.698-1.46 1.915-6.867.545-.13 1.014-.26 1.333-.393 4.39-1.82 2.703-5.517 1.22-6.042 0 0 1.483 2.983-2.12 4.485-2.31.956-10.133 1.594-12.685-.808-.957-.9-1.24-2.946-.357-5.067 0 0-.786.694-1.236 2.12-1.22 4.015 1.726 5.667 5.404 6.155-.564 1.2-2.515 5.404-3.04 6.474-.545 1.05.844 2.7 5.122.28-1.182.816-1.93 1.68-2.352 2.62-6.187.83-11.764 1.425-16 1.826-.147-.492-.297-.985-.45-1.48-.413-1.315-2.646.093-3.716.75-.393.237-.515.626-.474 1.14-2.247.184-3.54.267-3.56.267l.075 1.276c.02 0 1.394-.09 3.773-.285.23.72.553 1.56.842 2.48.73 2.4 1.987 2.986 1.987 2.986 1.63 5.592 5.084 14.487 7.824 13.623 2.72-.863 6.754-10.958 6.623-11.334.92 1.933.88 20.923.88 20.923l.018.017c-.058 1.933-.02 4.635-.3 7.938-.358 4.016-3.905 18.897-4.88 27.98-.657 6.005-.92 5.874 4.315 5.742.61-.013 1.29-.025 2.024-.034.365 1.653.78 3.1.732 3.336-.057.43-1.165.842-2.46 1.742-1.464.995-3.153 2.46-3.81 2.46-.825 0-2.42 1.218-.15 1.31.6.02 3.003-.223 5.386-.32 2.72-.072 5.817.49 5.686-.504-.17-1.383-1.165-4.86-1.837-8.063zm1.03-99.686l-.6 3.154c-.432-.037-.845-.15-1.07-.375-.244-.21-.357-.718-.132-1.24-.413.334-.506 1.44-.13 1.84.262.28.712.41 1.2.483l-.394 2.14c-.58-.094-1.107-.263-1.464-.545-.413-.375-.807-.788-.43-1.69-.883.677-.865 2.16.036 2.78.432.28 1.013.45 1.65.562l-.41 2.25c-.883-.15-1.67-.41-2.14-.863-.582-.523-.9-1.52-.376-2.775 0 0-.507.413-.732 1.257-.58 2.16 1.014 3.095 3.04 3.433l-.244 1.314c-4.652.414-3.92 2.177 2.197 2.177s6.83-1.763 2.176-2.195l-.225-1.256c.886-.113 1.618-.282 2.01-.432 2.59-1.088 1.616-3.152.73-3.47 0 0 .92 1.52-1.22 2.4-.37.17-1.01.3-1.722.395l-.413-2.215c.676-.075 1.24-.206 1.54-.337 1.875-.77 1.18-2.44.543-2.665 0-.02.582 1.034-1.013 1.597-.282.112-.75.205-1.295.28l-.395-2.14c.413-.036.75-.11.938-.186 1.11-.45.716-1.65.34-1.78 0 0 .28.694-.62 1.07-.17.056-.47.13-.79.168l-.58-3.133zm.35 18.47c1.38 0 2.5-1.01 2.5-1.01s-1.12-.983-2.5-.983-2.5.982-2.5.982 1.12 1.01 2.5 1.01zM1051.123 69.84c-.413-1.37-1.182-2.045-1.182-2.045.85 2.045.588 3.997-.332 4.86-2.44 2.308-9.945 1.69-12.16.77-3.47-1.427-2.026-4.298-2.026-4.298-1.426.526-3.04 4.054 1.163 5.8.3.13.75.26 1.277.374-1.71 5.18 1.82 6.59 1.82 6.59-8.07 2.76.26 15.97 2.476 20.438.863-4.654 2.233-6.737 3.62-11.11 1.24-3.96 1.54-6.68-1.82-9.006 4.092 2.326 5.424.75 4.917-.282-.505-.994-2.382-5.03-2.907-6.192 3.51-.47 6.324-2.046 5.16-5.893zm-17.436 87.427c3.283.025 6.97.03 10.17.056-.495 2.94-1.784 8.028-2.04 10.02-.114.94 2.832.413 5.44.507 2.31.075 4.598.3 5.18.282 2.177-.094.638-1.258-.15-1.258-.62 0-2.252-1.388-3.64-2.364-1.24-.844-2.31-1.257-2.384-1.65-.054-.435.715-3.712 1.146-5.495.54.01 1.05.02 1.513.033 5.01.113 4.766.263 4.128-5.517-.937-8.7-4.127-24.84-4.465-28.69-.28-3.17-.245-5.74-.3-7.62h.036s-.036-18.22.827-20.06c-.114.36 3.752 10.04 6.36 10.87 2.627.827 5.93-7.693 7.506-13.06 0 0 1.18-.562 1.913-2.852.712-2.308 1.65-4.053.62-4.69-1.034-.64-3.173-1.97-3.567-.714-.64 2.026-1.183 3.997-1.765 6.06-.28 1.05.58 1.408.58 1.408-.093.227-.093.47-.187.733-.45 1.07-.94 2.156-1.295 2.625-3.567 4.598-3.154 4.823-3.154 4.823s-.468-3.115-2.23-8.22c-1.747-5.103-5.538-5.14-5.538-5.14-.376 3.66-2.76 8.443-3.83 11.97-.637 2.14-1.012 5.8-2.27 7.676-.17-2.966-5.93-10.94-6.886-15.22-.45-1.97-.488-4.465-.488-4.465s-6.345.45-7.284 3.603c-2.14 7.093-3.076 16.08-3.17 23.55-.113 8.388-.075 7.918-.075 7.918s-.32.134-.45 2.536-.637 4.333.526 4.69c1.146.375 3.548 1.163 3.623-.17.13-2.1.185-4.165.242-6.285.038-1.09-.88-.77-.88-.77.206-8.836 3.83-17.712 4.86-26.53 3.734 7.973 1.707 24.955 1.163 30.49-.994 10.47-7.318 23.664-8.106 26.028-1.578 4.728-1.296 4.747 3.77 4.84.325.007.662.013 1.01.018-.524 2.9-2.08 8.08-2.34 10.116-.133.94 2.832.413 5.44.507 2.29.076 4.58.3 5.16.283 2.177-.095.657-1.26-.13-1.26-.64 0-2.253-1.387-3.66-2.363-1.24-.844-2.308-1.257-2.365-1.65-.07-.45.92-3.885 1.424-5.593zm5.464-79.602c1.507-1.05 4.247-1.782 6.03.207-2.383 2.364-6.005.17-6.024-.207zm3.66-17.77l.587 3.02c.413-.036.807-.15 1.032-.355.224-.226.32-.695.112-1.2.394.336.488 1.406.13 1.763-.262.262-.674.394-1.162.47l.394 2.044c.564-.075 1.05-.244 1.39-.507.412-.356.787-.75.43-1.632.843.657.825 2.083-.04 2.664-.41.282-.974.45-1.594.545l.413 2.14c.844-.132 1.594-.376 2.045-.808.544-.51.863-1.47.356-2.67 0 0 .47.375.694 1.22.563 2.044-.975 2.964-2.908 3.283l.225 1.238c4.468.414 3.774 2.103-2.1 2.103-5.854 0-6.55-1.69-2.083-2.102l.226-1.22c-.845-.092-1.558-.242-1.933-.41-2.48-1.03-1.56-3.003-.716-3.32 0 0-.864 1.463 1.18 2.31.357.15.957.28 1.65.373l.414-2.12c-.658-.076-1.2-.207-1.5-.32-1.804-.75-1.128-2.345-.51-2.57 0 0-.562.994.958 1.538.28.114.73.208 1.24.264l.392-2.045c-.413-.037-.732-.11-.9-.17-1.052-.43-.695-1.593-.32-1.725 0 0-.28.657.582 1.014.17.073.45.13.77.185l.543-3.002zm-47.89 43.018c.487 2.95 1.775 8.023 2.03 10.03.13.94-2.832.395-5.44.49-2.31.074-4.58.318-5.18.3-2.157-.095-.637-1.258.15-1.258.62 0 2.253-1.408 3.66-2.365 1.24-.844 2.29-1.257 2.365-1.67.054-.434-.714-3.705-1.145-5.49-.56.01-1.08.018-1.56.03-5.03.13-4.77.262-4.15-5.5.958-8.706 4.13-24.844 4.467-28.71.282-3.152.244-5.74.3-7.6l-.018-.018s.034-18.202-.848-20.04c.094.28-1.07 4.484-2.608 9.757-1.426 4.93-3.21 10.32-3.772 15.48-.037.28.038.502 0 .77 0 0 .957.09.957 1.18.04 2.12.055 4.18 0 6.302-.02 1.332-2.46.638-3.62.3-1.167-.32-.735-2.252-.698-4.673.038-2.4 1.032-3.265 1.032-3.265.02-9.44.826-19.854 3.94-28.88.77-2.252 2.76-3.378 5.33-3.81 1.896-.318 4.598-1.313 6.456-2.157.04-.226.34-1.54.19-2.028-.076-.244-.64-.206-1.24-.15-2.14.225-1.69-.225-1.782-2.214-.04-.733-.057-2.31 0-2.835-3.003 1.24-2.816-.712-2.328-1.65.47-.957 1.18-3.53 1.726-4.673-3.51-.47-6.344-2.045-5.16-5.89.41-1.39 1.162-2.047 1.162-2.047-.845 2.026-.563 3.997.356 4.86 2.44 2.29 9.944 1.67 12.16.77 3.45-1.446 2.024-4.298 2.024-4.298 1.427.506 3.04 4.052-1.163 5.78-.3.13-.75.26-1.295.393 1.24 3.714-1.05 6.304-1.895 9.832-.337 1.463-.17 3.96-.15 4.128.49.17.958.28 1.37.396 2.12.677 3.96 1.277 5.93 1.615 3.77.637 4.767 2.1 5.893 7.655 1.22 5.967 1.8 12.572 1.876 18.277.11 8.407.054 7.938.054 7.938s.338.13.45 2.514c.15 2.42.658 4.334-.506 4.71-1.146.356-3.547 1.144-3.64-.17-.114-2.12-.19-4.184-.245-6.305-.02-1.088.9-.75.9-.75-.206-8.84-3.828-17.733-4.878-26.553-3.72 7.994-1.69 24.958-1.167 30.493v.02c1.014 10.45 7.32 23.643 8.108 26.007 1.578 4.73 1.296 4.767-3.77 4.86-.32.006-.65.01-.993.015.516 2.902 2.08 8.07 2.343 10.12.114.937-2.85.393-5.46.487-2.29.072-4.58.32-5.16.3-2.177-.097-.64-1.26.13-1.26.64 0 2.253-1.408 3.66-2.365 1.24-.845 2.31-1.258 2.365-1.67.07-.45-.92-3.88-1.424-5.58-3.26.02-6.915.03-10.1.052zm1.75-100.176l-.43 3.058c-.432-.037-.807-.13-1.05-.32-.245-.205-.358-.674-.17-1.2-.375.357-.43 1.427-.056 1.783.263.244.695.357 1.183.413l-.3 2.07c-.563-.056-1.07-.206-1.408-.47-.43-.32-.826-.712-.49-1.594-.824.676-.75 2.103.15 2.647.414.26.996.413 1.597.47l-.3 2.176c-.864-.095-1.614-.32-2.084-.733-.58-.487-.94-1.407-.488-2.645 0 0-.45.413-.635 1.257-.47 2.063 1.106 2.91 3.057 3.152l-.186 1.256c-4.45.582-3.68 2.252 2.196 1.99 5.855-.245 6.474-1.97 1.99-2.178l-.264-1.2c.846-.15 1.54-.338 1.915-.507 2.42-1.124 1.407-3.076.562-3.34 0 0 .92 1.41-1.09 2.347-.356.17-.94.338-1.633.45l-.485-2.1c.64-.114 1.183-.245 1.464-.376 1.765-.827 1.033-2.403.414-2.59 0 0 .583.975-.9 1.575-.28.112-.73.224-1.24.3l-.45-2.008c.377-.057.715-.15.883-.226 1.034-.486.6-1.612.245-1.725 0 0 .3.658-.543 1.05-.17.058-.43.15-.75.19l-.694-2.965zm-.314 18.256c1.38 0 2.5-1.01 2.5-1.01s-1.12-.983-2.5-.983-2.5.982-2.5.982 1.12 1.01 2.5 1.01zM948.63 54.19c-.433-1.388-1.183-2.045-1.183-2.045.844 2.027.563 3.997-.357 4.86-2.44 2.308-9.945 1.69-12.16.77-3.452-1.427-2.007-4.298-2.007-4.298-1.445.526-3.04 4.054 1.144 5.8.32.13.75.26 1.295.374-1.707 5.18 1.82 6.59 1.82 6.59-8.087 2.74.263 15.97 2.46 20.438.88-4.673 2.25-6.737 3.62-11.11 1.24-3.96 1.558-6.68-1.8-9.006 4.09 2.326 5.422.75 4.915-.263-.525-1.033-2.383-5.068-2.927-6.21 3.528-.47 6.342-2.048 5.18-5.895zm-17.492 87.42c3.278.022 6.954.03 10.148.06-.496 2.954-1.78 8.033-2.02 10.023-.132.94 2.833.413 5.44.507 2.29.056 4.58.3 5.162.282 2.176-.094.656-1.258-.132-1.258-.62 0-2.252-1.388-3.66-2.364-1.237-.844-2.307-1.257-2.363-1.65-.068-.435.707-3.712 1.142-5.495.538.01 1.04.02 1.504.033 5.023.113 4.76.244 4.14-5.517-.956-8.7-4.13-24.84-4.484-28.69-.263-3.17-.225-5.74-.28-7.62h.017s-.038-18.22.844-20.06c-.13.36 3.735 10.04 6.362 10.87 2.607.827 5.91-7.693 7.486-13.06 0 0 1.202-.563 1.915-2.87.714-2.29 1.65-4.035.64-4.673-1.033-.638-3.17-1.99-3.585-.713-.62 2.026-1.184 3.997-1.766 6.06-.28 1.05.6 1.408.6 1.408-.113.226-.113.47-.207.714-.45 1.09-.94 2.178-1.298 2.647-3.565 4.6-3.133 4.824-3.133 4.824s-.488-3.136-2.25-8.22c-1.747-5.105-5.538-5.143-5.538-5.143-.376 3.66-2.74 8.445-3.81 11.973-.657 2.12-1.014 5.8-2.29 7.673-.168-2.965-5.91-10.94-6.886-15.218-.45-1.97-.49-4.466-.49-4.466s-6.324.45-7.28 3.603c-2.12 7.093-3.08 16.08-3.172 23.55-.113 8.406-.057 7.92-.057 7.92s-.317.13-.45 2.532c-.15 2.402-.655 4.334.51 4.69 1.143.376 3.545 1.164 3.62-.168.132-2.12.207-4.185.263-6.286.02-1.106-.9-.77-.9-.77.205-8.837 3.826-17.713 4.877-26.532 3.72 7.973 1.69 24.936 1.167 30.49-1.014 10.47-7.32 23.664-8.107 26.028-1.577 4.728-1.296 4.747 3.77 4.84.32.006.65.01.995.015-.514 2.89-2.082 8.083-2.345 10.12-.114.94 2.85.412 5.44.506 2.31.056 4.598.3 5.18.282 2.177-.095.638-1.26-.13-1.26-.64 0-2.253-1.387-3.66-2.363-1.24-.844-2.31-1.257-2.365-1.65-.07-.45.92-3.896 1.424-5.6zm5.52-79.595c1.5-1.07 4.24-1.782 6.023.207-2.4 2.364-6.02.15-6.02-.207zm3.602-17.79l.563 3.04c.43-.036.807-.15 1.032-.355.244-.226.338-.695.13-1.2.395.336.47 1.387.114 1.762-.25.263-.68.413-1.15.47l.393 2.045c.544-.075 1.05-.244 1.39-.507.393-.356.768-.75.412-1.632.862.638.824 2.083-.04 2.664-.412.282-.975.45-1.575.545l.395 2.14c.843-.133 1.594-.376 2.044-.808.544-.51.863-1.47.375-2.67 0 0 .47.393.695 1.22.545 2.044-.975 2.964-2.926 3.283l.244 1.238c4.464.414 3.77 2.103-2.104 2.103-5.855 0-6.568-1.69-2.102-2.102l.244-1.22c-.864-.092-1.558-.242-1.95-.41-2.48-1.03-1.54-3.02-.697-3.32 0 0-.88 1.463 1.163 2.31.375.15.976.28 1.67.373l.394-2.14c-.638-.056-1.2-.187-1.483-.3-1.8-.75-1.123-2.345-.504-2.57 0 0-.562.994.958 1.538.28.114.733.208 1.24.264l.376-2.045c-.394-.037-.732-.11-.9-.187-1.052-.432-.677-1.576-.32-1.708 0 0-.282.657.6 1.032.17.057.432.113.75.17l.564-3.022zm-44.923-33.42c-.413-1.39-1.164-2.045-1.164-2.045.845 2.027.563 3.997-.356 4.86-2.44 2.29-9.946 1.67-12.16.77-3.453-1.445-2.008-4.297-2.008-4.297-1.45.506-3.06 4.053 1.14 5.798.3.12.75.25 1.294.38-1.71 5.18 1.8 6.588 1.8 6.588-8.07 2.74.28 15.95 2.477 20.435.883-4.673 2.253-6.737 3.623-11.13 1.237-3.96 1.537-6.68-1.803-8.986 4.09 2.308 5.405.732 4.9-.282-.507-1.01-2.383-5.045-2.91-6.19 3.51-.47 6.344-2.046 5.162-5.892zM877.9 98.225c3.285.023 6.97.03 10.17.054-.496 2.95-1.784 8.02-2.04 10.03-.113.94 2.833.41 5.44.49 2.31.07 4.598.315 5.18.3 2.177-.098.638-1.26-.15-1.26-.62 0-2.252-1.41-3.64-2.366-1.24-.863-2.308-1.257-2.384-1.67-.054-.434.714-3.705 1.145-5.49l1.52.03c5.01.13 4.77.262 4.13-5.5-.94-8.706-4.13-24.844-4.462-28.69-.47-5.367-.037-9.045-.656-10.453.037 0-2.346.208-3.603-.58-3.06.73-8.408 1.126-9.59 1.276 0 0 .17 2.477-1.257 12.91-1.427 10.415-7.32 23.644-8.107 26.008-1.575 4.73-1.294 4.767 3.773 4.86l1.007.016c-.523 2.89-2.077 8.07-2.34 10.12-.13.94 2.834.415 5.442.49 2.29.075 4.58.32 5.16.3 2.176-.094.656-1.257-.13-1.257-.64 0-2.253-1.407-3.66-2.364-1.24-.865-2.31-1.26-2.365-1.67-.07-.45.92-3.88 1.426-5.58zm5.465-79.593c1.5-1.07 4.24-1.8 6.023.21-2.383 2.363-6.005.15-6.023-.207zm-4.73 27.944c.75-4.035-.468-7.975-2.1-9.758 0 0-1.09 9.14-2.046 10.884 0 0 5.72.524 8.232.674 2.29.15 3.828.038 6.154-.15 0 0-.45-.28.657-.375 2.102-.17 4.166-.32 6.286-.43 1.314-.057.79 2.42.545 3.602-.246 1.18-2.198.88-4.6 1.01-2.42.134-2.57-.185-2.57-.185s.47 0-7.9.788c-8.35.788-12.31-.32-12.46-1.895-.17-1.577 2.064-15.707 3.002-18.878.957-3.155 7.28-3.586 7.28-3.586s.038 2.477.49 4.466c1.124 4.955 4.408 8.69 4.99 14.11-.713 0-1.39 0-1.99-.035-3.452-.188-3.977-.244-3.977-.244zm13.962-18.26s3.79.04 5.536 5.124c1.763 5.104 2.25 8.22 2.25 8.22s-.43-.207 3.135-4.823c.357-.45.845-1.558 1.295-2.627.112-.244.112-.488.206-.732 0 0-.888-.357-.6-1.408.58-2.045 1.14-4.015 1.76-6.042.41-1.276 2.55.075 3.582.713s.075 2.385-.638 4.675c-.714 2.31-1.915 2.87-1.915 2.87-1.576 5.368-4.88 13.888-7.487 13.06-2.628-.842-6.493-10.506-6.362-10.863-.88 1.84-1.106 9.814-1.106 9.814s-2.403.283-5.03.45c.17-3.02.845-5.027 1.65-7.71 1.07-3.53 3.342-7.075 3.717-10.716zM887.024.844l.563 3.04c.43-.058.825-.15 1.05-.358.226-.225.32-.695.113-1.2.394.318.488 1.387.13 1.763-.26.26-.674.39-1.162.45l.394 2.06c.544-.095 1.05-.245 1.39-.526.412-.338.787-.75.43-1.614.845.64.807 2.065-.056 2.647-.413.28-.957.45-1.576.542l.413 2.156c.844-.13 1.595-.373 2.045-.805.544-.524.863-1.462.356-2.663 0 0 .47.376.695 1.2.56 2.066-.98 2.966-2.91 3.285l.22 1.258c4.466.395 3.772 2.084-2.1 2.084-5.856 0-6.55-1.69-2.084-2.083l.225-1.22c-.843-.092-1.557-.26-1.932-.41-2.478-1.033-1.558-3.02-.714-3.32 0 0-.864 1.443 1.18 2.306.358.15.958.28 1.653.375l.41-2.136c-.655-.075-1.2-.188-1.5-.3-1.8-.75-1.126-2.346-.506-2.57 0 0-.564.993.956 1.538.28.095.73.19 1.237.264l.395-2.045c-.413-.036-.732-.11-.9-.186-1.05-.432-.695-1.577-.32-1.708 0 0-.28.656.582 1.013.17.073.45.13.77.17l.543-3.006zm-40.25 96.676c-.414-1.39-1.165-2.047-1.165-2.047.84 2.027.56 3.997-.36 4.86-2.44 2.29-9.948 1.67-12.16.77-3.455-1.445-2.028-4.297-2.028-4.297-1.427.506-3.04 4.053 1.163 5.798.3.113.75.244 1.275.375-1.707 5.16 1.82 6.58 1.82 6.58-8.07 2.74.283 15.95 2.478 20.436.88-4.67 2.232-6.737 3.62-11.128 1.24-3.96 1.54-6.68-1.82-9.008 4.11 2.327 5.424.75 4.917-.263-.506-1.014-2.382-5.048-2.907-6.193 3.51-.467 6.343-2.062 5.16-5.89zm-17.436 87.417c3.282.023 6.965.03 10.167.054-.496 2.95-1.783 8.03-2.04 10.037-.112.938 2.834.413 5.442.488 2.308.076 4.58.32 5.18.28 2.157-.073.637-1.236-.15-1.236-.62 0-2.252-1.41-3.64-2.366-1.24-.863-2.31-1.257-2.365-1.67-.068-.433.696-3.704 1.126-5.49l1.52.03c5.01.13 4.747.26 4.128-5.5-.94-8.724-4.13-24.843-4.466-28.71-.47-5.366-.038-9.025-.657-10.432.037 0-2.346.188-3.603-.58-3.06.73-8.426 1.125-9.59 1.275h.02s.15 2.478-1.276 12.91c-1.426 10.416-7.32 23.645-8.107 26.01-1.576 4.728-1.294 4.766 3.772 4.86l1 .015c-.526 2.9-2.076 8.07-2.338 10.117-.132.937 2.833.412 5.442.487 2.307.076 4.577.32 5.16.28 2.176-.092.656-1.236-.132-1.236-.62 0-2.252-1.41-3.66-2.366-1.238-.864-2.29-1.258-2.364-1.67-.07-.45.92-3.88 1.424-5.58zm5.463-79.593c1.507-1.07 4.247-1.802 6.03.206-2.384 2.365-6.005.15-6.024-.206zm-4.723 27.94c.75-4.034-.45-7.974-2.102-9.757 0 0-1.087 9.14-2.025 10.884 0 0 5.703.53 8.22.68 2.287.15 3.826.04 6.153-.15 0 0-.432-.28.657-.374 2.12-.168 4.164-.318 6.285-.43 1.333-.057.79 2.42.564 3.602-.247 1.182-2.218.882-4.62 1.014-2.4.13-2.57-.19-2.57-.19s.49 0-7.88.79-12.328-.32-12.478-1.895c-.17-1.575 2.063-15.724 3-18.877.957-3.152 7.3-3.584 7.3-3.584s.037 2.476.47 4.465c1.125 4.954 4.427 8.688 4.99 14.11-.713 0-1.388 0-1.99-.036-3.433-.19-3.977-.244-3.977-.244zm13.96-18.257s3.792.037 5.556 5.122c1.745 5.1 2.233 8.22 2.233 8.22s-.43-.21 3.153-4.83c.356-.45.844-1.557 1.275-2.626.114-.245.114-.49.208-.733 0 0-.882-.356-.582-1.406.564-2.046 1.127-4.016 1.765-6.043.393-1.275 2.532.076 3.564.714s.074 2.383-.64 4.673c-.712 2.31-1.894 2.87-1.894 2.87-1.574 5.37-4.88 13.887-7.504 13.043-2.627-.825-6.474-10.51-6.36-10.864-.883 1.856-1.11 9.83-1.11 9.83s-2.382.283-5.03.45c.19-3.02.866-5.027 1.67-7.71 1.05-3.527 3.324-7.074 3.7-10.714zm-5.572-27.472l.564 3.02c.43-.037.806-.13 1.03-.356.244-.21.338-.68.13-1.188.395.32.49 1.39.133 1.764-.263.263-.695.394-1.164.45l.393 2.064c.562-.092 1.05-.242 1.39-.524.41-.34.786-.75.41-1.615.864.64.826 2.066-.037 2.648-.394.283-.957.45-1.576.545l.41 2.158c.844-.13 1.576-.392 2.045-.805.544-.525.863-1.463.357-2.664 0 0 .47.376.697 1.2.56 2.047-.978 2.967-2.91 3.286l.225 1.257c4.466.394 3.77 2.083-2.102 2.083-5.854 0-6.55-1.69-2.082-2.083l.226-1.22c-.844-.112-1.557-.263-1.933-.43-2.496-1.015-1.558-3.004-.714-3.304 0 0-.863 1.446 1.183 2.31.355.15.956.28 1.65.374l.413-2.14c-.657-.074-1.2-.187-1.5-.318-1.803-.732-1.127-2.346-.508-2.552 0 0-.565.995.955 1.54.28.093.733.186 1.24.243l.375-2.027c-.375-.037-.712-.11-.9-.188-1.05-.43-.676-1.595-.32-1.726 0 0-.262.676.6 1.032.17.073.45.13.77.17l.545-3.005z" fill="#141311"/></g></svg>