<svg width="120" height="136" viewBox="0 0 120 136" xmlns="http://www.w3.org/2000/svg"><title>plansza</title><desc>Created with Sketch.</desc><g fill="none" fill-rule="evenodd"><path fill="#D6AA87" d="M0 0h120v135H0z"/><path d="M113.1 48.3C96 48.3 82.4 53.2 72.5 63c-1.4 1.4-2.7 2.9-3.9 4.4 13.7 4.2 23.7 17 23.7 32.1 0 18.6-15.1 33.6-33.6 33.6S25 118.1 25 99.5c0-15.1 10-27.9 23.7-32.1-1.6-3.5-3.5-6.4-5.8-8.6-7.2-7-18.5-10.5-33.9-10.5-3.1 0-6.1.2-9 .5v86.4h120V48.7c-2.3-.3-4.6-.4-6.9-.4z" fill="#A07A58"/><path d="M16.1 45.2c0-.1-.1-.1-.1-.1v.3c-.1.1-.5.1-.6 0-.2-.1-.1-.2-.1-.2-.1 0-.2.2.1.3h.1c-.1.3.1.4.1.4-.4.1 0 .9.1 1.1 0-.2.1-.4.2-.6.1-.2.1-.4-.1-.5.2.1.3 0 .3 0 0-.1-.1-.3-.2-.3.1-.1.3-.2.2-.4zm-.6.4c.1-.1.2-.1.3 0-.2.2-.3.1-.3 0zm-.3 2s0 .1-.1.7-.4 1.3-.4 1.4c-.1.3-.1.3.2.3H16c.3 0 .3 0 .2-.3-.1-.5-.2-1.3-.2-1.5v-.6h-.2c-.2-.1-.5-.1-.6 0zm0-.5c0-.2 0-.4-.1-.5 0 0-.1.5-.1.6h1c.1 0 0 .1 0 .2s-.1 0-.2.1h-.5c-.4 0-.7 0-.7-.1s.1-.8.2-1c.1-.2.4-.2.4-.2v.2c.1.3.2.5.3.8h-.1l-.2-.1zm.7-.9s.2 0 .3.3c.1.3.1.4.1.4l.2-.3s0-.1.1-.1v-.1c0-.1.1-.2.1-.3 0-.1.1 0 .2 0s0 .1 0 .2-.1.2-.1.2c-.1.3-.3.7-.4.7-.1 0-.3-.6-.3-.6 0 .1-.1.5-.1.5h-.3c0-.2 0-.3.1-.4 0-.2.1-.3.1-.5zm-.2 3.6c0 .1-.1.5-.1.6 0 .1.2 0 .3 0h.3c.1 0 0-.1 0-.1s-.1-.1-.2-.1-.1-.1-.1-.1l.1-.4-.3.1zm-.1-5.1v.2h.1c0-.1.1-.1-.1-.2.1.1.1.2.1.2h-.1v.1h.1v-.1.1h-.1v.1h.1V45v.1c0 .1-.1.2-.2.2v.1c.2 0 .2.1-.1.1-.3 0-.3-.1-.1-.1v-.1h-.1c-.1-.1-.1-.2 0-.2 0 0 0 .1.1.1h.1v-.1h-.1c-.1 0-.1-.1 0-.1 0 0 0 .1.1.1h.1V45c-.1 0 0-.1 0-.1v.1l.1-.3zm-.6 5.1c0 .1-.1.5-.1.6 0 .1.2 0 .3 0h.3c.1 0 0-.1 0-.1s-.1-.1-.2-.1-.1-.1-.1-.1l.1-.3H15zm3.9-2.3c0-.1-.1-.1-.1-.1v.3c-.1.1-.5.1-.6 0-.2-.1-.1-.2-.1-.2-.1 0-.2.2.1.3h.1c-.1.3.1.4.1.4-.4.1 0 .9.1 1.1 0-.2.1-.4.2-.6.1-.2.1-.4-.1-.5.2.1.3 0 .3 0 0-.1-.1-.3-.2-.3.1-.1.3-.2.2-.4zm-.6.5c.1-.1.2-.1.3 0-.1.1-.3 0-.3 0zm-.3 2.6c-.1.6-.4 1.3-.4 1.4-.1.3-.1.3.2.3h1.1c.3 0 .3 0 .2-.3-.1-.5-.2-1.3-.2-1.5V49s.2.5.3.6c.1 0 .3-.4.4-.7 0 0 .1 0 .1-.2 0-.1.1-.2 0-.2s-.2-.1-.2 0-.1.2-.1.3v.1c0 .1 0 .1-.1.1-.2.2-.2.3-.2.3s0-.2-.1-.4c-.1-.3-.3-.3-.3-.3 0 .2-.1.4-.2.6 0 .1-.1.3-.1.4 0-.2-.3-.6-.4-.8v-.2s-.3 0-.4.2c-.1.4-.2.9-.2 1.3v.8c.1 0 .2.1.2 0v-.3c0-.1 0 0 0 0 0-.5.2-.9.3-1.4.2.2.1 1.1.1 1.4zm.5 1.5c0 .1-.1.5-.1.6 0 .1.2 0 .3 0h.3c.1 0 0-.1 0-.1s-.1-.1-.2-.1-.1-.1-.1-.1l.1-.4-.3.1zm0-5.1v.2h.1c0-.1 0-.1-.1-.2.1.1.1.2.1.2h-.1v.1h.1v-.1.1h-.1v.1h.1v-.1.1c0 .1-.1.2-.2.2v.1c.2 0 .2.1-.1.1-.3 0-.3-.1-.1-.1v-.1h-.1c-.1-.1-.1-.2 0-.2 0 0 0 .1.1.1h.1v-.1h-.1c-.1 0-.1-.1 0-.1 0 0 0 .1.1.1h.1v-.1c-.1 0 0-.1 0-.1v.1l.1-.3zm-.7 5.1c0 .1-.1.5-.1.6 0 .1.2 0 .3 0h.3c.1 0 0-.1 0-.1s-.1-.1-.2-.1-.1-.1-.1-.1l.1-.3h-.3zm4.4-3.8v.3c0 .1.1 0 .2 0s0-.1 0-.3v-.5c0-.3 0-.7-.1-1-.1-.3-.1-.4-.3-.4-.1 0-.2 0-.3-.1h-.1v-.2c0-.2.2-.3.1-.5h.1c.2-.1.1-.3.1-.3s.1.2-.1.2c-.1 0-.5.1-.6 0 0 0-.1-.2 0-.3l-.1.1c-.1.2.1.3.3.3 0 .1-.1.2-.1.2 0 .1 0 .2.1.1v.2c0 .1 0 .1.1.1h.1v.1c-.1 0-.2.1-.3.1-.1 0-.2.1-.3.2-.2.5-.2 1-.2 1.5 0 0-.1 0-.1.2v.2c.1 0 .2.1.2 0v-.3c0-.1-.1-.1-.1-.1 0-.3.1-.6.2-.8.1-.3.1-.5.1-.5v1.5c0 .2-.2 1.1-.2 1.5 0 .3 0 .3.2.3h1.1c.3 0 .3 0 .2-.3 0-.1-.4-.8-.4-1.4 0-.3-.1-1.2.1-1.6 0 .5.2 1 .1 1.5zm-.9-2.5c.1-.1.2-.1.3 0 .1 0-.1.1-.3 0zm.1 4.3c0 .1.1.5.1.6 0 .1-.2 0-.3 0h-.3c-.1 0 0-.1 0-.1s.1-.1.2-.1.1-.1.1-.1l-.1-.4.3.1zm.1-5.3v.2h-.1c0-.1 0-.1.1-.2-.1.1-.1.2-.1.2h.1v.1h-.1V45v.1h.1v.1h-.1v-.1.1c0 .1.1.2.2.2v.1c-.2 0-.2.1.1.1.3 0 .3-.1.1-.1v-.1h.1c.1-.1.1-.2 0-.2 0 0 0 .1-.1.1h-.1v-.1h.1c.1 0 .1-.1 0-.1v.1h-.1v-.1c.1 0 0-.1 0-.1v.1l-.2-.3zm.6 5.3c0 .1.1.5.1.6 0 .1-.2 0-.3 0h-.3c-.1 0 0-.1 0-.1s.1-.1.2-.1.1-.1.1-.1l-.1-.3h.3zm2.3-1.7c0-.1-.1-.1-.1-.1v.3c-.1.1-.5.1-.6 0-.2-.1-.1-.2-.1-.2-.1 0-.2.2.1.3h.1c-.1.3.1.4.1.4-.4.1 0 .9.1 1.1 0-.2.1-.4.2-.6.1-.2.1-.4-.1-.5.2.1.3 0 .3 0 0-.1-.1-.3-.2-.3.1-.1.3-.2.2-.4zm-.6.4c.1-.1.2-.1.3 0-.2.1-.3 0-.3 0zm-.3 2.6c-.1.6-.4 1.3-.4 1.4-.2.2-.1.2.1.2h1.1c.3 0 .3 0 .2-.3-.1-.5-.2-1.3-.2-1.5v-1.5s.2.5.3.6c.1.1.3-.4.4-.7 0 0 .1 0 .1-.2 0-.1.1-.2 0-.2s-.2-.1-.2 0-.1.2-.1.3v.1c0 .1 0 .1-.1.1-.1.3 0 .3 0 .3s0-.2-.1-.4c-.1-.3-.3-.3-.3-.3 0 .2-.1.5-.2.6 0 .1-.1.3-.1.4 0-.2-.3-.6-.4-.8v-.2s-.3 0-.4.2c-.2.4-.2.9-.2 1.3v.8c.1 0 .2.1.2 0v-.3c0-.1 0 0 0 0 0-.5.2-.9.3-1.4.1.3 0 1.2 0 1.5zM24 53c0 .1-.1.5-.1.6 0 .1.2 0 .3 0h.3c.1 0 0-.1 0-.1s-.1-.1-.2-.1-.1-.1-.1-.1l.1-.4-.3.1zm0-5.2v.2h.1c-.1 0 0-.1-.1-.2.1.1.1.2.1.2H24v.1h.1V48v.1H24v.1h.1v-.1.1c0 .1-.1.2-.2.2v.1c.2 0 .2.1-.1.1-.3 0-.3-.1-.1-.1v-.1h-.1c-.1-.1-.1-.2 0-.2 0 0 0 .1.1.1h.1v-.1h-.1c-.1 0-.1-.1 0-.1 0 0 0 .1.1.1h.1v-.1c-.1 0 0-.1 0-.1v.1l.1-.3zm-.7 5.2c0 .1-.1.5-.1.6 0 .1.2 0 .3 0h.3c.1 0 0-.1 0-.1s-.1-.1-.2-.1-.1-.1-.1-.1l.1-.3h-.3zM88 54.9c0 .1-.1.3-.2.3 0 .1 0 .1.3 0-.2.1-.2.3-.1.5s.1.3.2.6c.1-.2.6-.9.1-1.1 0 0 .2-.1.1-.4h.1c.2-.1.1-.3.1-.3s.1.2-.1.2c-.1 0-.5.1-.6 0 0 0-.1-.2 0-.3l-.1.1c-.2.3 0 .4.2.4zm0 .1c.1-.1.2-.1.3 0 0 0-.2.1-.3 0zm.6 2.6c.1.6.4 1.3.4 1.4.1.3.1.3-.2.3h-1.1c-.3 0-.3 0-.2-.3.1-.5.2-1.3.2-1.5V56s-.2.5-.3.6c-.1 0-.3-.4-.4-.7 0 0-.1 0-.1-.2 0-.1-.1-.2 0-.2s.2-.1.2 0 .1.2.1.3v.1c0 .1 0 .1.1.1.2.2.2.3.2.3s0-.2.1-.4c.1-.3.3-.3.3-.3 0 .2.1.4.2.6 0 .1.1.3.1.4 0-.2.3-.6.4-.8v-.2s.3 0 .4.2c.1.4.2.9.2 1.3v.8c-.1 0-.2.1-.2 0v-.3c0-.1 0 0 0 0 0-.5-.2-.9-.3-1.4-.2.2-.1 1.1-.1 1.4zm-.5 1.6c0 .1.1.5.1.6 0 .1-.2 0-.3 0h-.3c-.1 0 0-.1 0-.1s.1-.1.2-.1.1-.1.1-.1l-.1-.4.3.1zm0-5.1v.2H88c0-.1 0-.1.1-.2l-.1.1h.1v.1H88v-.1.1h.1v.1H88v-.1.1c0 .1.1.2.2.2v.1c-.2 0-.2.1.1.1.3 0 .3-.1.1-.1v-.1h.1c.1-.1.1-.2 0-.2 0 0 0 .1-.1.1h-.1v-.1h.1c.1 0 .1-.1 0-.1 0 0 0 .1-.1.1h-.1v-.1c.1 0 0-.1 0-.1v.1l-.1-.2zm.7 5.1c0 .1.1.5.1.6 0 .1-.2 0-.3 0h-.3c-.1 0 0-.1 0-.1s.1-.1.2-.1.1-.1.1-.1l-.1-.3h.3zm-4.4-3.9c0-.5.2-.9.3-1.4.2.4.1 1.3.1 1.6-.1.6-.4 1.3-.4 1.4-.1.3-.1.3.2.3h1.1c.3 0 .3 0 .2-.3-.1-.5-.2-1.3-.2-1.5v-1.5s.1.2.1.5c.1.3.2.6.2.8 0 0-.1 0-.1.1v.3c0 .1.1 0 .2 0s0-.1 0-.2-.1-.2-.1-.2c0-.5 0-1.1-.2-1.5 0-.1-.1-.2-.3-.2-.1 0-.2-.1-.3-.1v-.1h.1c.1 0 .1 0 .1-.1V53c.2.1.2 0 .1-.1 0-.1-.1-.2-.1-.2.2 0 .3-.1.3-.3 0-.1-.1-.1-.1-.1v.3c-.1.1-.5.1-.6 0-.2-.1-.1-.2-.1-.2-.1 0-.2.2.1.3h.1c-.1.2.1.3.1.5v.2h-.1c-.1 0-.2.1-.3.1-.2 0-.3.1-.3.4-.1.3-.1.7-.1 1v.8c.1 0 .2.1.2 0-.2-.1-.2-.2-.2-.4zm.6-2.5c.1-.1.2-.1.3 0-.1.1-.3 0-.3 0zm.2 4.3c0 .1-.1.5-.1.6 0 .1.2 0 .3 0h.3c.1 0 0-.1 0-.1s-.1-.1-.2-.1-.1-.1-.1-.1l.1-.4-.3.1zm-.1-5.2v.2h.1c0-.1 0-.1-.1-.2.1.1.1.2.1.2h-.1v.1h.1v-.1.1h-.1v.1h.1v-.1.1c0 .1-.1.2-.2.2v.1c.2 0 .2.1-.1.1-.3 0-.3-.1-.1-.1v-.1h-.1c-.1-.1-.1-.2 0-.2 0 0 0 .1.1.1h.1v-.1h-.1c-.1 0-.1-.1 0-.1v.1h.1v-.1c-.1 0 0-.1 0-.1v.1l.2-.3zm-.6 5.2c0 .1-.1.5-.1.6 0 .1.2 0 .3 0h.3c.1 0 0-.1 0-.1s-.1-.1-.2-.1-.1-.1-.1-.1l.1-.3h-.3zm-2-1.4c0 .1-.1.3-.2.3 0 .1 0 .1.3 0-.2.1-.2.3-.1.5s.1.3.2.6c.1-.2.6-.9.1-1.1 0 0 .2-.1.1-.4h.1c.2-.1.1-.3.1-.3s.1.2-.1.2c-.1 0-.5.1-.6 0 0 0-.1-.2 0-.3l-.1.1c-.1.3 0 .4.2.4zm0 .2c.1-.1.2-.1.3 0 .1 0-.1.1-.3 0zm.7 2.5c.1.6.4 1.3.4 1.4.1.3.1.3-.2.3h-1.1c-.3 0-.3 0-.2-.3.1-.5.2-1.3.2-1.5v-1.5s-.2.5-.3.6c-.1 0-.3-.4-.4-.7 0 0-.1 0-.1-.2s-.1-.2 0-.2.2-.1.2 0 .1.2.1.3v.1c0 .1 0 .1.1.1.2.2.2.3.2.3s0-.2.1-.4c.1-.3.3-.3.3-.3 0 .2.1.5.2.6 0 .1.1.3.1.4 0-.2.3-.6.4-.8v-.2s.3 0 .4.2c.1.4.2.9.2 1.3v.8c-.1 0-.2.1-.2 0v-.3c0-.1 0 0 0 0 0-.5-.2-.9-.3-1.4-.3.2-.2 1.1-.1 1.4zm-.6 1.6c0 .1.1.5.1.6 0 .1-.2 0-.3 0h-.3c-.1 0 0-.1 0-.1s.1-.1.2-.1.1-.1.1-.1l-.1-.4.3.1zm.1-5.1v.2h-.1c0-.1 0-.1.1-.2-.1.1-.1.2-.1.2h.1v.1h-.1v-.1.1h.1v.1h-.1v-.1.1c0 .1.1.2.2.2v.1c-.2 0-.2.1.1.1.3 0 .3-.1.1-.1v-.1h.1c.1-.1.1-.2 0-.2 0 0 0 .1-.1.1h-.1v-.1h.1c.1 0 .1-.1 0-.1 0 0 0 .1-.1.1h-.1v-.1c.1 0 0-.1 0-.1v.1l-.1-.3zm.6 5.1c0 .1.1.5.1.6 0 .1-.2 0-.3 0h-.3c-.1 0 0-.1 0-.1s.1-.1.2-.1.1-.1.1-.1L83 60h.3zm10.9-3.9c0 .1-.1.3-.2.3 0 .1 0 .1.3 0-.2.1-.2.3-.1.5s.1.3.2.6c.1-.2.6-.9.1-1.1 0 0 .2-.1.1-.4h.1c.2-.1.1-.3.1-.3s.1.2-.1.2c-.1 0-.5.1-.6 0 0 0-.1-.2 0-.3l-.1.1c-.1.3 0 .4.2.4zm.1.1c.1-.1.2-.1.3 0 0 0-.2.1-.3 0zm.6 2.6c.1.6.4 1.3.4 1.4.1.3.1.3-.2.3H94c-.3 0-.3 0-.2-.3.1-.5.2-1.3.2-1.5v-1.5s-.2.5-.3.6c-.1 0-.3-.4-.4-.7 0 0-.1 0-.1-.2 0-.1-.1-.2 0-.2s.2-.1.2 0 .1.2.1.3v.1c0 .1 0 .1.1.1.2.2.2.3.2.3s0-.2.1-.4c.1-.3.3-.3.3-.3 0 .2.1.4.2.6 0 .1.1.3.1.4 0-.2.3-.6.4-.8v-.2s.3 0 .4.2c.1.4.2.9.2 1.3v.8c-.1 0-.2.1-.2 0v-.3c0-.1 0 0 0 0 0-.5-.2-.9-.3-1.4-.2.2-.1 1.1-.1 1.4zm-.6 1.6c0 .1.1.5.1.6 0 .1-.2 0-.3 0h-.3c-.1 0 0-.1 0-.1s.1-.1.2-.1.1-.1.1-.1l-.1-.4.3.1zm.1-5.2v.2h-.1s0-.1.1-.2c-.1.1-.1.2-.1.2h.1v.1h-.1v-.1.1h.1v.1h-.1v-.1.1c0 .1.1.2.2.2v.1c-.2 0-.2.1.1.1.3 0 .3-.1.1-.1v-.1h.1c.1-.1.1-.2 0-.2 0 0 0 .1-.1.1h-.1v-.1h.1c.1 0 .1-.1 0-.1 0 0 0 .1-.1.1h-.1v-.1c.1 0 0-.1 0-.1v.1l-.1-.3zm.7 5.2c0 .1.1.5.1.6 0 .1-.2 0-.3 0h-.3c-.1 0 0-.1 0-.1s.1-.1.2-.1.1-.1.1-.1l-.1-.3h.3zm-1.6-8.8c0-.5.2-.9.3-1.4.2.4.1 1.3.1 1.6-.1.6-.4 1.3-.4 1.4-.1.3-.1.3.2.3h1.1c.3 0 .3 0 .2-.3-.1-.5-.2-1.3-.2-1.5v-1.5s.1.2.1.5c.1.3.2.6.2.8 0 0-.1 0-.1.1v.3c0 .1.1 0 .2 0s0-.1 0-.2-.1-.2-.1-.2c0-.5 0-1.1-.2-1.5 0-.1-.1-.2-.3-.2-.1 0-.2-.1-.3-.1v-.1h.1c.1 0 .1 0 .1-.1v-.2c.2.1.2 0 .1-.1 0-.1-.1-.2-.1-.2.2 0 .3-.1.3-.3 0-.1-.1-.1-.1-.1v.3c-.1.1-.5.1-.6 0-.2-.1-.1-.2-.1-.2-.1 0-.2.2.1.3h.1c-.1.2.1.3.1.5v.2h-.1c-.1 0-.2.1-.3.1-.2 0-.3.1-.3.4-.1.3-.1.7-.1 1v.8c.1 0 .2.1.2 0-.1-.1-.1-.2-.2-.4zm.7-2.5c.1-.1.2-.1.3 0-.2.1-.3 0-.3 0zm.2 4.3c0 .1-.1.5-.1.6 0 .1.2 0 .3 0h.3c.1 0 0-.1 0-.1s-.1-.1-.2-.1-.1-.1-.1-.1l.1-.4-.3.1zm-.1-5.3v.2h.1s0-.1-.1-.2c.1.1.1.2.1.2h-.1v.1h.1v-.1.1h-.1v.1h.1v-.1.1c0 .1-.1.2-.2.2v.1c.2 0 .2.1-.1.1-.3 0-.3-.1-.1-.1v-.1h-.1c-.1-.1-.1-.2 0-.2 0 0 0 .1.1.1h.1v-.1H94c-.1 0-.1-.1 0-.1v.1h.1v-.1c-.1 0 0-.1 0-.1v.1l.2-.3zm-.6 5.3c0 .1-.1.5-.1.6 0 .1.2 0 .3 0h.3c.1 0 0-.1 0-.1s-.1-.1-.2-.1-.1-.1-.1-.1l.1-.3h-.3zm-2.6-1.5c0 .1-.1.3-.2.3 0 .1 0 .1.3 0-.2.1-.2.3-.1.5s.1.3.2.6c.1-.2.6-.9.1-1.1 0 0 .2-.1.1-.4h.1c.2-.1.1-.3.1-.3s.1.2-.1.2c-.1 0-.5.1-.6 0 0 0-.1-.2 0-.3l-.1.1c-.2.3 0 .4.2.4zm0 .2c.1-.1.2-.1.3 0 0 0-.2.1-.3 0zm.6 2.5c.1.6.4 1.3.4 1.4.1.3.1.3-.2.3h-1.1c-.3 0-.3 0-.2-.3.1-.5.2-1.3.2-1.5V53s-.2.5-.3.6c-.1 0-.3-.4-.4-.7 0 0-.1 0-.1-.2s-.1-.2 0-.2.2-.1.2 0 .1.2.1.3v.1c0 .1 0 .1.1.1.2.2.2.3.2.3s0-.2.1-.4c.1-.3.3-.3.3-.3 0 .2.1.5.2.6 0 .1.1.3.1.4 0-.2.3-.6.4-.8v-.2s.3 0 .4.2c.1.4.2.9.2 1.3v.8c-.1 0-.2.1-.2 0v-.3c0-.1 0 0 0 0 0-.5-.2-.9-.3-1.4-.2.2-.1 1.1-.1 1.4zm-.5 1.6c0 .1.1.5.1.6 0 .1-.2 0-.3 0h-.3c-.1 0 0-.1 0-.1s.1-.1.2-.1.1-.1.1-.1l-.1-.4.3.1zm0-5.1v.2h-.1c0-.1 0-.1.1-.2-.1.1-.1.2-.1.2h.1v.1h-.1v-.1.1h.1v.1h-.1v-.1.1c0 .1.1.2.2.2v.1c-.2 0-.2.1.1.1.3 0 .3-.1.1-.1v-.1h.1c.1-.1.1-.2 0-.2 0 0 0 .1-.1.1h-.1v-.1h.1c.1 0 .1-.1 0-.1 0 0 0 .1-.1.1h-.1v-.1c.1 0 0-.1 0-.1v.1l-.1-.3zm.7 5.1c0 .1.1.5.1.6 0 .1-.2 0-.3 0h-.3c-.1 0 0-.1 0-.1s.1-.1.2-.1.1-.1.1-.1l-.1-.3h.3z" fill="#201B18"/><path d="M42.2 59.6h.4c.3 0 .8.2 1.5.3.9.2 3.8.6 7.2.9 3.6.3 7.8.3 10.6 0"/><path d="M42.2 59.6h.5c.3 0 .7.1 1.2.2.1 0 .2 0 .3.1.1 0 .3.1.5.1s.4.1.7.1c1.4.2 3.5.5 5.9.7.5 0 1 .1 1.5.1s1.1.1 1.6.1c.8 0 2.8.1 5.1.1 2.1-.1 4.5 0 6.8-.2 1.1-.1 2.3 0 3.3-.1 2.8-.1 5.1-.3 5.8-.4v.1c-.7.1-2.9.3-5.8.4-1 .1-2.1 0-3.2.1-2.2.1-4.4.1-6.4.2-2.6.1-4.8 0-5.6 0-.5 0-1.1 0-1.6-.1-.5 0-1-.1-1.5-.1-2.4-.2-4.6-.5-6-.7-.3 0-.5-.1-.7-.1-.2 0-.4-.1-.5-.1-.1 0-.2 0-.3-.1-.5-.1-.9-.2-1.2-.2-.1-.1-.2-.2-.4-.2z" fill="#201B18"/><path d="M42.4 60.6h.4c.4 0 .9.1 1.5.2 1.9.4 12.6 1.6 17.6.9"/><path d="M42.4 60.5h.8c.3 0 .7.1 1.2.2.3.1.7.1 1.3.2.6.1 1.3.2 2.1.3 1.8.2 6.7.6 11.9.6 6.7 0 13.9-.4 15.9-.7v.1c-2.1.3-10 .7-16.9.7-4.8 0-9.2-.4-10.9-.6-.8-.1-1.5-.2-2.1-.3-.6-.1-1-.1-1.3-.2-.4-.1-.9-.2-1.2-.2h-.4c-.1 0-.3 0-.4-.1 0 .1 0 .1 0 0 0 .1 0 .1 0 0zm2.4-.6h.3l-.4 1.1h-.3l.4-1.1zm.7.1h.3l-.4 1.1h-.3l.4-1.1zm.7.1l.3.1-.4 1.1-.3-.1.4-1.1zm.7.1h.3l-.4 1.1h-.3l.4-1.1zm.7.1h.3l-.3 1.2-.4-.1.4-1.1zm.7.1h.3l-.4 1.1h-.3l.4-1.1zm.7 0l.3.1-.3 1.1h-.3l.3-1.2zm.8.1h.3l-.3 1.2-.3-.1.3-1.1zm.7.1h.3l-.2 1.1h-.4l.3-1.1zm.8 0h.3v.5l-.1-.1v.1-.1.1-.2l-.1.1-.1-.4zm.1.8l-.1.4H51l.2-.5.1.1h.1v-.1.1zm-7.3-1.7l.3.1-.4 1.1-.3-.1.4-1.1zm-.8-.1l.3.1-.4 1.1-.3-.1.4-1.1zm8.7 1.1h.3l-.3 1.1h-.3l.3-1.1zm.8 0l.3.1-.3 1.1h-.3l.3-1.2zm.7.1h.3l-.2 1.2-.4-.1.3-1.1zm.7 0l.4.1-.3 1.1H54l.2-1.2zm.9.1h.3l-.3 1.1h-.3l.3-1.1zm.7 0h.3l-.2 1.1h-.4l.3-1.1zm1.5 0h.3l-.2 1.1H57l.3-1.1zm-18.3-1v.3c0 .2.1.4.1.5 0 .1-.2 0-.3 0h-.3c-.1 0 0-.1 0-.1s.1-.1.2-.1.1-.1.1-.1 0-.1-.1-.2V60l.3-.1zm.8.2v.2c0 .2.2.4.2.5 0 .1-.2 0-.3 0h-.3c-.1 0 0-.1 0-.1s.1-.1.2-.1.1-.1.1-.1 0-.1-.1-.3V60l.2.1z" fill="#201B18"/><path d="M37.6 56.4s2.3-.2 3.6-.7"/><path d="M39.5 55.4s.1.2-.1.2c-.1.1-.5.1-.7 0-.1 0-.1-.2 0-.3l-.1.1c-.1.2.1.3.3.3 0 .1-.1.3-.2.3 0 .1 0 .1.3 0-.2.1-.2.3-.1.5s.2.4.2.6c.1-.2.6-1 .1-1.1 0 0 .2-.1.1-.4h.1c.3 0 .2-.2.1-.2zm-.5.5c.1-.1.3-.1.3 0 0 0-.2.1-.3 0zm.6 2.7c0 .4.4 1.2.4 1.3.1.3.1.3-.2.3h-1.1c-.3 0-.3 0-.2-.3.1-.5.2-1.3.3-1.5v-1.5s-.2.6-.4.6c-.1 0-.3-.4-.4-.7 0 0-.1 0-.1-.2 0-.1-.1-.2 0-.3.1 0 .2-.1.2 0s.1.2.1.3v.1c0 .1.1.1.1.1l.2.3s0-.2.1-.5.3-.3.3-.3c0 .2.2.5.2.7 0 .1.1.3.1.4 0-.2.3-.6.4-.8v-.2s.4 0 .4.2c.1.4.2.9.2 1.3v.8c-.1 0-.2.1-.2 0v-.4c0-.1 0 0 0 0 0-.5-.2-1-.3-1.5-.2.5-.1 1.3-.1 1.8zm-.5-3.7v.2H39c0-.1 0-.1.1-.2l-.1.1h.1v.1H39V55v.1h.1v.1H39v-.1.1c0 .1.1.2.2.2v.1c-.2 0-.2.1.1.1.3 0 .4-.1.1-.1v-.1h.1c.1-.1.1-.2 0-.2 0 0 0 .1-.1.1h-.1v-.1h.1c.1 0 .1-.1 0-.1 0 0 0 .1-.1.1h-.1v-.1h.1c.1 0 0-.1 0-.1v.1l-.2-.2zm-1.5 1.5s1.5-.1 2.7-.4c.2-.1.4-.1.5-.2h.1c0-.1 0-.1.1 0 0 0 .1 0 .1-.1.1-.1.1-.2.2-.4 0 .2-.1.3-.2.4 0 .1-.1.1-.2.1 0 .1.1.2.1.5 0 0 .2.1.3.2h.2c.2 0 .3.2.4.3-.1-.1-.2-.2-.4-.2h-.1s0 .1.1.1c0 0 0 .1.1.1.1.2.2.4.2.5-.1-.1-.2-.3-.3-.5 0 0 0-.1-.1-.1l-.3-.3v.4c.1 0 .2.1.2.2v.5c-.1-.2-.1-.3-.1-.6 0-.1-.1-.2-.1-.2v.1c-.1 0-.2 0-.2.2v.2c0 .1.1.2 0 .4V57c0-.2.1-.2.2-.2v-.3s-.2 0-.3.2c-.1.2-.1.5-.1.5s-.1-.3.1-.5c.1-.2.3-.2.4-.2 0-.3-.1-.6-.1-.7-1.3.5-3.5.6-3.5.6zM58 60.9h.3l-.2 1.2h-.3l.2-1.2zm.8 0h.3l-.2 1.2h-.3l.2-1.2zm.7 0h.4l-.2 1.2h-.4l.2-1.2zm.8-.1h.4l-.2 1.2h-.4l.2-1.2zm.8 0h.3l-.2 1.2-.4-.1.3-1.1zm-20.4-3.6c.1 0 .1.1.1.2s0 .2-.1.2-.1-.1-.1-.2c0 0 0-.1.1-.2zm.4.4c0 .1.1.2 0 .3 0 .1-.1.2-.2.2 0-.1-.1-.2 0-.3l.2-.2zm.3-.1c.1 0 .2 0 .2.1.1.1.1.2.1.3-.1 0-.2 0-.2-.1-.1-.1-.1-.2-.1-.3zm.4-.3c.1 0 .2 0 .3.1.1.1.1.2.1.2-.1 0-.2 0-.3-.1-.1 0-.1-.1-.1-.2zm.2-.5c.1 0 .2.1.2.2v.3c-.1 0-.2-.1-.2-.2-.1-.1-.1-.2 0-.3zm-28.5-6.9c0-.1-.1-.1-.1-.1v.3c-.1.1-.5.1-.6 0-.2-.1-.1-.2-.1-.2-.1 0-.2.2.1.3h.1c-.1.3.1.4.1.4-.4.1 0 .9.1 1.1 0-.2.1-.4.2-.6.1-.2.1-.4-.1-.5.2.1.3 0 .3 0 0-.1-.1-.3-.2-.3.1-.1.3-.1.2-.4zm-.6.5c.1-.1.2-.1.3 0-.1.1-.3 0-.3 0zm-.3 1.9s0 .1-.1.7-.4 1.3-.4 1.4c-.1.3-.1.3.2.3h1.1c.3 0 .3 0 .2-.3-.1-.5-.2-1.3-.2-1.5v-.6h-.2c-.2-.1-.5 0-.6 0zm0-.4c0-.2 0-.4-.1-.5 0 0-.1.5-.1.6h1c.1 0 0 .1 0 .2s-.1 0-.2.1h-.5c-.4 0-.7 0-.7-.1s.1-.8.2-1c.1-.2.4-.2.4-.2v.2c.1.3.2.5.3.8h-.1l-.2-.1zm.8-1s.2 0 .3.3c.1.3.1.4.1.4l.2-.3s0-.1.1-.1V51c0-.1.1-.2.1-.3 0-.1.1 0 .2 0s0 .1 0 .2-.1.2-.1.2c-.1.3-.3.7-.4.7-.1 0-.3-.6-.3-.6 0 .1-.1.5-.1.5h-.3c0-.2 0-.3.1-.4-.1-.1 0-.3.1-.5zm-.3 3.6c0 .1-.1.5-.1.6 0 .1.2 0 .3 0h.3c.1 0 0-.1 0-.1s-.1-.1-.2-.1-.1-.1-.1-.1l.1-.4-.3.1zm0-5.1v.2h.1c0-.1 0-.1-.1-.2.1.1.1.2.1.2h-.1v.1h.1v-.1.1h-.1v.1h.1v-.1.1c0 .1-.1.2-.2.2v.1c.2 0 .2.1-.1.1-.3 0-.3-.1-.1-.1v-.1h-.1c-.1-.1-.1-.2 0-.2 0 0 0 .1.1.1h.1v-.1h-.1c-.1 0-.1-.1 0-.1 0 0 0 .1.1.1h.1v-.1c-.1 0 0-.1 0-.1v.1l.1-.3zm-.7 5.1c0 .1-.1.5-.1.6 0 .1.2 0 .3 0h.3c.1 0 0-.1 0-.1s-.1-.1-.2-.1-.1-.1-.1-.1l.1-.3h-.3zm49.4 6.4l.3.1-.2 1.1h-.3l.2-1.2zm.8 0l.3.1-.2 1.1h-.4l.3-1.2zm.7 0l.3.1-.2 1.1h-.3l.2-1.2zm.8 0h.3l-.2 1.1h-.3l.2-1.1zm.7-.1h.4l-.3 1.2h-.3l.2-1.2zm.8 0h.4l-.2 1.2h-.4l.2-1.2zm.8 0h.3l-.2 1.2h-.3l.2-1.2zm.8 0h.3l-.2 1.2H67l.2-1.2zm.8-.1h.3l-.2 1.2h-.3l.2-1.2zm.7 0h.3l-.2 1.2h-.3l.2-1.2zm.8 0h.3l-.1 1.2h-.4l.2-1.2zm.8 0h.4l-.2 1.1h-.4l.2-1.1zm.8-.1h.3l-.2 1.2h-.3l.2-1.2zm.8 0h.3l-.2 1.2h-.3l.2-1.2zm.8-.1h.3l-.2 1.2h-.3l.2-1.2zm.7 0h.3l-.2 1.1h-.3l.2-1.1zm.6-.1h.3l-.1 1.2h-.4l.2-1.2zm.7 0h.4l-.2 1.1h-.4l.2-1.1z" fill="#201B18"/></g></svg>