<svg width="228" height="166" viewBox="0 0 228 166" xmlns="http://www.w3.org/2000/svg"><path d="M214.375 72.76c22.957-28.42-23.955-69.608-51.79-45.183 2.438-28.976-42.7-37.857-63.88-13.322-26.065-24.535-73.2-6.995-62.33 29.64-2.44-1.11-4.99-1.22-7.65-.554.33-2.11.442-4.44-.446-5.77-1.56-2.33-3.44 2.22-4.33 6-2-1.88-4.88-4.44-6.54-3.99-2 .554.77 4.663 3.88 7.216-6.32 4.1-12.31 10.32-16.3 13.98-3.33 3-4.99 4.44-4.99 8.77 0 1.78.55 5.997 5.87 6.11 5.655.11 15.86-2 24.62-3.22-13.086 9.99-16.524 49.734 29.833 45.293.89 11.33 1.337 26.2 1.11 46.52l2.11-2 2.11 1.78c-.22-14.21.332-26.755 1.22-38.19 7.32 8.105 21.403 9.77 33.603 6.33.33 8.99.444 19.76.33 32.526l2.11-2 2.107 1.776c-.11-12.656.22-23.98.888-34.303 6.1-2.666 11.2-6.663 14.196-11.77 2.998 7.326 9.21 11.323 16.19 12.766.33 9.324.56 20.54.33 34.08l2.11-2 2.11 1.778c-.11-12.21.11-23.2.777-33.304 7.986 0 15.97-3 20.518-8.103.446 11.32.667 26.09.556 41.074l2.11-1.994 2.105 1.775c-.22-15.54.334-32.194 1.444-45.626 26.84 22.534 62.44-6.885 42.477-40.19 5.214.33 9.54 1.996 13.088 2.44 4.657.665 5.766-3.55 1.33-5.66-3.215-1.557-8.317-2.334-10.868-2.667zM25.285 55.33c-.776 0-1.44-.666-1.44-1.443s.664-1.443 1.44-1.443c.777 0 1.442.666 1.442 1.443s-.554 1.443-1.44 1.443z" fill="#1F1A17" fill-rule="evenodd"/></svg>