<svg width="226" height="73" viewBox="0 0 226 73" xmlns="http://www.w3.org/2000/svg"><title>pismo-zapoteków</title><desc>Created with Sketch.</desc><path d="M144.5 35.2c.5-4.4.8-8.9 1-13.2l.1-2.3c.6-9.2-4.1-11.5-8.2-11.8-.6 0-1.1-.1-1.6-.1-4.2 0-6.6 1.5-8 3.5-1.1-2.5-3.4-3.6-7.2-3.6h-1.4c-4.3.2-6.3 1.8-7.4 4-.7-1.1-1.5-2.1-2.5-2.7-1.2-.8-2.8-1.2-4.6-1.2h-.3c-3.2.1-5.2.7-6.5 2.2-1.2 1.3-1.8 3.2-1.7 5.8v1.9c.1 5.1.3 10.9 1.5 15.9.2.8.5 1.5.8 2.3-4.3 4.4-.9 19.8-.1 22.4.4 1.2.9 2.6 2 3.7 1.5 1.5 3.6 2 5.4 2.3 5.4.9 10.9 1.4 16.5 1.4 6.4 0 12.9-.6 19.1-1.9 1.9-.4 3.6-1.1 4.9-2.2 4.8-4 3.9-19.2 2.3-22.9-.7-1.5-2.2-2.8-4.1-3.5zM98.8 15.7c-.1-1.9.3-3.2 1-3.9.8-.8 2.3-1.3 4.7-1.3 1.4 0 2.6.2 3.4.8 1.3.8 2.5 3 2.9 4.6.1.6.7 1 1.3 1 .6 0 1.1-.5 1.3-1.1.7-3.3 1.3-5.1 6-5.4h1.2c4 0 5.2 1.2 5.3 5.1 0 .6.5 1.2 1.1 1.3.6.1 1.3-.3 1.5-.9.9-2.7 2.2-5.4 7.4-5.4.5 0 .9 0 1.4.1 2.7.2 6.3 1.4 5.8 9l-.1 2.3c-.3 4.4-.5 8.5-1 12.8h-1.8c-3 .3-5.4 2.1-6.5 4.9-.5 1.3-.8 2.8-.8 4.5 0 .5 0 1.1-.1 1.6-.1 1.1-.3 2.1-.9 3-.6.8-2 1.7-5.6 2h-1.7c-1.9 0-3.7-.2-5.2-.3-.5 0-1-.1-1.3-.1-1.2-.1-2.4-.2-3.3-.7-1.9-1-2.6-3.6-2.2-8.2.1-1.2-.2-2.4-.9-3.4-.1-.1-.1-.2-.2-.3-.1-.1-.1-.2-.2-.3-.1-.2-.3-.3-.4-.5-1.7-1.8-4.5-3-7.2-3-.7 0-1.3.1-1.9.2h-.1c-.2 0-.3.1-.5.1h-.1c-.2-.5-.4-1-.5-1.5-1.2-4.8-1.3-10.1-1.5-15.3-.2-.4-.3-1-.3-1.7zm48.4 34.4c-.2 4.8-1.2 8.4-2.6 9.6-.9.8-2.2 1.3-3.7 1.6-11.3 2.2-23.2 2.4-34.6.5-1.5-.3-3-.6-3.9-1.5-.6-.7-1-1.6-1.3-2.6-1.6-5.3-3.1-17.2-.6-19.8.1-.2.3-.3.5-.4.1-.1.2-.1.3-.1.1-.1.2-.1.4-.2.1 0 .2-.1.3-.1.1 0 .2-.1.4-.1.1 0 .2-.1.4-.1h.8c2 0 4.1.9 5.3 2.2.7.8 1 1.6 1 2.4-.3 3.6-.2 8.6 3.5 10.7 1.2.7 2.6.9 3.7.9h.6c.4 0 .8.1 1.3.1 1.5.1 3.5.3 5.5.3 4.9 0 8-1 9.5-3.1.3-.5.6-1 .8-1.5.2-.5.3-.9.4-1.4V47c.2-1 .2-2 .2-2.8 0-2.6.9-4.7 2.4-5.8.7-.5 1.6-.8 2.5-.9h1.3c.4 0 .8.1 1.2.2 1.4.3 2.8 1 3.4 2.3.6 1.4 1.2 5.6 1 10.1zm-29.1-6.5c1.4.9 3 1.3 4.8 1.3 2.6 0 5-1 6.6-2.7 2-2.1 2.9-5.1 2.3-8-.3-1.3-.8-2.4-1.2-3.4-.6-1.2-1.3-2.4-2.4-3.3-1.2-1-3-1.6-4.8-1.6h-.1c-4.1.1-8 2.9-9.2 6.9-1.2 4 .5 8.6 4 10.8zm-1.5-10c.8-2.8 3.7-5 6.7-5h.1c1.2 0 2.4.3 3.1 1 .7.6 1.2 1.5 1.7 2.4.4.8.8 1.7 1 2.7.4 2-.2 4.1-1.6 5.6-1.2 1.2-2.9 1.9-4.7 1.9-1.2 0-2.4-.3-3.4-.9-2.5-1.5-3.7-4.9-2.9-7.7zm5.7 6.1h.4c.8-.1 1.5-.4 2-.9 1.3-1.2 1.6-2.9.9-4.5-.8-2-3-3.2-5.1-2.7-.7.2-1.3.6-1.8 1.3-1 1.4-1.1 3.3-.2 4.7.8 1.2 2.3 2.1 3.8 2.1zm-1.4-5.4c.1-.2.2-.2.2-.2h.4c.8 0 1.5.6 1.7 1.2.2.4.3 1-.3 1.6 0 0-.2.1-.4.1-.6.1-1.3-.3-1.6-.8-.4-.6-.4-1.3 0-1.9zm-54.6-.5c-.4-.3-1.5-1.4-1.4-2 .1-.2.3-.4.5-.7l.1-.1c5-5.4 7.2-13.3 5.8-20.6-.2-.9-.7-3.5-2.8-4.6-1.4-.7-3.1-.7-5.1.2-2.3 1-4.3 2.6-5.8 4.6-.1.2-.3.3-.4.5-.8 1-1.6 2.1-2.4 2.2-.5 0-1.1-.3-1.7-.6l-.2-.1c-6.6-3.4-14.4-4.1-21.5-2-1.4.4-2.8.9-4.1 1.4-2.1.8-4.2 1.6-6.3 1.9-1.7.3-3.5.3-5.4.3-1.8 0-3.7 0-5.5.3-3.7.6-8.4 2.8-9.3 7.3-.7 3.3 1 6.4 2.6 8.5.7.9 1.4 1.7 2.1 2.5.8.9 1.6 1.8 2.3 2.8v.4c-1.7 3-2 6.8-.7 10 .1.3.2.5.4.7-.2.1-.5.3-.7.4C1.6 51.1.1 58 3.2 63.8c1.1 2 2.4 3.3 4 4 .3.1.7.3 1.2.3h.4c.6-.1 1.4-.5 2-1.7.9-1.8.8-3.7.8-5.5 0-1.1 0-2.1.1-3 .2-1.1.7-2.2 1.2-3.4-.1.3-.3.7-.4 1l.5.9c.4.6.8 1.3 1.2 2 .9 1.4 1.9 2.8 3.3 3.9 4.9 4.1 10.8 4.7 15.4 4.7l14.9.1 13.8.1h.2c3.5 0 5.7-.9 6.7-2.6 1.7-3.1-1.2-7.4-3.8-11.3l-.6-.8c-2.4-3.6-3.5-8-3.2-12.4.1-.7-.5-1.4-1.2-1.4s-1.4.5-1.4 1.2c-.4 4.9.9 9.9 3.6 14l.6.9c1.8 2.7 4.5 6.9 3.6 8.5-.4.8-2 1.3-4.5 1.2l-11.8-.1c2.9-7.1 2.8-14 2.5-18.7 0-.7-.7-1.3-1.4-1.2-.7 0-1.3.7-1.2 1.4.3 4.7.4 11.7-2.7 18.5l-14.1-.1c-6.2-.1-10.3-1.3-13.7-4.1-.5-.4-1-.9-1.4-1.4 1.1-.1 2.1-.4 3.1-.6.3-.1.6-.1.9-.2 1.3-.3 2.7-.6 4.1-1.1.5 1.1 1.4 2.1 2.6 2.8 1 .5 2.2.8 3.6.8h.8c2.5-.2 4.7-1.1 6.2-2.6 2.2-2.2 2.7-5.3 3-8.1.2-1.9.3-4.2-.1-6.4h1.1c2.2 0 4.4-.5 6.4-1.5 3.6-1.8 6.2-5.3 7.2-9.1 1.3.3 2.7.4 4 .4.7 0 1.4 0 2-.1.4 1.3 1.5 2.3 2.1 2.8 3.3 3 5.9 6.9 7.4 11.1.2.7 1 1 1.7.8.7-.2 1-1 .8-1.7-1.9-4.7-4.7-8.9-8.4-12.3zM10.4 53.1l-.1.3c-.5 1.3-1.1 2.5-1.3 4-.2 1.2-.2 2.4-.2 3.5 0 1.6.1 3.1-.5 4.3-.1.1-.1.2-.1.2h-.1c-1-.4-1.9-1.3-2.6-2.8C3 58 4.2 52.5 8.4 49.3c.5-.4 1.1-.6 1.6-.6.2 0 .4 0 .6.1.5.3.7 1 .7 1.7-.1.8-.5 1.6-.9 2.6zm-2.7-6.6c.1 0 .2-.1.3-.1-.1 0-.2 0-.3.1zm10.8 9.4c-.8.2-1.6.3-2.6.3-.3-.4-.5-.8-.7-1.3l-1.6-2.8c.2-.6.3-1.1.3-1.7V50c1.3.2 2.5.2 3.6.1.6 1.9 1 3.8 1 5.8zm2.7-.6c-.1-1.9-.4-3.9-1.1-5.7.7-.2 1.4-.5 2.1-.8.4-.2.9-.3 1.3-.5.1 0 .2-.1.3-.1.3 2 .8 4 1.5 5.9-1.3.5-2.7.9-4.1 1.2zm5.2-7.8c.4-.1.8-.2 1.1-.3.8-.2 1.7-.3 2.4-.1.6.1 1.2.5 1.4.9.2.5.1 1.3-.4 2.1-.8 1.3-2 2.3-3.1 2.9-.7-1.7-1.2-3.6-1.4-5.5zm12.8 1.9c-.2 2.3-.7 4.9-2.2 6.5-1 1.1-2.6 1.7-4.5 1.8-1.2.1-2.2-.1-3-.5-.6-.3-1.1-.8-1.3-1.4 2.2-1.1 3.9-2.6 5-4.3 1-1.6 1.2-3.3.6-4.6-.6-1.2-1.8-2.1-3.2-2.4-1.2-.2-2.3-.1-3.4.1-1.5.3-3 .7-4.5 1.2-.5.2-.9.3-1.4.5-1.3.5-2.5.9-3.7 1.1-1.6.3-4 .1-5.6-1-.7-.5-1.3-.7-2-.7-.1-.3-.3-.6-.4-.9C9.2 43.9 9 43 9 42c2.8.5 5.6.7 8.4.7 3.5 0 7.1-.3 10.5-.6 2.2-.2 4.5-.5 6.2-2.1.2.2.4.3.6.5 1.4 1 2.9 1.7 4.6 2.1v.4c.2 2.2.1 4.5-.1 6.4zm8.8-10c-1.5.8-3.3 1.2-5.2 1.2-2.5 0-4.9-.8-6.8-2.1-4-2.9-5.8-6.8-4.9-10.9 1-4.6 5.3-8.3 10.6-9.2.5-.1 1.1-.2 1.7-.2 3.9 0 7.9 2.5 9.7 6 .8 1.5 1.2 3.2 1.2 4.9 0 4.3-2.5 8.4-6.3 10.3zm15.6-10.1c-.3.3-.5.6-.7.9-1.8.3-3.9.3-6-.2v-.9c0-2.1-.5-4.2-1.5-6.1-2.2-4.5-7.1-7.5-12.1-7.5-.7 0-1.5.1-2.2.2-6.4 1.2-11.4 5.6-12.7 11.3-.9 4.1.3 8.1 3.3 11.4-1.1.8-2.7 1.1-4.4 1.2-6.1.5-12.4 1.1-18.4-.1.2-.7.4-1.4.8-2 1.2.4 2.3.5 3.4.5.7 0 1.4-.1 2.1-.2 2.6-.6 4.8-2.5 5.5-4.8.3-1 .3-2 .3-2.8 0-.7 0-1.5-.1-2.2-.1-.7-.7-1.3-1.5-1.2-.7.1-1.3.7-1.2 1.5.1.7.1 1.3.1 2 0 .6 0 1.3-.2 2-.4 1.4-1.8 2.6-3.5 3-1.6.4-3.2.1-4.5-.4-.9-1.4-1.9-2.6-3-3.7-.7-.8-1.4-1.5-2-2.3-1.2-1.6-2.6-4-2.1-6.3.6-3 4-4.7 7.1-5.2 1.7-.2 3.4-.2 5.2-.3 1.9 0 3.9 0 5.8-.3 2.4-.4 4.6-1.2 6.8-2.1 1.3-.5 2.6-1 3.9-1.4 6.5-1.9 13.6-1.2 19.6 1.8l.1.1c.8.4 1.9.9 3 .9 2.2-.1 3.4-1.8 4.5-3.2.1-.2.2-.3.4-.5 1.2-1.6 2.9-3 4.8-3.8.8-.4 2-.7 2.8-.3.7.4 1.2 1.3 1.4 2.8 1.6 6.4-.4 13.4-4.8 18.2zM43.9 24c-2.1 0-4.1.7-5.5 1.9-1.9 1.6-2.2 3.4-2.1 4.6.1 1.9 1.4 3.8 3.3 5.1 1.4.9 3.1 1.5 4.7 1.5 1.1 0 2.1-.2 3-.7 2.6-1.3 4.1-4.2 3.8-6.9-.6-3.3-3.5-5.5-7.2-5.5zM46 34c-.5.3-1.1.4-1.8.4-1.1 0-2.2-.4-3.2-1-1.2-.8-2-2-2.1-3-.1-.9.4-1.7 1.2-2.4 1-.8 2.3-1.3 3.8-1.3 1.8 0 4.1.8 4.4 3.2.2 1.5-.8 3.3-2.3 4.1zm149.9.8h-.1c-2.7 0-5.7 2.4-6.3 4.9-.5 1.9.4 3.5 2.2 4.5 1.6.8 3.4 1.3 5.3 1.3 1.4 0 2.7-.2 4-.7 1.3-.5 2.3-1.1 3-1.9 1.6-1.8 1.5-3.4 1-4.3-1.3-3.1-7.5-3.8-9.1-3.8zm6.2 6.4c-.4.5-1 .8-1.9 1.1-1 .3-2 .5-3.1.5-1.5 0-2.9-.3-4.1-1-1.2-.6-1-1.3-.9-1.6.3-1.4 2.3-2.8 3.7-2.8h.1c2.3 0 6.2 1 6.8 2.3.2.5-.2 1.1-.6 1.5zm22.1-1.5c0-2.1.4-4.1.9-6.3.5-2.4 1-4.9.9-7.5-.1-1.8-.6-4.3-2.6-5.6-.8-.5-1.7-.8-2.7-.8-1.6 0-3.4.7-4.7 1.9-1.5 1.4-2.4 3.2-3.2 4.9-.1.3-.2.5-.4.8-.7 1.3-1.5 2.7-2.6 3.7-2-1.8-4.4-3.2-7.1-3.9-.5-1.9-.7-3.8-.8-5.8 0-.7 0-1.4.3-1.9.2-.3.5-.6.9-.8l11.5-8.9c.8-.6 1.8-1.4 2.4-2.4.9-1.3 1-2.9.4-4.1-.6-1.3-2.1-2.2-3.7-2.2-1.3 0-2.5.4-3.5.9-2.5 1.1-4.7 2.6-6.7 4.4-.4.3-.7.7-1.1 1-1.7 1.6-3.2 3.1-5.1 3.3-1.2.1-2.5-.3-3.8-.7-.4-.1-.9-.3-1.3-.4-1.8-.5-3.7-.7-5.7-.7-.7 0-1.5.1-2.2.5-1.9 1-2.1 3.5-1.2 5.2.8 1.6 2.4 2.4 3.6 2.9.3.1.5.2.8.3.9.4 1.7.7 2.3 1.2 1 .8 1.7 2.1 1.9 3.8.2 1.5.1 3.1 0 4.6-1.7.6-3.2 1.4-4.6 2.4-.4.3-.8.6-1.2 1-1 .9-2 1.7-3.2 2.1-.6.2-1.3.3-2.4.3H178c-.8 0-1.5 0-2.1.2-.9.2-1.7.5-2.2.9-.9.7-1.2 1.7-1.5 2.4-1.3 4-.2 8.3.6 11.7l2.8 11.5c.2.7.3 1.5.8 2.2.9 1.4 2.6 2.1 4.9 2.1.5 0 .9 0 1.5-.1 1-.1 1.9-.2 2.9-.4.1.8.1 1.6.2 2.4v.2c.1 1.4.1 3 1.1 4.4.9 1.4 2.6 2.2 4.6 2.3h.4c1.3 0 2.5-.4 3.3-1.1 1.4-1.2 1.5-3.1 1.6-4.5 0-1.7-.1-3.5-.4-5.2.4 0 .8-.1 1.2-.1h1.9c1.6 0 3.2.1 4.8.2 1.6.1 3.3.2 4.9.2 2.5 0 4.5-.2 6.4-.6 2.8-.6 6.5-1.9 8.5-5.3 2.1-3.5 1.5-7.4.8-11.3-.5-1.8-.8-3.6-.8-5.3zm-32.8-23c-.9-.8-2-1.2-3-1.6-.2-.1-.5-.2-.7-.3-1.3-.6-2-1.1-2.3-1.8-.3-.6-.2-1.4.2-1.6.2-.1.6-.2 1-.2 1.6-.1 3.3.1 4.9.6.4.1.8.2 1.3.4 1.6.5 3.2 1 4.9.8 2.8-.3 4.8-2.3 6.6-4l1-1c1.8-1.6 3.8-2.9 6-3.9.7-.3 1.6-.7 2.4-.6.6 0 1.2.3 1.4.7.2.4.1 1-.3 1.5-.4.7-1.1 1.2-1.8 1.7l-11.5 8.9c-.5.4-1.1.8-1.5 1.5-.7 1.1-.7 2.2-.7 3.4.1 1.7.3 3.4.6 5.1-.8-.1-1.6-.2-2.4-.2-1.1 0-2.1.1-3.2.3.1-1.4.1-2.8-.1-4.3-.3-2.3-1.4-4.2-2.8-5.4zm-9.1 44.4c-2.1.2-3.4-.1-3.9-.9-.2-.3-.3-.9-.5-1.4l-.6-2.5h1.6c1.8 0 3.6 0 5.4-.1v.3c.3 1.4.6 2.7.8 4.1-.9.3-1.8.4-2.8.5zm11 8.5c-.4.3-1 .5-1.8.4-1.1-.1-2.1-.5-2.5-1.2-.5-.7-.6-1.8-.6-3v-.2c-.1-3-.5-6-1.2-8.9 1.6-.1 3.1-.2 4.7-.3 1.4 3.3 2.1 7 2 10.6 0 .9-.1 2.1-.6 2.6zm28.9-24.3c.6 3.5 1.1 6.8-.5 9.5-1.6 2.6-4.9 3.7-6.8 4-1.7.4-3.6.5-5.9.5-1.6 0-3.2-.1-4.8-.2-1.6-.1-3.3-.2-4.9-.2h-2.1c-.5 0-1.1.1-1.6.1-.3-1.1-.6-2.2-1.1-3.2 2.5-.3 5-.9 6.8-2.8.5-.5.5-1.4 0-1.9s-1.4-.5-1.9 0c-1.7 1.8-4.5 2-7.2 2.1-5.1.2-10.3.3-15.4.3l-.7-2.9h.5c1.9 0 3.8-.8 5.2-2.2.8-.8 1.3-1.8 1.5-2.7.2-1.2-.1-2.5-.9-3.4-.5-.5-1.3-.6-1.9-.1-.5.5-.6 1.3-.1 1.9.2.2.3.7.2 1.1-.1.6-.5 1.1-.8 1.4-1.1 1.1-2.9 1.6-4.4 1.2l-.2-.8c-.8-3.3-1.7-7-.6-10.3.1-.4.3-.9.6-1.1.2-.2.5-.3 1-.4.5-.1 1-.1 1.7-.1h2.3c.9 0 2.1 0 3.2-.4 1.6-.5 2.8-1.5 4-2.5.4-.3.8-.6 1.1-.9 2.4-1.8 5.6-2.8 8.9-2.8 4.3 0 8.3 1.6 11 4.4.9 2.1 3.2 4.6 5.1 5.9 0 1.8.3 3.3 1 4.6.2.5.7.7 1.2.7.2 0 .4 0 .6-.2.6-.3.9-1.1.6-1.8-.5-.9-.7-2.1-.7-3.5 0-1.3.3-2.7.6-4l.5-2.2c.1-.7-.3-1.4-1-1.6-.7-.1-1.4.3-1.6 1l-.5 2.2c-.1.5-.2 1.1-.3 1.6-1-.9-2-2.1-2.6-3.1 1.6-1.2 2.6-3 3.4-4.6.1-.3.3-.5.4-.8.8-1.6 1.5-3.1 2.7-4.2 1.2-1.1 3.1-1.6 4.1-.8 1.2.8 1.4 2.6 1.5 3.6.1 2.2-.4 4.5-.9 6.8-.5 2.2-1 4.5-.9 6.9-.1 2.2.2 4.1.6 5.9z" fill-rule="evenodd"/></svg>