<svg width="224" height="59" viewBox="0 0 224 59" xmlns="http://www.w3.org/2000/svg"><title>pismo-klinowe</title><desc>Created with Sketch.</desc><path d="M214.6 15.9c-5-6.7-10.1-13.7-11.1-15-.9-1.2-1.6-.6-1.1.7.1.2 1.7 2.5 1.8 2.8 1.1 1.8 2.6 4 4 6.6 2.9 5.1 5.7 11.8 5.7 18.2 0 6.4-3 13.2-5.9 18.4-1.5 2.7-3 4.9-4 6.7-.1.1-1.7 2.6-1.7 2.6 0 1.5.7 1.3 1.1.6 1-1.3 6.2-8.2 11.1-15 5.1-7 9.4-13.1 9.4-13.3 0-.1-4.2-6.2-9.3-13.3zm-14 5.5l-10.9 4.7c-1.9.8-6.4 1.8-12.8 1.8h-15.1c-.7 0-1.5-.3-1.5.6v1.2c0 .8.9.6 1.5.6H177c6.4 0 11.5 1.1 12.8 1.7l10.8 4.8L199 29l1.6-7.6zm-2.4-4.6L196.7 9l1.5-7.6-10.7 4.7-5.3 2.9 5.3 3 10.7 4.8zM33.6 1c-.8-1.2-1.6-.6-1.1.7 0 .1.2.3.4.8.3.5.9 1.2 1.4 2 1.1 1.7 2.6 4 4 6.6 2.9 5.1 5.7 11.8 5.7 18.2 0 6.4-2.9 13.2-5.9 18.4-1.5 2.7-2.9 4.9-4 6.7-.5.8-1 1.5-1.3 2-.2.3-.3.5-.3.6 0 1.5.7 1.3 1.1.6 1.1-1.3 6.2-8.3 11.1-15 5.1-7 9.4-13.1 9.4-13.2 0-.2-4.2-6.2-9.4-13.3C39.7 9.2 34.6 2.3 33.6 1zm-4.7.8L18.2 6.5c-1.9.8-6.4 1.8-12.8 1.8H1.6C.9 8.3.2 8 .2 8.9v1.2c0 .8.8.6 1.4.6h3.8c6.4 0 11.5 1.1 12.8 1.7l10.7 4.8-1.6-7.8 1.6-7.6zM18.2 26.5l-5.3 2.9 5.3 3 10.7 4.7-1.6-7.8 1.6-7.5-10.7 4.7zm0 19.9c-1.9.8-6.4 1.8-12.8 1.8H1.6c-.7 0-1.4-.3-1.4.6V50c0 .8.8.6 1.4.6h3.8c6.4 0 11.5 1.1 12.8 1.8l10.7 4.8-1.6-7.8 1.6-7.5-10.7 4.5zm37.6-25l1.6 7.6-1.6 7.8L66.5 32l5.3-2.9-5.3-3-10.7-4.7zm60.4 4.4l-1.6-17.7-.7 17.8-1.6 13.1-4.7 11.2 7.6-1.7 7.3 1.7L118 39l-1.8-13.2zM86.3 1c-.9-1.2-1.6-.6-1.1.7 0 .1.2.3.5.8s.8 1.2 1.4 2c1.1 1.7 2.6 4 4 6.6 2.9 5.1 5.7 11.8 5.7 18.2 0 6.4-2.9 13.2-5.9 18.4-1.4 2.7-2.9 4.9-4 6.7-.5.8-1.1 1.5-1.3 2-.2.3-.3.5-.3.6 0 1.5.7 1.3 1.1.6 1-1.3 6.2-8.3 11.1-15 5.1-7 9.4-13.1 9.4-13.2 0-.2-4.3-6.2-9.4-13.3C92.5 9.2 87.4 2.3 86.3 1zm40.4 0c-.9-1.2-1.6-.6-1.1.7 0 .1.2.3.4.8.3.5.9 1.2 1.4 2 1.1 1.7 2.6 4 4 6.6 2.9 5.1 5.7 11.8 5.7 18.2 0 6.4-2.9 13.2-5.9 18.4-1.5 2.7-2.9 4.9-4 6.7-.5.8-1 1.5-1.3 2-.2.3-.3.5-.3.6 0 1.5.7 1.3 1.1.6 1-1.3 6.1-8.3 11.1-15 5.1-7 9.4-13.1 9.4-13.2 0-.2-4.3-6.2-9.4-13.3-5-6.9-10.1-13.8-11.1-15.1z" fill="#201B18" fill-rule="evenodd"/></svg>