<svg width="223" height="65" viewBox="0 0 223 65" xmlns="http://www.w3.org/2000/svg"><title>pismo-fenickie</title><desc>Created with Sketch.</desc><path d="M121.5 16.3c-1.3-1.9-3.5-3.6-6.4-5.3-1.9-1.1-3.9-2.1-6-3-2.1-.9-4.2-1.4-6.5-1.4-.5 0-1.1.1-1.9.4-1.4.5-2.7 1.3-3.5 2.6-.4.6-.4 1.3-.2 2 .3 1 1.1 1.7 2.1 2.1 1.1.5 2.4.9 3.8 1.3 1.4.3 2.9.7 4.5 1.1 1.6.4 3.1 1 4.4 1.8 1.3.8 2.4 1.8 3.3 3.1.9 1.3 1.3 3.1 1.3 5.3 0 .4-.1 1.6-.3 1.9l-1.1 1.2-17.4 10.5c-1.1.7-1.8 1.2-2.1 1.6-.3.4-.4 1-.4 2 0 1.8.7 3.6 2.2 5.3 3 3.7 7.4 6.5 11.8 8.3 2.3.9 4.3 1.3 6 1.3 1.4 0 2.7-.3 3.8-.7 2.1-1 3.5-2.8 4.4-4.9.4-1.1 1.1-2.3 1.1-3.6V38.4c0-3.1.1-6 .2-8.6.2-2.6 0-5-.4-7.3-.5-2.3-1.3-4.3-2.7-6.2zM116.9 45c-.2 1.7-.7 3.7-1.9 5-1.3 1.4-3.7 1-5.3.4-1.1-.3-1.9-.8-2.6-1.4-1.2-1-2.3-2-3.4-3.1-.3-.3-.4-.5-.4-.6v-1.9s.3-.2.8-.4c2.1-1.2 4.4-2.2 6.6-3.2 1-.5 1.8-.8 2.4-1 .6-.2 1.4-.3 2.3-.3h.8c.4 0 .6.2.7.7.1 1.1.1 2.2.1 3.3 0 .7 0 1.6-.1 2.5zm-80.4-3.3c-.2-.2-.6-.5-1.1-1l-3.3-3c-.5-.5-.9-.8-1.1-1 0-1.6.1-3 .4-4.5.5-2.4 1.6-4.6 2.9-6.7.7-1.1 1.4-2.2 2.2-3.5.2-.3.5-.6.9-.8.8-.4 1.7-.7 2.4-1.3.3-.3.5-.6.5-1v-5c0-.4-.6-.8-1-.9-.4-.2-1.1-.3-1.5-.3-1.8 0-3.4.7-4.9 2.1-1.4 1.4-2.7 3-3.8 4.7-1.1 1.7-2.1 3.3-2.8 4.7-.8 1.4-1.4 2.1-1.8 2.1-.2 0-.3 0-.3-.1-.5-1.1-1.2-2.5-2-4.1-2-3.7-4.2-7.3-6.7-10.7-1.3-1.8-2.7-3.5-4.1-5C10 4.9 8.7 3.7 7.3 2.8 6 1.9 4.7 1.4 3.5 1.4H2.4c-.6 0-.9.1-1.1.1-.6.4-1 .9-1.1 1.4-.1.5-.2 1-.2 1.7 0 .4.1.8.1 1.2 4.2 3.7 7.7 7.6 10.4 11.8.2.2 6.3 9.2 8 16.7 1.5 6.6-1.3 11.9-1.5 12.2-.7 1.7-1.6 3.3-2.3 5-.3.9-.5 1.7-.5 2.6 0 .9.5 1.7 1.5 2.4s1.9 1 2.7 1c1.1 0 1.9-.3 2.6-1 .6-.6 1.1-1.5 1.5-2.5.4-1 .7-2 .9-3.1.4-1.8 1-4.2 2.2-5.6.5-.6 1.3-1 2.3-1 1.5 0 2.6.5 3.6 1.4 1 .9 1.8 2.1 2.4 3.4.7 1.4 1.2 2.9 1.7 4.5.4 1.6.9 3.1 1.4 4.5.5 1.4 1 2.5 1.6 3.5.6.9 1.4 1.4 2.4 1.4h.5c.6 0 1.1-.1 1.7-.3.2-.1.4-.2.4-.4v-3.1l-4.3-15.4c-.3.2-2.5-1.9-2.8-2.1zm137-8.7c-.2 0-.4.1-.6.1l-12.4 11.6c0 .1-.1.1-.2.1-.5 0-1.2 0-1.4-.4-.2-.3-.1-.7-.3-1.2L154.3 33c-.5-.4-.9-.9-1.3-1.4-.6-.8-.6-1.4-.6-2.3.1-.3.3-.7.6-1.3.3-.6.5-1 .6-1.1l9.9-12.9c.2-.3.5-.9.7-1.2v-.3c0-.8-.4-1.5-1.1-2-.7-.6-1.5-.9-2.3-.9-.3 0-.6.2-.9.2l-10.5 9.8c0 .1-.1.1-.3.1-.6 0-1-.5-1.4-1.4-.4-.9-.8-1.9-1.3-3s-1.2-2.1-2.1-3c-.9-.9-2.1-1.4-3.7-1.4 0 4.2.4 8.2 1.3 12 .8 3.8 2.1 7.6 3.8 11.5 2.5 5.6 5.2 11.2 8 16.7.8 1.5 1.2 2.3 1.3 2.4l1.8 1.8h4.9c.2 0 1.6-1.6 1.9-1.8.5-.6 1.4-1.6 2.6-3.2 1.2-1.5 2.6-3.1 3.9-4.8 2.1-2.7 4.3-5.3 6.5-8 0-.7 0-1.2-.3-1.9-.5-1.1-1.5-2.6-2.8-2.6zM76.7 50.6c-1.4-2-2.9-3.8-4.3-5.6-1.5-1.8-2.6-3.4-3.5-4.7-4.1-6.6-5.9-15.5-5.9-23.1 0-.3 0-.6.1-1 .2-.5.7-.5 1.1-.5.4.2 1.1.6 2.1 1.1 2.1 1.1 4.3 2.1 6.4 3.2 1 .5 1.7.9 2.1 1.1 1.1.5 2.1.7 3.3.7v-2c-.1-2-.1-4-.2-6 0-1-.1-1.6-.2-2-.3-3.8-1.5-8.1-4.6-10.5-1-.8-2.2-1.2-3.7-1.2-.5 0-1.1.2-1.1.9 0 1.4.2 2.8.6 4.1.4 1.3.6 2.7.6 4.1v2.7c-.2-.1-.5-.3-.9-.5-1-.5-2-.9-3-1.4-.4-.2-.7-.4-.9-.5-1-.5-1.8-.8-2.6-1-1.2-.4-2.4-.7-3.7-.9-.8-.2-1.7-.3-2.6-.5l-.5.6c0 .5 0 1-.1 1.5v2c0 3.9.4 7.5 1.2 10.9 1.5 6.9 4.1 13.4 7.4 19.7l6 11.4c1 2 1.9 4 2.9 5.9.5.9.8 1.5.9 1.7.6 1.1 1.3 2 2.3 2.9.9.9 2.1 1.3 3.3 1.3 1.1 0 1.8-.2 2.2-.7.3-.5.5-1.2.5-2.3 0-1.7-.5-3.5-1.5-5.4-1-2.1-2.3-4.1-3.7-6zm140.1-25.5c-2-3.9-4.1-7.7-6.5-11.5-.5-.8-1.1-1.6-1.8-2.5-1.3-1.8-2.9-3.5-4.8-4.6-1-.5-1.9-.8-3-.8-2.5 0-4.6.8-6.6 2.2-4 3.1-6.8 7.8-8.1 12.5-.7 2.5-1.1 4.8-1.1 6.7 0 .3.1.7.3 1.2.4 1 .9 2.1 1.7 2.9.4.4.8.6 1.2.6H211c.7 0 1.3.3 1.7 1.1.8 1.5 1.2 3.6 1.3 5.4.1.9.1 1.6.1 2 0 1.3-.4 2.6-1.2 3.9-.8 1.3-1.6 2.4-2.5 3.3-.3.3-.7.8-1.4 1.5-1.3 1.5-2.7 3-4.1 4.5-.6.7-1.1 1.2-1.4 1.5 0 .2-.1.4-.1.7 0 .8.8 1.8 1.3 2.3.6.6 1.6 1.3 2.5 1.3 1.2 0 2.5-.4 3.7-1.2 4.1-2.6 7.4-7.7 9.4-12 1.1-2.5 2.4-5.9 2.4-8.6v-.3c-2-4.2-3.9-8.2-5.9-12.1zm-10.2-1.5c-.1.2-.3.4-.6.5-2.2.8-4.6 1.2-7.2 1.4-2.6.1-5 .2-7.2.2 0-.9.2-2 .4-3.3.5-2.5 1.7-5.1 3.4-6.9.9-.9 1.9-1.3 3.1-1.3 3.4 0 8.9 6 8.1 9.4z" fill="#201B18" fill-rule="evenodd"/></svg>