<svg width="232" height="54" viewBox="0 0 232 54" xmlns="http://www.w3.org/2000/svg"><title>pismo-chinskie</title><desc>Created with Sketch.</desc><path d="M97.2 14c-3.1 6.1-6.3 12.2-10 19.5-3.2-9.3-6-17.2-8.8-25.2-.9.1-1.8.1-2.7.2-3.1 7.6-6.2 15.2-9.4 23C63 25.5 60 19.8 56 12.4c-3.9 9.2-6.9 16.1-9.7 23.1-1.4 3.4-1.4 6.7 3.7 6.8 19 .1 37.9 0 59.2 0-3.3-10.4-6.1-19.4-9-28.5-1 .1-2 .2-3 .2zM50.1 38.7c1.9-5.3 3.7-10.4 6-16.9 3.1 6.1 5.7 11 8.7 16.9H50.1zm19 0c2.3-6.9 4.5-13.5 7.2-21.8 3.3 8.2 5.9 14.7 8.7 21.8H69.1zM90 39c2.6-6 4.9-11.2 8.2-18.8 2.3 7.5 3.9 12.9 5.7 18.8H90zM8.3 37.5c6.8-.8 12.9-1.6 19.3-2.4-.5-2.9-.9-5.8-1.3-8.7-.5-3.1-.9-6.2-1.3-9.2-11 1.9-19.3-2-18.7-8.8 7.4 1.3 14.9 2.6 22.4 3.9.1-.9.3-1.8.4-2.6C20.2 7.1 11.4 4.4.9 1.3c.8-1-.1-.4-.1.2.1 8.6.1 17.3.6 25.9C2.5 44 16.8 55.2 36.8 53.3c-10.3-6-22.2-5.3-28.5-15.8zm147.9-3.1l1.1 4c0-.1 0-.2-.1-.3.2 1.7.2 3.4-.2 5.1-.1.5-.4 1.2-1 1.2s-.9-.6-1-1.2c-.6-2.5-.6-5.1-.1-7.6.2-.6.6-1.4 1.2-1.3.1 0 .1.098.1.1v-.2c-.1-.1-.1-.2-.2-.3 1 1 1.2 2.8 1.3 4.2-.2-1.3-.6-2.5-1.1-3.7zm0-15v-.2c-.1-.1-.1-.2-.2-.3 1 1 1.2 2.8 1.3 4.2-.2-1.3-.6-2.5-1.1-3.7l1.1 4c0-.1 0-.2-.1-.3.2 1.7.2 3.4-.2 5.1-.1.5-.4 1.2-1 1.2s-.9-.6-1-1.2c-.6-2.5-.6-5.1-.1-7.6.2-.6.6-1.4 1.2-1.3.1 0 .1.1.1.1zm-150.3.5c13.2.2 16.4 2.2 16.8 10.9-17.5 3.9-19 2.9-16.8-10.9zm210.7 17.4c-.8 2.3-2.4 5.3-4.3 5.9-2.7.9-8.2.5-8.6-.6-1.7-5.2-2.4-10.8-2.5-16.3 0-1 4-3 6.2-3.1 8.1-.4 16.2-.1 24.3-.1-7.8-4.6-40.5-2.9-48.7 0 1.6.5 3 1.4 4 1.1 8.5-2.4 10 2.2 9.4 9.1-.1 1.9.1 3.8.4 5.7 1.3 8.4 6.2 11.7 14.4 9.8 9.9-2.3 12.8-9 6.4-19.7-.2 2.7-.1 5.6-1 8.2zM190.2 7.7h38.7c.9-3.4-44.4-3.8-38.7 0zm-29.1 5.4c-9.9-1.2-19.9-2.5-29.9-2.7-3.6-.1-8.3 1.8-10.6 4.4-4.5 5-2.9 26.1 1.9 32.6.4-2 1-3.4 1-4.9-.2-6-.8-11.9-.8-17.8 0-6.5 3.4-9.7 10.2-10.1 6.9-.4 7.7 3.1 7.9 8.9.2 7.9 1.8 15.8 2.7 23.7.7 0 1.5-.1 2.2-.1V15.6c3.7.3 6.9.7 10.2.9 7.8.6 12.5 4 12.7 12.6.2 6.4 1.4 12.7 2.1 19 1.2-.1 2.4-.2 3.7-.3-.9-8.1-1.9-16.2-2.7-24.3-.7-6.3-4.5-9.7-10.6-10.4zM131 19.4c.5 1.2.9 2.4 1.1 3.7-.1-1.4-.3-3.2-1.3-4.2.1.1.1.2.2.3v.2zm1 4l-1.1-4s0-.1-.1-.1c-.6-.1-1 .7-1.2 1.3-.5 2.5-.5 5.1.1 7.6.1.6.4 1.2 1 1.2s.9-.7 1-1.2c.4-1.7.4-3.4.2-5.1.1.1.1.2.1.3zm-1 11c.5 1.2.9 2.4 1.1 3.7-.1-1.4-.3-3.2-1.3-4.2.1.1.1.2.2.3v.2zm1 4l-1.1-4s0-.1-.1-.1c-.6-.1-1 .7-1.2 1.3-.5 2.5-.5 5.1.1 7.6.1.6.4 1.2 1 1.2s.9-.7 1-1.2c.4-1.7.4-3.4.2-5.1.1.1.1.2.1.3z" fill-rule="evenodd"/></svg>