<svg width="219" height="67" viewBox="0 0 219 67" xmlns="http://www.w3.org/2000/svg"><title>pismo-linearne</title><desc>Created with Sketch.</desc><path d="M29.5.4h3.3c0 7.6-6.3 13.9-14.4 14.7v48.5h-3.8V15.1C6.5 14.2.2 8 .2.4h3.3c0 5.8 4.8 10.5 11 11.4V.4h3.8v11.4c6.4-.9 11.2-5.6 11.2-11.4zm159.3 26.8h3.3V.4h-3.3v26.8zm12.9 0h3.3V.4h-3.3v26.8zM215.6.4v26.8h3.3V.4h-3.3zm-26.8 63.2h3.3V36.8h-3.3v26.8zm12.9 0h3.3V36.8h-3.3v26.8zm13.9 0h3.3V36.8h-3.3v26.8zM63.2 11.2h26L72 66.7 57.8 17.1l-4.1 4.4-2.5-2.3 4.3-4.6H43.4l8-12.3 2.8 1.9-4.6 7h9l8.5-9.1 2.5 2.3-6.4 6.8zm-2.7 3.4L72 54.8l12.5-40.2h-24zM132 31.5c2.9 14.8 4.6 29.8 4.6 29.9l-3.4.4c-2.3-21.3-5.7-37.7-9.1-47.4h-5V60h7.1v3.4H109V60h6.8V14.4h-4.1c-3.2 9.7-6.2 26-7.9 47.4l-3.4-.3c0-.1 1.2-14.9 3.8-29.5 1.3-7.6 2.7-13.3 4-17.7H102v-3.4h7.2c3.1-8.5 6.1-10 8.3-10.1 2.3-.1 5.5 1.1 9 10.1h6.3v3.4h-5.1c1.4 4.3 2.8 9.9 4.3 17.2zm-9.2-20.6c-1.8-4.5-3.6-6.8-5.1-6.7-1.5.1-3.2 2.4-4.9 6.7h10zm52.5 19.7v-3.4h-10.4l6-14L152.6 2l-1.8 2.9 15.8 9.7-5.4 12.7h-11.1v3.4h11.1l10.1 10.4L161.1 60l3 1.6 11.4-21.1-9.5-9.8h9.3v-.1z" fill-rule="evenodd"/></svg>